<svg width="683" height="214" viewBox="0 0 683 214" fill="none" xmlns="http://www.w3.org/2000/svg">
<g opacity="0.7" filter="url(#filter0_d)">
<path d="M11.45 53.95L10.4601 53.8086L10.3283 54.7306L11.2387 54.9274L11.45 53.95ZM28.1 57.55L27.8887 58.5274L28.8661 58.7387L29.0774 57.7613L28.1 57.55ZM40.1 49L40.1244 49.9997L40.1335 49.9995L40.1425 49.9991L40.1 49ZM50.75 57.55L49.7779 57.3154L49.7758 57.3242L49.7738 57.3331L50.75 57.55ZM32.6 64.3L32.8108 65.2775L32.8169 65.2762L32.6 64.3ZM6.5 88.9H5.5V88.9274L5.5015 88.9547L6.5 88.9ZM51.2 99.25H52.2V96.8358L50.4929 98.5429L51.2 99.25ZM51.2 106H50.2V107H51.2V106ZM71 106V107H72V106H71ZM51.2 76.45L52.1972 76.5253L52.2 76.4877V76.45H51.2ZM37.25 91.75L37.0979 90.7616L37.0856 90.7636L37.25 91.75ZM27.05 88.3L27.9898 87.9582L27.9863 87.9489L27.05 88.3ZM35.15 77.95L34.9038 76.9807L34.8936 76.9834L35.15 77.95ZM51.2 74.2H52.2V72.9747L50.9996 73.2203L51.2 74.2ZM41.45 31.65C23.0068 31.65 11.8879 43.8139 10.4601 53.8086L12.4399 54.0914C13.7121 45.1861 23.8932 33.65 41.45 33.65V31.65ZM11.2387 54.9274L27.8887 58.5274L28.3113 56.5726L11.6613 52.9726L11.2387 54.9274ZM29.0774 57.7613C29.6244 55.2317 30.942 53.3532 32.8087 52.0751C34.6922 50.7856 37.1904 50.0713 40.1244 49.9997L40.0756 48.0003C36.8596 48.0787 33.9578 48.8644 31.6788 50.4249C29.383 51.9968 27.7756 54.3183 27.1226 57.3387L29.0774 57.7613ZM40.1425 49.9991C43.4515 49.8583 46.1192 50.8469 47.8136 52.2921C49.5086 53.7378 50.1951 55.5872 49.7779 57.3154L51.7221 57.7846C52.3549 55.1628 51.2414 52.5872 49.1115 50.7704C46.9808 48.9531 43.7985 47.8417 40.0575 48.0009L40.1425 49.9991ZM49.7738 57.3331C49.5993 58.1184 49.2404 58.6735 48.6329 59.1412C47.9872 59.6384 47.0289 60.0604 45.6149 60.4709C44.2086 60.8792 42.4447 61.2512 40.2378 61.6954C38.0433 62.1372 35.4331 62.646 32.3831 63.3238L32.8169 65.2762C35.8419 64.604 38.4255 64.1003 40.6325 63.6561C42.8272 63.2144 44.6726 62.8271 46.1726 62.3916C47.6649 61.9583 48.9096 61.4523 49.853 60.726C50.8346 59.9702 51.4507 59.0066 51.7262 57.7669L49.7738 57.3331ZM32.3892 63.3225C24.7056 64.9797 17.9841 67.2314 13.1798 71.1569C8.31165 75.1345 5.5 80.7561 5.5 88.9H7.5C7.5 81.2939 10.0884 76.2655 14.4452 72.7056C18.8659 69.0936 25.1944 66.9203 32.8108 65.2775L32.3892 63.3225ZM5.5015 88.9547C5.81438 94.6648 8.01559 99.5115 12.0414 102.919C16.0555 106.318 21.7817 108.2 29 108.2V106.2C22.1183 106.2 16.8945 104.407 13.3336 101.393C9.78441 98.3885 7.78562 94.0852 7.4985 88.8453L5.5015 88.9547ZM29 108.2C41.606 108.2 49.0505 102.814 51.9071 99.9571L50.4929 98.5429C47.9495 101.086 40.994 106.2 29 106.2V108.2ZM50.2 99.25V106H52.2V99.25H50.2ZM51.2 107H71V105H51.2V107ZM72 106V60.85H70V106H72ZM72 60.85C72 50.1138 68.4606 42.7525 62.7638 38.1004C57.1027 33.4776 49.457 31.65 41.45 31.65V33.65C49.193 33.65 56.3223 35.4224 61.4987 39.6496C66.6394 43.8475 70 50.5862 70 60.85H72ZM50.2028 76.3747C49.6367 83.8761 44.4232 89.6347 37.0979 90.7616L37.4021 92.7384C45.6768 91.4653 51.5633 84.9239 52.1972 76.5253L50.2028 76.3747ZM37.0856 90.7636C34.9376 91.1216 32.8483 91.0737 31.1963 90.5849C29.5512 90.0981 28.4469 89.2154 27.9898 87.9583L26.1102 88.6417C26.8531 90.6846 28.5988 91.9019 30.6287 92.5026C32.6517 93.1013 35.0624 93.1284 37.4144 92.7364L37.0856 90.7636ZM27.9863 87.9489C27.428 86.4599 27.5675 84.6979 28.667 83.0647C29.7726 81.4226 31.8989 79.8471 35.4064 78.9166L34.8936 76.9834C31.0511 78.0029 28.4524 79.8024 27.008 81.9478C25.5575 84.1021 25.322 86.5401 26.1137 88.6511L27.9863 87.9489ZM35.3962 78.9192C40.1109 77.7218 44.1144 76.7864 46.9384 76.1506C48.3503 75.8327 49.4672 75.5897 50.2304 75.4263C50.612 75.3446 50.9052 75.2828 51.1027 75.2415C51.2014 75.2209 51.2762 75.2053 51.3261 75.195C51.3511 75.1899 51.3698 75.186 51.3822 75.1834C51.3884 75.1822 51.3931 75.1812 51.3961 75.1806C51.3976 75.1803 51.3987 75.1801 51.3995 75.1799C51.3998 75.1798 51.4001 75.1798 51.4002 75.1797C51.4003 75.1797 51.4003 75.1797 51.4004 75.1797C51.4004 75.1797 51.4004 75.1797 51.2 74.2C50.9996 73.2203 50.9995 73.2203 50.9995 73.2203C50.9994 73.2203 50.9993 73.2203 50.9992 73.2204C50.9989 73.2204 50.9986 73.2205 50.9981 73.2206C50.9972 73.2208 50.996 73.221 50.9943 73.2214C50.9909 73.2221 50.9859 73.2231 50.9793 73.2244C50.9662 73.2271 50.9467 73.2312 50.9211 73.2365C50.8697 73.2471 50.7935 73.2629 50.6933 73.2839C50.4928 73.3258 50.1966 73.3882 49.8118 73.4706C49.0422 73.6353 47.9184 73.8798 46.4991 74.1994C43.6606 74.8386 39.6391 75.7782 34.9038 76.9808L35.3962 78.9192ZM50.2 74.2V76.45H52.2V74.2H50.2ZM208.55 33.7V32.7H207.835L207.604 33.3766L208.55 33.7ZM194.45 74.95L193.504 75.2734L194.45 78.0417L195.396 75.2734L194.45 74.95ZM180.35 33.7L181.296 33.3766L181.065 32.7H180.35V33.7ZM165.8 33.7V32.7H165.085L164.854 33.3766L165.8 33.7ZM151.7 74.95L150.755 75.2765L151.705 78.0271L152.646 75.2734L151.7 74.95ZM137.45 33.7L138.395 33.3735L138.163 32.7H137.45V33.7ZM117.5 33.7V32.7H116.098L116.555 34.0256L117.5 33.7ZM142.4 106L141.454 106.326L141.687 107H142.4V106ZM158.3 106V107H159.01L159.244 106.329L158.3 106ZM173 63.85L173.943 63.5177L172.995 60.827L172.056 63.5207L173 63.85ZM187.85 106L186.907 106.332L187.142 107H187.85V106ZM203.75 106V107H204.463L204.696 106.326L203.75 106ZM228.65 33.7L229.596 34.0256L230.052 32.7H228.65V33.7ZM207.604 33.3766L193.504 74.6266L195.396 75.2734L209.496 34.0234L207.604 33.3766ZM195.396 74.6266L181.296 33.3766L179.404 34.0234L193.504 75.2734L195.396 74.6266ZM180.35 32.7H165.8V34.7H180.35V32.7ZM164.854 33.3766L150.754 74.6266L152.646 75.2734L166.746 34.0234L164.854 33.3766ZM152.645 74.6235L138.395 33.3735L136.505 34.0265L150.755 75.2765L152.645 74.6235ZM137.45 32.7H117.5V34.7H137.45V32.7ZM116.555 34.0256L141.454 106.326L143.346 105.674L118.445 33.3744L116.555 34.0256ZM142.4 107H158.3V105H142.4V107ZM159.244 106.329L173.944 64.1793L172.056 63.5207L157.356 105.671L159.244 106.329ZM172.057 64.1823L186.907 106.332L188.793 105.668L173.943 63.5177L172.057 64.1823ZM187.85 107H203.75V105H187.85V107ZM204.696 106.326L229.596 34.0256L227.705 33.3744L202.805 105.674L204.696 106.326ZM228.65 32.7H208.55V34.7H228.65V32.7ZM266.799 31.65C245.376 31.65 229.199 48.4692 229.199 69.85H231.199C231.199 49.5308 246.523 33.65 266.799 33.65V31.65ZM229.199 69.85C229.199 91.2255 245.37 108.2 266.799 108.2V106.2C246.528 106.2 231.199 90.1745 231.199 69.85H229.199ZM266.799 108.2C288.228 108.2 304.399 91.2255 304.399 69.85H302.399C302.399 90.1745 287.07 106.2 266.799 106.2V108.2ZM304.399 69.85C304.399 48.4692 288.223 31.65 266.799 31.65V33.65C287.076 33.65 302.399 49.5308 302.399 69.85H304.399ZM266.799 87.9C261.675 87.9 257.683 85.9529 254.958 82.7742C252.219 79.5784 250.699 75.0625 250.699 69.85H248.699C248.699 75.4375 250.329 80.4466 253.44 84.0758C256.565 87.7221 261.124 89.9 266.799 89.9V87.9ZM250.699 69.85C250.699 64.6375 252.219 60.1216 254.958 56.9258C257.683 53.7471 261.675 51.8 266.799 51.8V49.8C261.124 49.8 256.565 51.9779 253.44 55.6242C250.329 59.2533 248.699 64.2625 248.699 69.85H250.699ZM266.799 51.8C271.924 51.8 275.915 53.7471 278.64 56.9258C281.379 60.1216 282.899 64.6375 282.899 69.85H284.899C284.899 64.2625 283.269 59.2533 280.158 55.6242C277.033 51.9779 272.475 49.8 266.799 49.8V51.8ZM282.899 69.85C282.899 75.0625 281.379 79.5784 278.64 82.7742C275.915 85.9529 271.924 87.9 266.799 87.9V89.9C272.475 89.9 277.033 87.7221 280.158 84.0758C283.269 80.4466 284.899 75.4375 284.899 69.85H282.899ZM396.782 33.7V32.7H396.067L395.836 33.3766L396.782 33.7ZM382.682 74.95L381.736 75.2734L382.682 78.0417L383.629 75.2734L382.682 74.95ZM368.582 33.7L369.529 33.3766L369.297 32.7H368.582V33.7ZM354.032 33.7V32.7H353.317L353.086 33.3766L354.032 33.7ZM339.932 74.95L338.987 75.2765L339.937 78.0271L340.879 75.2734L339.932 74.95ZM325.682 33.7L326.628 33.3735L326.395 32.7H325.682V33.7ZM305.732 33.7V32.7H304.33L304.787 34.0256L305.732 33.7ZM330.632 106L329.687 106.326L329.919 107H330.632V106ZM346.532 106V107H347.243L347.477 106.329L346.532 106ZM361.232 63.85L362.176 63.5177L361.228 60.827L360.288 63.5207L361.232 63.85ZM376.082 106L375.139 106.332L375.374 107H376.082V106ZM391.982 106V107H392.696L392.928 106.326L391.982 106ZM416.882 33.7L417.828 34.0256L418.284 32.7H416.882V33.7ZM395.836 33.3766L381.736 74.6266L383.629 75.2734L397.729 34.0234L395.836 33.3766ZM383.629 74.6266L369.529 33.3766L367.636 34.0234L381.736 75.2734L383.629 74.6266ZM368.582 32.7H354.032V34.7H368.582V32.7ZM353.086 33.3766L338.986 74.6266L340.879 75.2734L354.979 34.0234L353.086 33.3766ZM340.878 74.6235L326.628 33.3735L324.737 34.0265L338.987 75.2765L340.878 74.6235ZM325.682 32.7H305.732V34.7H325.682V32.7ZM304.787 34.0256L329.687 106.326L331.578 105.674L306.678 33.3744L304.787 34.0256ZM330.632 107H346.532V105H330.632V107ZM347.477 106.329L362.177 64.1793L360.288 63.5207L345.588 105.671L347.477 106.329ZM360.289 64.1823L375.139 106.332L377.026 105.668L362.176 63.5177L360.289 64.1823ZM376.082 107H391.982V105H376.082V107ZM392.928 106.326L417.828 34.0256L415.937 33.3744L391.037 105.674L392.928 106.326ZM416.882 32.7H396.782V34.7H416.882V32.7ZM493.644 61.75L493.94 60.7948L493.933 60.7929L493.644 61.75ZM479.994 53.8L480.992 53.7445L480.992 53.7339L480.991 53.7233L479.994 53.8ZM489.444 48.7L489.525 47.7033L489.522 47.7031L489.444 48.7ZM498.144 55L497.189 55.2983L497.48 56.2284L498.417 55.9619L498.144 55ZM513.444 50.65L513.717 51.6119L514.571 51.3692L514.431 50.4929L513.444 50.65ZM459.444 53.35L458.445 53.3053L458.444 53.312L459.444 53.35ZM481.644 76.15L481.311 77.0932L481.319 77.0958L481.644 76.15ZM495.294 84.1L494.294 84.137L494.294 84.1384L495.294 84.1ZM484.044 89.05L483.985 90.0483L483.988 90.0485L484.044 89.05ZM471.144 82L472.072 81.6286L471.657 80.5903L470.671 81.1187L471.144 82ZM456.594 89.8L456.121 88.9187L455.421 89.2943L455.629 90.0617L456.594 89.8ZM516.294 85.15L515.295 85.1089L515.294 85.1155L516.294 85.15ZM493.933 60.7929C488.23 59.0669 484.971 57.7855 483.126 56.6435C482.217 56.0807 481.712 55.5874 481.422 55.1467C481.143 54.7222 481.022 54.2838 480.992 53.7445L478.995 53.8555C479.04 54.6661 479.238 55.4653 479.751 56.2455C480.254 57.0095 481.014 57.6881 482.074 58.344C484.166 59.6395 487.657 60.9831 493.354 62.7071L493.933 60.7929ZM480.991 53.7233C480.943 53.0999 481.234 51.9943 482.407 51.0837C483.574 50.1773 485.699 49.4094 489.366 49.6969L489.522 47.7031C485.538 47.3906 482.863 48.1977 481.181 49.5038C479.504 50.8057 478.895 52.5501 478.997 53.8767L480.991 53.7233ZM489.363 49.6967C494.435 50.108 496.538 53.2139 497.189 55.2983L499.098 54.7017C498.25 51.9861 495.553 48.192 489.525 47.7033L489.363 49.6967ZM498.417 55.9619L513.717 51.6119L513.17 49.6881L497.87 54.0381L498.417 55.9619ZM514.431 50.4929C513.301 43.3864 504.614 31.8 486.744 31.8V33.8C503.674 33.8 511.487 44.7136 512.456 50.8071L514.431 50.4929ZM486.744 31.8C477.18 31.8 470.216 34.4807 465.572 38.5545C460.929 42.6269 458.681 48.0262 458.445 53.3053L460.443 53.3947C460.656 48.6238 462.684 43.7481 466.891 40.058C471.096 36.3693 477.557 33.8 486.744 33.8V31.8ZM458.444 53.312C458.21 59.476 459.901 64.079 463.773 67.8306C467.577 71.5169 473.419 74.312 481.311 77.0932L481.976 75.2068C474.119 72.438 468.636 69.7581 465.165 66.3944C461.761 63.096 460.227 59.074 460.443 53.3879L458.444 53.312ZM481.319 77.0958C486.432 78.851 489.678 79.7846 491.74 80.7976C492.744 81.2907 493.345 81.7494 493.712 82.2362C494.062 82.7009 494.263 83.2762 494.294 84.137L496.293 84.063C496.25 82.8988 495.963 81.8991 495.31 81.0326C494.673 80.1881 493.756 79.5593 492.622 79.0024C490.409 77.9154 486.906 76.899 481.968 75.2042L481.319 77.0958ZM494.294 84.1384C494.344 85.421 493.429 86.4721 491.407 87.2107C489.422 87.9357 486.72 88.1971 484.099 88.0515L483.988 90.0485C486.768 90.2029 489.766 89.9393 492.093 89.0893C494.383 88.2529 496.394 86.679 496.293 84.0616L494.294 84.1384ZM484.102 88.0517C481.706 87.9108 478.993 87.1291 476.707 85.9328C474.39 84.7199 472.692 83.177 472.072 81.6286L470.215 82.3714C471.096 84.573 473.297 86.4051 475.78 87.7047C478.294 89.0209 481.282 89.8893 483.985 90.0483L484.102 88.0517ZM470.671 81.1187L456.121 88.9187L457.066 90.6813L471.616 82.8813L470.671 81.1187ZM455.629 90.0617C456.924 94.838 461.106 99.3312 466.761 102.609C472.443 105.902 479.74 108.05 487.494 108.05V106.05C480.097 106.05 473.145 103.998 467.764 100.879C462.356 97.7438 458.664 93.612 457.559 89.5383L455.629 90.0617ZM487.494 108.05C504.449 108.05 516.817 98.979 517.293 85.1845L515.294 85.1155C514.87 97.421 503.838 106.05 487.494 106.05V108.05ZM517.293 85.1911C517.527 79.4928 516.035 74.6788 512.222 70.6271C508.449 66.6187 502.483 63.4408 493.94 60.7948L493.348 62.7052C501.755 65.3092 507.338 68.3563 510.766 71.9979C514.152 75.5962 515.51 79.8572 515.295 85.1089L517.293 85.1911ZM525.153 106H524.153V107H525.153V106ZM545.103 106V107H546.103V106H545.103ZM545.103 33.7H546.103V32.7H545.103V33.7ZM525.153 33.7V32.7H524.153V33.7H525.153ZM535.203 24.65C541.905 24.65 547.303 19.2523 547.303 12.55H545.303C545.303 18.1477 540.801 22.65 535.203 22.65V24.65ZM547.303 12.55C547.303 5.7065 541.914 0.299997 535.203 0.299997V2.3C540.792 2.3 545.303 6.79349 545.303 12.55H547.303ZM535.203 0.299997C528.351 0.299997 522.953 5.69771 522.953 12.55H524.953C524.953 6.80228 529.455 2.3 535.203 2.3V0.299997ZM522.953 12.55C522.953 19.261 528.36 24.65 535.203 24.65V22.65C529.447 22.65 524.953 18.139 524.953 12.55H522.953ZM525.153 107H545.103V105H525.153V107ZM546.103 106V33.7H544.103V106H546.103ZM545.103 32.7H525.153V34.7H545.103V32.7ZM524.153 33.7V106H526.153V33.7H524.153ZM599.216 84.7L600.134 84.3039L599.575 83.0077L598.537 83.9652L599.216 84.7ZM582.866 52.9V51.9H581.866V52.9H582.866ZM599.666 52.9V53.9H600.666V52.9H599.666ZM599.666 33.7H600.666V32.7H599.666V33.7ZM582.866 33.7H581.866V34.7H582.866V33.7ZM582.866 13H583.866V11.7493L582.646 12.0245L582.866 13ZM562.916 17.5L562.696 16.5245L561.916 16.7004V17.5H562.916ZM562.916 33.7V34.7H563.916V33.7H562.916ZM553.016 33.7V32.7H552.016V33.7H553.016ZM553.016 52.9H552.016V53.9H553.016V52.9ZM562.916 52.9H563.916V51.9H562.916V52.9ZM605.816 100L606.508 100.721L607.009 100.241L606.734 99.6039L605.816 100ZM598.537 83.9652C597.699 84.7394 596.412 85.4314 594.97 85.9299C593.535 86.426 592.034 86.7 590.816 86.7V88.7C592.298 88.7 594.021 88.374 595.624 87.8201C597.219 87.2686 598.783 86.4606 599.894 85.4348L598.537 83.9652ZM590.816 86.7C587.89 86.7 586.268 85.8111 585.307 84.385C584.284 82.8655 583.866 80.5381 583.866 77.35H581.866C581.866 80.6119 582.272 83.4595 583.649 85.5025C585.088 87.6389 587.442 88.7 590.816 88.7V86.7ZM583.866 77.35V52.9H581.866V77.35H583.866ZM582.866 53.9H599.666V51.9H582.866V53.9ZM600.666 52.9V33.7H598.666V52.9H600.666ZM599.666 32.7H582.866V34.7H599.666V32.7ZM583.866 33.7V13H581.866V33.7H583.866ZM582.646 12.0245L562.696 16.5245L563.136 18.4755L583.086 13.9755L582.646 12.0245ZM561.916 17.5V33.7H563.916V17.5H561.916ZM562.916 32.7H553.016V34.7H562.916V32.7ZM552.016 33.7V52.9H554.016V33.7H552.016ZM553.016 53.9H562.916V51.9H553.016V53.9ZM561.916 52.9V83.8H563.916V52.9H561.916ZM561.916 83.8C561.916 91.4886 564.111 97.521 568.413 101.624C572.707 105.719 578.952 107.75 586.766 107.75V105.75C579.279 105.75 573.599 103.806 569.793 100.176C565.995 96.554 563.916 91.1114 563.916 83.8H561.916ZM586.766 107.75C595.55 107.75 602.556 104.516 606.508 100.721L605.123 99.2786C601.576 102.684 595.081 105.75 586.766 105.75V107.75ZM606.734 99.6039L600.134 84.3039L598.297 85.0961L604.897 100.396L606.734 99.6039ZM676.811 77.05V78.05H677.631L677.792 77.2461L676.811 77.05ZM674.561 90.55L675.42 91.0626L675.976 90.1306L675.002 89.6523L674.561 90.55ZM658.061 82.45L658.502 81.5523L657.735 81.1759L657.244 81.8745L658.061 82.45ZM628.661 77.05V76.05H627.292L627.709 77.354L628.661 77.05ZM658.511 63.1V64.1H659.766L659.486 62.8766L658.511 63.1ZM628.511 63.1L627.541 62.8575L627.231 64.1H628.511V63.1ZM677.792 77.2461C678.26 74.9072 678.411 72.4352 678.411 69.85H676.411C676.411 72.3648 676.263 74.6928 675.831 76.8539L677.792 77.2461ZM678.411 69.85C678.411 59.2266 675.163 49.6824 669.206 42.778C663.237 35.8592 654.596 31.65 643.961 31.65V33.65C654.027 33.65 662.111 37.6158 667.692 44.0845C673.285 50.5676 676.411 59.6234 676.411 69.85H678.411ZM643.961 31.65C622.511 31.65 607.111 48.4971 607.111 69.85H609.111C609.111 49.5029 623.712 33.65 643.961 33.65V31.65ZM607.111 69.85C607.111 91.2255 623.283 108.2 644.711 108.2V106.2C624.44 106.2 609.111 90.1745 609.111 69.85H607.111ZM644.711 108.2C658.271 108.2 669.243 101.408 675.42 91.0626L673.703 90.0374C667.879 99.7915 657.552 106.2 644.711 106.2V108.2ZM675.002 89.6523L658.502 81.5523L657.621 83.3477L674.121 91.4477L675.002 89.6523ZM657.244 81.8745C654.599 85.6321 650.269 87.9 644.711 87.9V89.9C650.853 89.9 655.823 87.3679 658.879 83.0255L657.244 81.8745ZM644.711 87.9C636.938 87.9 631.745 83.4226 629.614 76.746L627.709 77.354C630.078 84.7773 635.984 89.9 644.711 89.9V87.9ZM628.661 78.05H676.811V76.05H628.661V78.05ZM643.961 51.8C647.944 51.8 650.919 53.0025 653.093 54.9884C655.283 56.9884 656.743 59.8588 657.537 63.3234L659.486 62.8766C658.63 59.1412 657.015 55.8616 654.442 53.5116C651.854 51.1475 648.378 49.8 643.961 49.8V51.8ZM658.511 62.1H628.511V64.1H658.511V62.1ZM629.481 63.3425C630.34 59.909 632.006 57.0318 634.405 55.0155C636.796 53.0057 639.974 51.8 643.961 51.8V49.8C639.548 49.8 635.902 51.1443 633.118 53.4845C630.342 55.8182 628.483 59.091 627.541 62.8575L629.481 63.3425ZM51.95 154.7L52.8682 154.304L52.3091 153.008L51.2717 153.965L51.95 154.7ZM35.6 122.9V121.9H34.6V122.9H35.6ZM52.4 122.9V123.9H53.4V122.9H52.4ZM52.4 103.7H53.4V102.7H52.4V103.7ZM35.6 103.7H34.6V104.7H35.6V103.7ZM35.6 83H36.6V81.7493L35.38 82.0245L35.6 83ZM15.65 87.5L15.43 86.5245L14.65 86.7004V87.5H15.65ZM15.65 103.7V104.7H16.65V103.7H15.65ZM5.75 103.7V102.7H4.75V103.7H5.75ZM5.75 122.9H4.75V123.9H5.75V122.9ZM15.65 122.9H16.65V121.9H15.65V122.9ZM58.55 170L59.2425 170.721L59.743 170.241L59.4682 169.604L58.55 170ZM51.2717 153.965C50.433 154.739 49.1467 155.431 47.7045 155.93C46.2693 156.426 44.768 156.7 43.55 156.7V158.7C45.032 158.7 46.7557 158.374 48.358 157.82C49.9534 157.269 51.517 156.461 52.6283 155.435L51.2717 153.965ZM43.55 156.7C40.6241 156.7 39.0026 155.811 38.0419 154.385C37.0182 152.865 36.6 150.538 36.6 147.35H34.6C34.6 150.612 35.0068 153.46 36.3831 155.502C37.8224 157.639 40.1759 158.7 43.55 158.7V156.7ZM36.6 147.35V122.9H34.6V147.35H36.6ZM35.6 123.9H52.4V121.9H35.6V123.9ZM53.4 122.9V103.7H51.4V122.9H53.4ZM52.4 102.7H35.6V104.7H52.4V102.7ZM36.6 103.7V83H34.6V103.7H36.6ZM35.38 82.0245L15.43 86.5245L15.87 88.4755L35.82 83.9755L35.38 82.0245ZM14.65 87.5V103.7H16.65V87.5H14.65ZM15.65 102.7H5.75V104.7H15.65V102.7ZM4.75 103.7V122.9H6.75V103.7H4.75ZM5.75 123.9H15.65V121.9H5.75V123.9ZM14.65 122.9V153.8H16.65V122.9H14.65ZM14.65 153.8C14.65 161.489 16.8455 167.521 21.1473 171.624C25.4415 175.719 31.6864 177.75 39.5 177.75V175.75C32.0136 175.75 26.3335 173.806 22.5277 170.176C18.7295 166.554 16.65 161.111 16.65 153.8H14.65ZM39.5 177.75C48.2845 177.75 55.2899 174.516 59.2425 170.721L57.8575 169.279C54.3101 172.684 47.8155 175.75 39.5 175.75V177.75ZM59.4682 169.604L52.8682 154.304L51.0318 155.096L57.6318 170.396L59.4682 169.604ZM98.1957 101.65C76.7722 101.65 60.5957 118.469 60.5957 139.85H62.5957C62.5957 119.531 77.9192 103.65 98.1957 103.65V101.65ZM60.5957 139.85C60.5957 161.225 76.767 178.2 98.1957 178.2V176.2C77.9244 176.2 62.5957 160.175 62.5957 139.85H60.5957ZM98.1957 178.2C119.624 178.2 135.796 161.225 135.796 139.85H133.796C133.796 160.175 118.467 176.2 98.1957 176.2V178.2ZM135.796 139.85C135.796 118.469 119.619 101.65 98.1957 101.65V103.65C118.472 103.65 133.796 119.531 133.796 139.85H135.796ZM98.1957 157.9C93.0713 157.9 89.0796 155.953 86.355 152.774C83.6157 149.578 82.0957 145.062 82.0957 139.85H80.0957C80.0957 145.438 81.7258 150.447 84.8364 154.076C87.9618 157.722 92.5201 159.9 98.1957 159.9V157.9ZM82.0957 139.85C82.0957 134.638 83.6157 130.122 86.355 126.926C89.0796 123.747 93.0713 121.8 98.1957 121.8V119.8C92.5201 119.8 87.9618 121.978 84.8364 125.624C81.7258 129.253 80.0957 134.262 80.0957 139.85H82.0957ZM98.1957 121.8C103.32 121.8 107.312 123.747 110.036 126.926C112.776 130.122 114.296 134.638 114.296 139.85H116.296C116.296 134.262 114.666 129.253 111.555 125.624C108.43 121.978 103.871 119.8 98.1957 119.8V121.8ZM114.296 139.85C114.296 145.062 112.776 149.578 110.036 152.774C107.312 155.953 103.32 157.9 98.1957 157.9V159.9C103.871 159.9 108.43 157.722 111.555 154.076C114.666 150.447 116.296 145.438 116.296 139.85H114.296ZM209.335 177.95L210.334 177.904L210.334 177.904L209.335 177.95ZM165.235 156.65L164.265 156.893L164.278 156.943L164.295 156.992L165.235 156.65ZM167.785 152.6V151.6H167.535L167.315 151.718L167.785 152.6ZM196.435 116.3L195.854 115.486L195.133 116.001L195.557 116.779L196.435 116.3ZM208.885 113.45L208.825 114.448L209.885 114.512V113.45H208.885ZM208.885 97.4H209.885V96.4H208.885V97.4ZM188.635 107.75L188.08 108.582L188.853 109.097L189.423 108.365L188.635 107.75ZM154.285 148.4L154.939 149.157L155.998 148.241L154.789 147.536L154.285 148.4ZM151.885 169.85L152.49 169.053L152.48 169.046L152.471 169.039L151.885 169.85ZM171.835 175.25L171.765 176.248L171.772 176.248L171.78 176.248L171.835 175.25ZM170.785 187.85L170.73 188.849L170.732 188.849L170.785 187.85ZM147.385 179.9L148.092 179.193L147.322 178.423L146.62 179.256L147.385 179.9ZM137.785 191.3L137.02 190.656L136.496 191.279L137 191.919L137.785 191.3ZM173.485 204.2L173.477 205.2L173.479 205.2L173.485 204.2ZM210.334 177.904C210.179 174.566 209.468 171.592 208.028 169.02C206.585 166.44 204.44 164.318 201.506 162.644C195.682 159.322 186.723 157.75 173.785 157.75V159.75C186.647 159.75 195.163 161.328 200.515 164.381C203.168 165.895 205.036 167.767 206.283 169.996C207.534 172.233 208.191 174.884 208.336 177.996L210.334 177.904ZM173.785 157.75C171.629 157.75 169.724 157.637 168.309 157.34C167.601 157.191 167.068 157.007 166.701 156.802C166.335 156.597 166.215 156.418 166.175 156.308L164.295 156.992C164.555 157.707 165.11 158.203 165.724 158.547C166.337 158.89 167.088 159.127 167.899 159.297C169.521 159.638 171.592 159.75 173.785 159.75V157.75ZM166.205 156.407C166.05 155.787 166.274 154.539 168.256 153.482L167.315 151.718C164.796 153.061 163.82 155.113 164.265 156.893L166.205 156.407ZM167.785 153.6C168.19 153.6 168.637 153.634 169.155 153.672C169.658 153.71 170.218 153.75 170.785 153.75V151.75C170.302 151.75 169.812 151.715 169.303 151.678C168.808 151.641 168.28 151.6 167.785 151.6V153.6ZM170.785 153.75C186.602 153.75 200.435 143.871 200.435 127.7H198.435C198.435 142.429 185.868 151.75 170.785 151.75V153.75ZM200.435 127.7C200.435 123.155 199.179 119.242 197.313 115.821L195.557 116.779C197.291 119.958 198.435 123.545 198.435 127.7H200.435ZM197.016 117.114C199.917 115.042 204.011 114.156 208.825 114.448L208.946 112.452C203.859 112.144 199.254 113.058 195.854 115.486L197.016 117.114ZM209.885 113.45V97.4H207.885V113.45H209.885ZM208.885 96.4C200.432 96.4 192.807 100.779 187.847 107.135L189.423 108.365C194.063 102.421 201.138 98.4 208.885 98.4V96.4ZM189.19 106.918C184.06 103.498 177.713 101.65 170.785 101.65V103.65C177.358 103.65 183.311 105.402 188.08 108.582L189.19 106.918ZM170.785 101.65C154.968 101.65 141.135 111.529 141.135 127.7H143.135C143.135 112.971 155.702 103.65 170.785 103.65V101.65ZM141.135 127.7C141.135 137.398 146.313 144.907 153.781 149.264L154.789 147.536C147.857 143.493 143.135 136.602 143.135 127.7H141.135ZM153.631 147.643C144.439 155.59 145.231 166.278 151.3 170.661L152.471 169.039C147.74 165.622 146.432 156.51 154.939 149.157L153.631 147.643ZM151.281 170.647C155.884 174.139 163.201 175.647 171.765 176.248L171.905 174.252C163.37 173.653 156.586 172.161 152.49 169.053L151.281 170.647ZM171.78 176.248C175.16 176.436 178.041 176.531 180.415 176.638C182.81 176.746 184.677 176.866 186.112 177.1C187.569 177.336 188.42 177.667 188.908 178.08C189.329 178.437 189.585 178.947 189.585 179.9H191.585C191.585 178.528 191.185 177.388 190.2 176.554C189.282 175.776 187.977 175.376 186.433 175.125C184.868 174.871 182.892 174.748 180.505 174.64C178.098 174.532 175.26 174.439 171.891 174.252L171.78 176.248ZM189.585 179.9C189.585 181.895 188.477 183.763 185.556 185.104C182.582 186.468 177.82 187.223 170.838 186.851L170.732 188.849C177.85 189.227 182.989 188.482 186.39 186.921C189.843 185.337 191.585 182.855 191.585 179.9H189.585ZM170.84 186.852C160 186.258 152.192 183.292 148.092 179.193L146.678 180.607C151.279 185.208 159.67 188.242 170.73 188.848L170.84 186.852ZM146.62 179.256L137.02 190.656L138.55 191.944L148.15 180.544L146.62 179.256ZM137 191.919C139.1 194.584 143.739 197.855 150.019 200.473C156.333 203.105 164.411 205.124 173.477 205.2L173.494 203.2C164.71 203.126 156.887 201.17 150.789 198.627C144.656 196.07 140.37 192.966 138.571 190.681L137 191.919ZM173.479 205.2C184.934 205.276 194.319 202.776 200.774 198.071C207.27 193.336 210.725 186.415 210.334 177.904L208.336 177.996C208.696 185.835 205.55 192.114 199.596 196.454C193.601 200.824 184.686 203.274 173.492 203.2L173.479 205.2ZM170.785 118.5C177.096 118.5 181.335 122.509 181.335 127.7H183.335C183.335 121.191 177.975 116.5 170.785 116.5V118.5ZM181.335 127.7C181.335 132.891 177.096 136.9 170.785 136.9V138.9C177.975 138.9 183.335 134.209 183.335 127.7H181.335ZM170.785 136.9C164.475 136.9 160.235 132.891 160.235 127.7H158.235C158.235 134.209 163.596 138.9 170.785 138.9V136.9ZM160.235 127.7C160.235 122.509 164.475 118.5 170.785 118.5V116.5C163.596 116.5 158.235 121.191 158.235 127.7H160.235ZM279.692 147.05V148.05H280.512L280.673 147.246L279.692 147.05ZM277.442 160.55L278.301 161.063L278.857 160.131L277.883 159.652L277.442 160.55ZM260.942 152.45L261.383 151.552L260.616 151.176L260.124 151.875L260.942 152.45ZM231.542 147.05V146.05H230.173L230.59 147.354L231.542 147.05ZM261.392 133.1V134.1H262.647L262.367 132.877L261.392 133.1ZM231.392 133.1L230.422 132.857L230.111 134.1H231.392V133.1ZM280.673 147.246C281.141 144.907 281.292 142.435 281.292 139.85H279.292C279.292 142.365 279.144 144.693 278.712 146.854L280.673 147.246ZM281.292 139.85C281.292 129.227 278.044 119.682 272.087 112.778C266.118 105.859 257.476 101.65 246.842 101.65V103.65C256.908 103.65 264.992 107.616 270.573 114.084C276.166 120.568 279.292 129.623 279.292 139.85H281.292ZM246.842 101.65C225.392 101.65 209.992 118.497 209.992 139.85H211.992C211.992 119.503 226.593 103.65 246.842 103.65V101.65ZM209.992 139.85C209.992 161.225 226.163 178.2 247.592 178.2V176.2C227.321 176.2 211.992 160.175 211.992 139.85H209.992ZM247.592 178.2C261.152 178.2 272.124 171.408 278.301 161.063L276.584 160.037C270.76 169.792 260.433 176.2 247.592 176.2V178.2ZM277.883 159.652L261.383 151.552L260.502 153.348L277.002 161.448L277.883 159.652ZM260.124 151.875C257.48 155.632 253.15 157.9 247.592 157.9V159.9C253.734 159.9 258.704 157.368 261.76 153.025L260.124 151.875ZM247.592 157.9C239.819 157.9 234.626 153.423 232.495 146.746L230.59 147.354C232.959 154.777 238.865 159.9 247.592 159.9V157.9ZM231.542 148.05H279.692V146.05H231.542V148.05ZM246.842 121.8C250.825 121.8 253.8 123.003 255.974 124.988C258.164 126.988 259.623 129.859 260.417 133.323L262.367 132.877C261.511 129.141 259.896 125.862 257.323 123.512C254.735 121.147 251.259 119.8 246.842 119.8V121.8ZM261.392 132.1H231.392V134.1H261.392V132.1ZM232.362 133.343C233.221 129.909 234.887 127.032 237.286 125.015C239.677 123.006 242.855 121.8 246.842 121.8V119.8C242.429 119.8 238.783 121.144 235.999 123.485C233.222 125.818 231.364 129.091 230.422 132.857L232.362 133.343ZM331.003 154.7L331.921 154.304L331.362 153.008L330.324 153.965L331.003 154.7ZM314.653 122.9V121.9H313.653V122.9H314.653ZM331.453 122.9V123.9H332.453V122.9H331.453ZM331.453 103.7H332.453V102.7H331.453V103.7ZM314.653 103.7H313.653V104.7H314.653V103.7ZM314.653 83H315.653V81.7493L314.433 82.0245L314.653 83ZM294.703 87.5L294.483 86.5245L293.703 86.7004V87.5H294.703ZM294.703 103.7V104.7H295.703V103.7H294.703ZM284.803 103.7V102.7H283.803V103.7H284.803ZM284.803 122.9H283.803V123.9H284.803V122.9ZM294.703 122.9H295.703V121.9H294.703V122.9ZM337.603 170L338.295 170.721L338.796 170.241L338.521 169.604L337.603 170ZM330.324 153.965C329.486 154.739 328.199 155.431 326.757 155.93C325.322 156.426 323.821 156.7 322.603 156.7V158.7C324.085 158.7 325.808 158.374 327.411 157.82C329.006 157.269 330.57 156.461 331.681 155.435L330.324 153.965ZM322.603 156.7C319.677 156.7 318.055 155.811 317.095 154.385C316.071 152.865 315.653 150.538 315.653 147.35H313.653C313.653 150.612 314.06 153.46 315.436 155.502C316.875 157.639 319.229 158.7 322.603 158.7V156.7ZM315.653 147.35V122.9H313.653V147.35H315.653ZM314.653 123.9H331.453V121.9H314.653V123.9ZM332.453 122.9V103.7H330.453V122.9H332.453ZM331.453 102.7H314.653V104.7H331.453V102.7ZM315.653 103.7V83H313.653V103.7H315.653ZM314.433 82.0245L294.483 86.5245L294.923 88.4755L314.873 83.9755L314.433 82.0245ZM293.703 87.5V103.7H295.703V87.5H293.703ZM294.703 102.7H284.803V104.7H294.703V102.7ZM283.803 103.7V122.9H285.803V103.7H283.803ZM284.803 123.9H294.703V121.9H284.803V123.9ZM293.703 122.9V153.8H295.703V122.9H293.703ZM293.703 153.8C293.703 161.489 295.898 167.521 300.2 171.624C304.494 175.719 310.739 177.75 318.553 177.75V175.75C311.066 175.75 305.386 173.806 301.58 170.176C297.782 166.554 295.703 161.111 295.703 153.8H293.703ZM318.553 177.75C327.337 177.75 334.343 174.516 338.295 170.721L336.91 169.279C333.363 172.684 326.868 175.75 318.553 175.75V177.75ZM338.521 169.604L331.921 154.304L330.085 155.096L336.685 170.396L338.521 169.604ZM365.046 110H364.046V112.473L365.765 110.695L365.046 110ZM365.046 71H366.046V70H365.046V71ZM345.096 71V70H344.096V71H345.096ZM345.096 176H344.096V177H345.096V176ZM365.046 176V177H366.046V176H365.046ZM388.746 176H387.746V177H388.746V176ZM408.696 176V177H409.696V176H408.696ZM381.846 101.65C374.79 101.65 368.84 104.636 364.327 109.305L365.765 110.695C369.952 106.364 375.401 103.65 381.846 103.65V101.65ZM366.046 110V71H364.046V110H366.046ZM365.046 70H345.096V72H365.046V70ZM344.096 71V176H346.096V71H344.096ZM345.096 177H365.046V175H345.096V177ZM366.046 176V136.7H364.046V176H366.046ZM366.046 136.7C366.046 131.515 367.252 127.913 369.169 125.623C371.065 123.358 373.761 122.25 377.046 122.25V120.25C373.28 120.25 369.977 121.542 367.635 124.339C365.314 127.112 364.046 131.235 364.046 136.7H366.046ZM377.046 122.25C380.448 122.25 383.055 123.235 384.836 125.313C386.643 127.421 387.746 130.82 387.746 135.95H389.746C389.746 130.58 388.598 126.629 386.355 124.012C384.086 121.365 380.844 120.25 377.046 120.25V122.25ZM387.746 135.95V176H389.746V135.95H387.746ZM388.746 177H408.696V175H388.746V177ZM409.696 176V136.7H407.696V176H409.696ZM409.696 136.7C409.696 125.463 407.116 116.697 402.293 110.722C397.445 104.716 390.428 101.65 381.846 101.65V103.65C389.914 103.65 396.322 106.509 400.736 111.978C405.175 117.478 407.696 125.737 407.696 136.7H409.696ZM486.382 147.05V148.05H487.201L487.362 147.246L486.382 147.05ZM484.132 160.55L484.99 161.063L485.547 160.131L484.572 159.652L484.132 160.55ZM467.632 152.45L468.072 151.552L467.305 151.176L466.814 151.875L467.632 152.45ZM438.232 147.05V146.05H436.863L437.279 147.354L438.232 147.05ZM468.082 133.1V134.1H469.337L469.056 132.877L468.082 133.1ZM438.082 133.1L437.112 132.857L436.801 134.1H438.082V133.1ZM487.362 147.246C487.83 144.907 487.982 142.435 487.982 139.85H485.982C485.982 142.365 485.833 144.693 485.401 146.854L487.362 147.246ZM487.982 139.85C487.982 129.227 484.733 119.682 478.776 112.778C472.807 105.859 464.166 101.65 453.532 101.65V103.65C463.597 103.65 471.681 107.616 477.262 114.084C482.855 120.568 485.982 129.623 485.982 139.85H487.982ZM453.532 101.65C432.081 101.65 416.682 118.497 416.682 139.85H418.682C418.682 119.503 433.282 103.65 453.532 103.65V101.65ZM416.682 139.85C416.682 161.225 432.853 178.2 454.282 178.2V176.2C434.01 176.2 418.682 160.175 418.682 139.85H416.682ZM454.282 178.2C467.841 178.2 478.814 171.408 484.99 161.063L483.273 160.037C477.45 169.792 467.122 176.2 454.282 176.2V178.2ZM484.572 159.652L468.072 151.552L467.191 153.348L483.691 161.448L484.572 159.652ZM466.814 151.875C464.17 155.632 459.84 157.9 454.282 157.9V159.9C460.424 159.9 465.394 157.368 468.449 153.025L466.814 151.875ZM454.282 157.9C446.509 157.9 441.315 153.423 439.184 146.746L437.279 147.354C439.648 154.777 445.555 159.9 454.282 159.9V157.9ZM438.232 148.05H486.382V146.05H438.232V148.05ZM453.532 121.8C457.515 121.8 460.489 123.003 462.663 124.988C464.853 126.988 466.313 129.859 467.107 133.323L469.056 132.877C468.2 129.141 466.585 125.862 464.012 123.512C461.424 121.147 457.949 119.8 453.532 119.8V121.8ZM468.082 132.1H438.082V134.1H468.082V132.1ZM439.052 133.343C439.91 129.909 441.576 127.032 443.975 125.015C446.366 123.006 449.545 121.8 453.532 121.8V119.8C449.119 119.8 445.472 121.144 442.688 123.485C439.912 125.818 438.053 129.091 437.112 132.857L439.052 133.343ZM515.925 110H514.925V112.473L516.644 110.695L515.925 110ZM515.925 103.7H516.925V102.7H515.925V103.7ZM495.975 103.7V102.7H494.975V103.7H495.975ZM495.975 176H494.975V177H495.975V176ZM515.925 176V177H516.925V176H515.925ZM534.675 123.05L534.12 123.882L535.378 124.721L535.657 123.235L534.675 123.05ZM538.425 103.1L539.407 103.285L539.596 102.281L538.589 102.114L538.425 103.1ZM532.725 101.65C525.669 101.65 519.719 104.636 515.206 109.305L516.644 110.695C520.831 106.364 526.28 103.65 532.725 103.65V101.65ZM516.925 110V103.7H514.925V110H516.925ZM515.925 102.7H495.975V104.7H515.925V102.7ZM494.975 103.7V176H496.975V103.7H494.975ZM495.975 177H515.925V175H495.975V177ZM516.925 176V136.7H514.925V176H516.925ZM516.925 136.7C516.925 131.515 518.131 127.913 520.048 125.623C521.943 123.358 524.64 122.25 527.925 122.25V120.25C524.159 120.25 520.856 121.542 518.514 124.339C516.193 127.112 514.925 131.235 514.925 136.7H516.925ZM527.925 122.25C530.476 122.25 532.521 122.816 534.12 123.882L535.229 122.218C533.228 120.884 530.773 120.25 527.925 120.25V122.25ZM535.657 123.235L539.407 103.285L537.442 102.915L533.692 122.865L535.657 123.235ZM538.589 102.114C536.729 101.804 534.724 101.65 532.725 101.65V103.65C534.625 103.65 536.52 103.796 538.26 104.086L538.589 102.114Z" fill="white" fill-opacity="0.5"/>
</g>
<defs>
<filter id="filter0_d" x="0.75" y="0.300049" width="681.661" height="212.902" filterUnits="userSpaceOnUse" color-interpolation-filters="sRGB">
<feFlood flood-opacity="0" result="BackgroundImageFix"/>
<feColorMatrix in="SourceAlpha" type="matrix" values="0 0 0 0 0 0 0 0 0 0 0 0 0 0 0 0 0 0 127 0"/>
<feOffset dy="4"/>
<feGaussianBlur stdDeviation="2"/>
<feColorMatrix type="matrix" values="0 0 0 0 0 0 0 0 0 0 0 0 0 0 0 0 0 0 0.25 0"/>
<feBlend mode="normal" in2="BackgroundImageFix" result="effect1_dropShadow"/>
<feBlend mode="normal" in="SourceGraphic" in2="effect1_dropShadow" result="shape"/>
</filter>
</defs>
</svg>
