<svg width="1058" height="205" viewBox="0 0 1058 205" fill="none" xmlns="http://www.w3.org/2000/svg">
<path d="M81.776 0.399986H42.608L-31.12 202H12.368L62.192 58L112.016 202H155.504L81.776 0.399986ZM242.183 61.168C227.495 61.168 214.823 66.64 205.319 75.28V0.399986H167.015V202H205.319V190.192C214.823 198.832 227.495 204.304 242.183 204.304C282.215 204.304 308.999 172.624 308.999 132.592C308.999 92.56 282.215 61.168 242.183 61.168ZM238.151 169.168C217.415 169.168 205.319 153.328 205.319 132.592C205.319 111.856 217.415 96.016 238.151 96.016C258.599 96.016 270.695 111.856 270.695 132.592C270.695 153.328 258.599 169.168 238.151 169.168ZM392.155 61.168C352.123 61.168 321.883 92.56 321.883 132.592C321.883 172.624 352.123 204.304 392.155 204.304C432.187 204.304 462.427 172.624 462.427 132.592C462.427 92.56 432.187 61.168 392.155 61.168ZM392.155 169.168C371.419 169.168 359.323 153.328 359.323 132.592C359.323 111.856 371.419 96.016 392.155 96.016C412.891 96.016 424.987 111.856 424.987 132.592C424.987 153.328 412.891 169.168 392.155 169.168ZM563.573 63.184V140.368C563.573 160.24 554.645 168.304 540.821 168.304C526.997 168.304 518.357 160.24 518.357 140.368V63.184H479.765V138.64C479.765 181.264 503.093 204.016 540.821 204.016C578.549 204.016 601.877 181.264 601.877 138.64V63.184H563.573ZM706.394 161.104C702.65 164.56 695.45 166.864 690.266 166.864C678.17 166.864 675.002 159.376 675.002 146.992V100.048H707.258V63.184H675.002V23.44L636.698 32.08V63.184H617.69V100.048H636.698V159.376C636.698 188.176 653.114 203.44 682.49 203.44C698.906 203.44 711.866 197.392 719.066 190.48L706.394 161.104ZM892.073 63.184V140.368C892.073 160.24 883.145 168.304 869.321 168.304C855.497 168.304 846.857 160.24 846.857 140.368V63.184H808.265V138.64C808.265 181.264 831.593 204.016 869.321 204.016C907.049 204.016 930.377 181.264 930.377 138.64V63.184H892.073ZM1014.45 117.04C992.558 110.416 988.526 106.96 988.238 101.776C987.95 98.032 991.694 90.832 1006.38 91.984C1017.04 92.848 1021.65 99.472 1023.09 104.08L1052.46 95.728C1050.45 83.056 1034.61 61.456 1001.2 61.456C965.198 61.456 949.646 81.616 948.782 100.912C947.918 123.664 961.166 134.032 991.406 144.688C1010.7 151.312 1017.33 152.176 1017.61 159.952C1017.9 167.44 1006.38 170.032 996.014 169.456C986.222 168.88 974.126 163.12 971.246 155.92L943.31 170.896C947.918 187.888 973.55 204.016 1002.64 204.016C1034.61 204.016 1057.07 187.024 1057.93 161.968C1058.8 140.944 1046.99 127.12 1014.45 117.04Z" fill="black" fill-opacity="0.2"/>
</svg>
