<svg width="1605" height="116" viewBox="0 0 1605 116" fill="none" xmlns="http://www.w3.org/2000/svg">
<path d="M44.8577 40.48L44.4554 40.777L45.3577 41.9988V40.48H44.8577ZM44.8577 34.48V33.98H44.3577V34.48H44.8577ZM62.1377 34.48H62.6377V33.98H62.1377V34.48ZM62.1377 88V88.5H62.6377V88H62.1377ZM44.8577 88H44.3577V88.5H44.8577V88ZM44.8577 81.52H45.3577V79.838L44.4388 81.2469L44.8577 81.52ZM8.97766 81.64L9.34177 81.2973L9.34161 81.2971L8.97766 81.64ZM9.45767 40L9.81122 40.3536L9.45767 40ZM22.5377 70.72L22.1729 71.062L22.1739 71.063L22.5377 70.72ZM41.7377 71.2L41.3947 70.8362L41.3893 70.8412L41.3841 70.8464L41.7377 71.2ZM41.9777 51.28L41.6297 51.6392L41.6353 51.6444L41.9777 51.28ZM45.3577 40.48V34.48H44.3577V40.48H45.3577ZM44.8577 34.98H62.1377V33.98H44.8577V34.98ZM61.6377 34.48V88H62.6377V34.48H61.6377ZM62.1377 87.5H44.8577V88.5H62.1377V87.5ZM45.3577 88V81.52H44.3577V88H45.3577ZM44.4388 81.2469C40.9372 86.6161 35.82 89.3 29.0177 89.3V90.3C36.1353 90.3 41.5781 87.4639 45.2765 81.7931L44.4388 81.2469ZM29.0177 89.3C20.8998 89.3 14.357 86.626 9.34177 81.2973L8.61356 81.9827C13.8383 87.534 20.6555 90.3 29.0177 90.3V89.3ZM9.34161 81.2971C4.23221 75.8733 1.67764 69.3173 1.67764 61.6H0.677643C0.677643 69.5627 3.32312 76.3667 8.61371 81.9828L9.34161 81.2971ZM1.67764 61.6C1.67764 52.8328 4.39813 45.7666 9.81122 40.3536L9.1041 39.6464C3.47717 45.2734 0.677643 52.6072 0.677643 61.6H1.67764ZM9.81122 40.3536C14.5886 35.5762 20.6572 33.18 28.0576 33.18V32.18C20.4182 32.18 14.0867 34.6638 9.1041 39.6464L9.81122 40.3536ZM28.0576 33.18C35.2842 33.18 40.7237 35.7237 44.4554 40.777L45.2599 40.183C41.3116 34.8363 35.5511 32.18 28.0576 32.18V33.18ZM32.3777 47.06C28.4908 47.06 25.2018 48.3887 22.5441 51.0464L23.2512 51.7536C25.7135 49.2913 28.7446 48.06 32.3777 48.06V47.06ZM22.5441 51.0464C19.8074 53.7832 18.4377 57.1516 18.4377 61.12H19.4377C19.4377 57.4084 20.7079 54.2968 23.2512 51.7536L22.5441 51.0464ZM18.4377 61.12C18.4377 65.074 19.6775 68.4002 22.1729 71.062L22.9024 70.378C20.5978 67.9198 19.4377 64.846 19.4377 61.12H18.4377ZM22.1739 71.063C24.9165 73.9719 28.4524 75.42 32.7377 75.42V74.42C28.7029 74.42 25.4388 73.0681 22.9015 70.377L22.1739 71.063ZM32.7377 75.42C36.3897 75.42 39.5171 74.1277 42.0912 71.5536L41.3841 70.8464C38.9983 73.2323 36.1256 74.42 32.7377 74.42V75.42ZM42.0807 71.5638C44.9874 68.8231 46.4377 65.3284 46.4377 61.12H45.4377C45.4377 65.0716 44.0879 68.2969 41.3947 70.8362L42.0807 71.5638ZM46.4377 61.12C46.4377 56.9212 45.0738 53.5025 42.32 50.9156L41.6353 51.6444C44.1615 54.0175 45.4377 57.1588 45.4377 61.12H46.4377ZM42.3256 50.9209C39.6646 48.3431 36.3365 47.06 32.3777 47.06V48.06C36.0988 48.06 39.1707 49.2569 41.6298 51.6391L42.3256 50.9209ZM75.5364 88H75.0364V88.5H75.5364V88ZM75.5364 34.48V33.98H75.0364V34.48H75.5364ZM92.8164 34.48H93.3164V33.98H92.8164V34.48ZM92.8164 40.72H92.3164V42.3714L93.2324 40.9973L92.8164 40.72ZM117.896 35.56L117.637 35.9877L117.648 35.9941L117.896 35.56ZM124.376 43L123.921 43.2061L124.314 44.0755L124.805 43.2572L124.376 43ZM131.216 36.16L130.956 35.7331L130.956 35.7334L131.216 36.16ZM157.616 38.2L157.962 37.8387L157.962 37.8383L157.616 38.2ZM163.136 88V88.5H163.636V88H163.136ZM145.856 88H145.356V88.5H145.856V88ZM143.576 50.44L143.968 50.1296L143.576 50.44ZM130.616 50.8L131.01 51.1089L131.014 51.1033L131.018 51.0976L130.616 50.8ZM127.976 88V88.5H128.476V88H127.976ZM110.696 88H110.196V88.5H110.696V88ZM107.936 49.72L107.583 50.0736L107.936 49.72ZM96.1764 49.72L95.8325 49.357L95.8293 49.3601L96.1764 49.72ZM92.8164 88V88.5H93.3164V88H92.8164ZM76.0364 88V34.48H75.0364V88H76.0364ZM75.5364 34.98H92.8164V33.98H75.5364V34.98ZM92.3164 34.48V40.72H93.3164V34.48H92.3164ZM93.2324 40.9973C96.4896 36.1115 101.325 33.66 107.816 33.66V32.66C101.028 32.66 95.8632 35.2485 92.4004 40.4426L93.2324 40.9973ZM107.816 33.66C111.834 33.66 115.097 34.4479 117.637 35.9876L118.156 35.1324C115.416 33.4721 111.959 32.66 107.816 32.66V33.66ZM117.648 35.9941C120.344 37.5346 122.438 39.9277 123.921 43.2061L124.832 42.7939C123.275 39.3523 121.049 36.7854 118.144 35.1259L117.648 35.9941ZM124.805 43.2572C126.442 40.5288 128.664 38.306 131.477 36.5866L130.956 35.7334C128.009 37.534 125.671 39.8712 123.948 42.7428L124.805 43.2572ZM131.477 36.5869C134.669 34.6405 138.377 33.66 142.616 33.66V32.66C138.216 32.66 134.324 33.6795 130.956 35.7331L131.477 36.5869ZM142.616 33.66C149.012 33.66 153.872 35.3167 157.271 38.5617L157.962 37.8383C154.321 34.3633 149.181 32.66 142.616 32.66V33.66ZM157.271 38.5613C160.818 41.9545 162.636 47.1209 162.636 54.16H163.636C163.636 46.9591 161.775 41.4855 157.962 37.8387L157.271 38.5613ZM162.636 54.16V88H163.636V54.16H162.636ZM163.136 87.5H145.856V88.5H163.136V87.5ZM146.356 88V60.88H145.356V88H146.356ZM146.356 60.88C146.356 55.8262 145.602 52.1927 143.968 50.1296L143.184 50.7504C144.591 52.5273 145.356 55.8538 145.356 60.88H146.356ZM143.968 50.1296C142.345 48.0795 140.115 47.06 137.336 47.06V48.06C139.837 48.06 141.767 48.9605 143.184 50.7504L143.968 50.1296ZM137.336 47.06C134.311 47.06 131.917 48.2048 130.215 50.5024L131.018 51.0976C132.516 49.0751 134.602 48.06 137.336 48.06V47.06ZM130.223 50.4911C128.361 52.8617 127.476 56.5179 127.476 61.36H128.476C128.476 56.6021 129.352 53.2183 131.01 51.1089L130.223 50.4911ZM127.476 61.36V88H128.476V61.36H127.476ZM127.976 87.5H110.696V88.5H127.976V87.5ZM111.196 88V60.16H110.196V88H111.196ZM111.196 60.16C111.196 55.0196 110.281 51.3574 108.29 49.3664L107.583 50.0736C109.272 51.7626 110.196 55.0604 110.196 60.16H111.196ZM108.29 49.3664C106.74 47.8161 104.684 47.06 102.176 47.06V48.06C104.469 48.06 106.253 48.7439 107.583 50.0736L108.29 49.3664ZM102.176 47.06C99.5936 47.06 97.4622 47.8131 95.8326 49.357L96.5203 50.083C97.9306 48.7469 99.7992 48.06 102.176 48.06V47.06ZM95.8293 49.3601C93.4444 51.6598 92.3164 55.468 92.3164 60.64H93.3164C93.3164 55.572 94.4284 52.1002 96.5235 50.0799L95.8293 49.3601ZM92.3164 60.64V88H93.3164V60.64H92.3164ZM92.8164 87.5H75.5364V88.5H92.8164V87.5ZM217.709 40.48L217.307 40.777L218.209 41.9988V40.48H217.709ZM217.709 34.48V33.98H217.209V34.48H217.709ZM234.989 34.48H235.489V33.98H234.989V34.48ZM234.989 88V88.5H235.489V88H234.989ZM217.709 88H217.209V88.5H217.709V88ZM217.709 81.52H218.209V79.838L217.29 81.2469L217.709 81.52ZM181.829 81.64L182.193 81.2973L182.193 81.2971L181.829 81.64ZM182.309 40L182.663 40.3536L182.309 40ZM195.389 70.72L195.024 71.062L195.025 71.063L195.389 70.72ZM214.589 71.2L214.246 70.8362L214.241 70.8412L214.236 70.8464L214.589 71.2ZM214.829 51.28L214.481 51.6392L214.487 51.6444L214.829 51.28ZM218.209 40.48V34.48H217.209V40.48H218.209ZM217.709 34.98H234.989V33.98H217.709V34.98ZM234.489 34.48V88H235.489V34.48H234.489ZM234.989 87.5H217.709V88.5H234.989V87.5ZM218.209 88V81.52H217.209V88H218.209ZM217.29 81.2469C213.789 86.6161 208.672 89.3 201.869 89.3V90.3C208.987 90.3 214.43 87.4639 218.128 81.7931L217.29 81.2469ZM201.869 89.3C193.751 89.3 187.209 86.626 182.193 81.2973L181.465 81.9827C186.69 87.534 193.507 90.3 201.869 90.3V89.3ZM182.193 81.2971C177.084 75.8733 174.529 69.3173 174.529 61.6H173.529C173.529 69.5627 176.175 76.3667 181.465 81.9828L182.193 81.2971ZM174.529 61.6C174.529 52.8328 177.25 45.7666 182.663 40.3536L181.956 39.6464C176.329 45.2734 173.529 52.6072 173.529 61.6H174.529ZM182.663 40.3536C187.44 35.5762 193.509 33.18 200.909 33.18V32.18C193.27 32.18 186.938 34.6638 181.956 39.6464L182.663 40.3536ZM200.909 33.18C208.136 33.18 213.575 35.7237 217.307 40.777L218.111 40.183C214.163 34.8363 208.403 32.18 200.909 32.18V33.18ZM205.229 47.06C201.342 47.06 198.053 48.3887 195.396 51.0464L196.103 51.7536C198.565 49.2913 201.596 48.06 205.229 48.06V47.06ZM195.396 51.0464C192.659 53.7832 191.289 57.1516 191.289 61.12H192.289C192.289 57.4084 193.56 54.2968 196.103 51.7536L195.396 51.0464ZM191.289 61.12C191.289 65.074 192.529 68.4002 195.024 71.062L195.754 70.378C193.449 67.9198 192.289 64.846 192.289 61.12H191.289ZM195.025 71.063C197.768 73.9719 201.304 75.42 205.589 75.42V74.42C201.555 74.42 198.29 73.0681 195.753 70.377L195.025 71.063ZM205.589 75.42C209.241 75.42 212.369 74.1277 214.943 71.5536L214.236 70.8464C211.85 73.2323 208.977 74.42 205.589 74.42V75.42ZM214.932 71.5638C217.839 68.8231 219.289 65.3284 219.289 61.12H218.289C218.289 65.0716 216.939 68.2969 214.246 70.8362L214.932 71.5638ZM219.289 61.12C219.289 56.9212 217.925 53.5025 215.172 50.9156L214.487 51.6444C217.013 54.0175 218.289 57.1588 218.289 61.12H219.289ZM215.177 50.9209C212.516 48.3431 209.188 47.06 205.229 47.06V48.06C208.95 48.06 212.022 49.2569 214.481 51.6391L215.177 50.9209ZM300.108 34.48L300.516 34.7691L301.075 33.98H300.108V34.48ZM272.388 73.6L271.98 73.3109L271.421 74.1H272.388V73.6ZM297.708 73.6H298.208V73.1H297.708V73.6ZM297.708 88V88.5H298.208V88H297.708ZM243.108 88L242.701 87.7101L242.138 88.5H243.108V88ZM270.948 48.88L271.355 49.1699L271.917 48.38H270.948V48.88ZM247.308 48.88H246.808V49.38H247.308V48.88ZM247.308 34.48V33.98H246.808V34.48H247.308ZM299.7 34.1909L271.98 73.3109L272.796 73.8891L300.516 34.7691L299.7 34.1909ZM272.388 74.1H297.708V73.1H272.388V74.1ZM297.208 73.6V88H298.208V73.6H297.208ZM297.708 87.5H243.108V88.5H297.708V87.5ZM243.515 88.2899L271.355 49.1699L270.541 48.5901L242.701 87.7101L243.515 88.2899ZM270.948 48.38H247.308V49.38H270.948V48.38ZM247.808 48.88V34.48H246.808V48.88H247.808ZM247.308 34.98H300.108V33.98H247.308V34.98ZM309.471 34.48V33.98H308.971V34.48H309.471ZM326.751 34.48H327.251V33.98H326.751V34.48ZM326.751 88V88.5H327.251V88H326.751ZM309.471 88H308.971V88.5H309.471V88ZM310.911 18.88L310.55 19.2263L310.557 19.2336L310.565 19.2407L310.911 18.88ZM310.911 4.59999L310.557 4.24644L310.911 4.59999ZM325.191 4.59999L324.83 4.94626L324.837 4.95362L324.845 4.96069L325.191 4.59999ZM325.191 18.88L324.837 18.5264L325.191 18.88ZM309.471 34.98H326.751V33.98H309.471V34.98ZM326.251 34.48V88H327.251V34.48H326.251ZM326.751 87.5H309.471V88.5H326.751V87.5ZM309.971 88V34.48H308.971V88H309.971ZM311.271 18.5337C309.442 16.6279 308.531 14.3524 308.531 11.68H307.531C307.531 14.6076 308.54 17.1321 310.55 19.2263L311.271 18.5337ZM308.531 11.68C308.531 9.00798 309.441 6.77656 311.264 4.95355L310.557 4.24644C308.54 6.26344 307.531 8.75201 307.531 11.68H308.531ZM311.264 4.95355C313.172 3.04625 315.445 2.1 318.111 2.1V1.1C315.177 1.1 312.65 2.15374 310.557 4.24644L311.264 4.95355ZM318.111 2.1C320.776 2.1 323.005 3.04557 324.83 4.94626L325.551 4.25373C323.536 2.15442 321.045 1.1 318.111 1.1V2.1ZM324.845 4.96069C326.745 6.78535 327.691 9.01461 327.691 11.68H328.691C328.691 8.74538 327.636 6.25465 325.537 4.2393L324.845 4.96069ZM327.691 11.68C327.691 14.3459 326.745 16.6191 324.837 18.5264L325.544 19.2336C327.637 17.1409 328.691 14.6141 328.691 11.68H327.691ZM324.837 18.5264C323.014 20.3494 320.783 21.26 318.111 21.26V22.26C321.039 22.26 323.527 21.2505 325.544 19.2336L324.837 18.5264ZM318.111 21.26C315.438 21.26 313.163 20.3489 311.257 18.5193L310.565 19.2407C312.659 21.2511 315.183 22.26 318.111 22.26V21.26ZM341.435 88H340.935V88.5H341.435V88ZM341.435 34.48V33.98H340.935V34.48H341.435ZM358.715 34.48H359.215V33.98H358.715V34.48ZM358.715 40.84H358.215V42.2872L359.108 41.1486L358.715 40.84ZM390.635 38.44L390.281 38.7935L390.635 38.44ZM396.035 88V88.5H396.535V88H396.035ZM378.755 88H378.255V88.5H378.755V88ZM375.875 49.84L376.228 49.4864L375.875 49.84ZM362.075 50.32L362.428 50.6736L362.436 50.6659L362.443 50.6579L362.075 50.32ZM358.715 88V88.5H359.215V88H358.715ZM341.935 88V34.48H340.935V88H341.935ZM341.435 34.98H358.715V33.98H341.435V34.98ZM358.215 34.48V40.84H359.215V34.48H358.215ZM359.108 41.1486C363.088 36.0767 368.459 33.54 375.275 33.54V32.54C368.171 32.54 362.502 35.2033 358.321 40.5314L359.108 41.1486ZM375.275 33.54C381.824 33.54 386.801 35.3133 390.281 38.7935L390.988 38.0864C387.269 34.3667 382.005 32.54 375.275 32.54V33.54ZM390.281 38.7935C393.758 42.2706 395.535 47.3647 395.535 54.16H396.535C396.535 47.1953 394.711 41.8094 390.988 38.0864L390.281 38.7935ZM395.535 54.16V88H396.535V54.16H395.535ZM396.035 87.5H378.755V88.5H396.035V87.5ZM379.255 88V60.52H378.255V88H379.255ZM379.255 60.52C379.255 55.295 378.298 51.5557 376.228 49.4864L375.521 50.1936C377.292 51.9643 378.255 55.345 378.255 60.52H379.255ZM376.228 49.4864C374.513 47.7715 372.174 46.94 369.275 46.94V47.94C371.976 47.94 374.036 48.7085 375.521 50.1936L376.228 49.4864ZM369.275 46.94C366.12 46.94 363.577 47.9413 361.706 49.9821L362.443 50.6579C364.093 48.8587 366.349 47.94 369.275 47.94V46.94ZM361.721 49.9664C359.353 52.3348 358.215 55.8859 358.215 60.52H359.215C359.215 56.0341 360.317 52.7852 362.428 50.6736L361.721 49.9664ZM358.215 60.52V88H359.215V60.52H358.215ZM358.715 87.5H341.435V88.5H358.715V87.5ZM450.201 40.72L449.786 40.9988L450.701 42.3612V40.72H450.201ZM450.201 34.48V33.98H449.701V34.48H450.201ZM467.481 34.48H467.981V33.98H467.481V34.48ZM467.121 92.68L466.624 92.6227L466.623 92.6329L466.622 92.6431L467.121 92.68ZM465.321 100.12L464.852 99.9459L464.851 99.9502L465.321 100.12ZM460.881 107.56L461.245 107.902L461.248 107.899L460.881 107.56ZM416.001 108.64L416.328 108.262L416.325 108.259L416.001 108.64ZM407.961 94.48V93.98H407.362L407.469 94.5688L407.961 94.48ZM426.801 94.48L427.285 94.3545L427.188 93.98H426.801V94.48ZM430.641 99.76L430.36 100.174L430.368 100.179L430.641 99.76ZM446.721 98.68L447.053 99.0537L447.061 99.0469L447.068 99.0397L446.721 98.68ZM450.201 81.4H450.701V79.625L449.774 81.139L450.201 81.4ZM414.681 81.88L414.322 82.2282L414.327 82.2336L414.681 81.88ZM414.801 40.36L415.16 40.7082L415.16 40.7079L414.801 40.36ZM428.721 51.16L428.379 50.7949L428.378 50.7959L428.721 51.16ZM428.361 70.72L428.726 70.378L428.725 70.3777L428.361 70.72ZM447.441 71.08L447.782 71.4451L447.784 71.4438L447.441 71.08ZM447.561 51.04L447.904 50.6758L447.896 50.6689L447.561 51.04ZM450.701 40.72V34.48H449.701V40.72H450.701ZM450.201 34.98H467.481V33.98H450.201V34.98ZM466.981 34.48V84.76H467.981V34.48H466.981ZM466.981 84.76C466.981 87.9497 466.861 90.5688 466.624 92.6227L467.617 92.7373C467.861 90.6311 467.981 87.9703 467.981 84.76H466.981ZM466.622 92.6431C466.467 94.7422 465.881 97.1746 464.852 99.9459L465.789 100.294C466.84 97.4654 467.455 94.9378 467.619 92.7169L466.622 92.6431ZM464.851 99.9502C463.831 102.773 462.385 105.194 460.513 107.221L461.248 107.899C463.217 105.766 464.73 103.227 465.791 100.29L464.851 99.9502ZM460.516 107.218C455.683 112.363 448.318 114.98 438.321 114.98V115.98C448.483 115.98 456.158 113.317 461.245 107.902L460.516 107.218ZM438.321 114.98C428.796 114.98 421.488 112.718 416.328 108.262L415.674 109.018C421.074 113.682 428.646 115.98 438.321 115.98V114.98ZM416.325 108.259C412.096 104.657 409.473 100.041 408.453 94.3912L407.469 94.5688C408.529 100.439 411.266 105.263 415.677 109.021L416.325 108.259ZM407.961 94.98H426.801V93.98H407.961V94.98ZM426.317 94.6055C426.91 96.8931 428.268 98.7514 430.36 100.173L430.922 99.3465C429.013 98.0486 427.812 96.3869 427.285 94.3545L426.317 94.6055ZM430.368 100.179C432.316 101.45 434.903 102.06 438.081 102.06V101.06C435.019 101.06 432.645 100.47 430.914 99.3412L430.368 100.179ZM438.081 102.06C441.772 102.06 444.781 101.074 447.053 99.0537L446.389 98.3063C444.341 100.126 441.59 101.06 438.081 101.06V102.06ZM447.068 99.0397C449.531 96.6615 450.701 92.7755 450.701 87.52H449.701C449.701 92.6645 448.55 96.2185 446.373 98.3203L447.068 99.0397ZM450.701 87.52V81.4H449.701V87.52H450.701ZM449.774 81.139C446.602 86.3229 441.462 88.94 434.241 88.94V89.94C441.74 89.94 447.24 87.1971 450.627 81.661L449.774 81.139ZM434.241 88.94C426.356 88.94 419.969 86.4608 415.034 81.5264L414.327 82.2336C419.473 87.3792 426.126 89.94 434.241 89.94V88.94ZM415.04 81.5318C409.938 76.2732 407.381 69.6817 407.381 61.72H406.381C406.381 69.9183 409.024 76.7668 414.322 82.2281L415.04 81.5318ZM407.381 61.72C407.381 53.0275 409.985 46.0399 415.16 40.7082L414.442 40.0118C409.057 45.5601 406.381 52.8125 406.381 61.72H407.381ZM415.16 40.7079C420.014 35.6974 426.358 33.18 434.241 33.18V32.18C426.124 32.18 419.508 34.7826 414.442 40.0121L415.16 40.7079ZM434.241 33.18C441.132 33.18 446.288 35.7912 449.786 40.9988L450.616 40.4412C446.914 34.9288 441.43 32.18 434.241 32.18V33.18ZM438.201 47.18C434.252 47.18 430.964 48.3767 428.379 50.7949L429.062 51.5251C431.437 49.3033 434.47 48.18 438.201 48.18V47.18ZM428.378 50.7959C425.548 53.4597 424.141 56.9163 424.141 61.12H425.141C425.141 57.1637 426.454 53.9803 429.063 51.5241L428.378 50.7959ZM424.141 61.12C424.141 65.0019 425.426 68.3258 427.996 71.0623L428.725 70.3777C426.336 67.8342 425.141 64.7581 425.141 61.12H424.141ZM427.996 71.062C430.506 73.7394 433.887 75.06 438.081 75.06V74.06C434.114 74.06 431.015 72.8206 428.726 70.378L427.996 71.062ZM438.081 75.06C441.953 75.06 445.199 73.8614 447.782 71.4451L447.099 70.7149C444.722 72.9386 441.729 74.06 438.081 74.06V75.06ZM447.784 71.4438C450.693 68.7011 452.141 65.1653 452.141 60.88H451.141C451.141 64.9147 449.789 68.1789 447.098 70.7162L447.784 71.4438ZM452.141 60.88C452.141 56.7531 450.732 53.3376 447.903 50.6759L447.218 51.4041C449.83 53.8624 451.141 57.0069 451.141 60.88H452.141ZM447.896 50.6689C445.312 48.3354 442.068 47.18 438.201 47.18V48.18C441.854 48.18 444.849 49.2646 447.226 51.411L447.896 50.6689ZM567.216 0.519997H567.716V0.0199966H567.216V0.519997ZM567.216 88V88.5H567.716V88H567.216ZM549.936 88H549.436V88.5H549.936V88ZM549.936 81.52H550.436V79.8978L549.523 81.2385L549.936 81.52ZM514.656 82.48L515.015 82.1323L515.009 82.1264L514.656 82.48ZM514.656 39.88L514.311 39.5179L514.31 39.5188L514.656 39.88ZM549.936 40.48L549.534 40.777L550.436 41.9988V40.48H549.936ZM549.936 0.519997V0.0199966H549.436V0.519997H549.936ZM528.216 51.16L528.559 51.5238L528.563 51.5193L528.216 51.16ZM528.216 71.2L528.564 70.8408L528.559 70.8362L528.216 71.2ZM547.056 70.96L546.713 70.5955L546.708 70.6012L547.056 70.96ZM547.176 51.52L547.54 51.1773L547.535 51.1719L547.176 51.52ZM566.716 0.519997V88H567.716V0.519997H566.716ZM567.216 87.5H549.936V88.5H567.216V87.5ZM550.436 88V81.52H549.436V88H550.436ZM549.523 81.2385C545.869 86.6029 540.395 89.3 533.016 89.3V90.3C540.677 90.3 546.483 87.4771 550.349 81.8015L549.523 81.2385ZM533.016 89.3C525.615 89.3 519.63 86.904 515.015 82.1324L514.296 82.8276C519.121 87.816 525.376 90.3 533.016 90.3V89.3ZM515.009 82.1264C509.513 76.6301 506.756 69.6021 506.756 61H505.756C505.756 69.8379 508.599 77.1299 514.302 82.8336L515.009 82.1264ZM506.756 61C506.756 52.3977 509.513 45.4947 515.002 40.2412L514.31 39.5188C508.599 44.9853 505.756 52.1623 505.756 61H506.756ZM515.001 40.2421C519.942 35.5361 526.016 33.18 533.256 33.18V32.18C525.776 32.18 519.45 34.6239 514.311 39.5179L515.001 40.2421ZM533.256 33.18C540.4 33.18 545.801 35.7221 549.534 40.777L550.338 40.183C546.391 34.8379 540.671 32.18 533.256 32.18V33.18ZM550.436 40.48V0.519997H549.436V40.48H550.436ZM549.936 1.02H567.216V0.0199966H549.936V1.02ZM537.456 47.06C533.656 47.06 530.448 48.3041 527.868 50.8007L528.563 51.5193C530.944 49.2159 533.896 48.06 537.456 48.06V47.06ZM527.873 50.7962C524.964 53.5389 523.516 57.0747 523.516 61.36H524.516C524.516 57.3253 525.868 54.0611 528.559 51.5238L527.873 50.7962ZM523.516 61.36C523.516 65.4148 524.97 68.8273 527.873 71.5638L528.559 70.8362C525.861 68.2926 524.516 65.1452 524.516 61.36H523.516ZM527.868 71.5591C530.517 74.1259 533.641 75.42 537.216 75.42V74.42C533.911 74.42 531.034 73.2341 528.564 70.8409L527.868 71.5591ZM537.216 75.42C541.184 75.42 544.589 74.0507 547.404 71.3188L546.708 70.6012C544.082 73.1493 540.928 74.42 537.216 74.42V75.42ZM547.398 71.3244C550.148 68.7416 551.516 65.4054 551.516 61.36H550.516C550.516 65.1546 549.244 68.2184 546.713 70.5956L547.398 71.3244ZM551.516 61.36C551.516 57.3966 550.19 53.9929 547.54 51.1773L546.812 51.8627C549.282 54.4871 550.516 57.6434 550.516 61.36H551.516ZM547.535 51.1719C544.874 48.4279 541.501 47.06 537.456 47.06V48.06C541.25 48.06 544.358 49.3321 546.817 51.8681L547.535 51.1719ZM596.563 53.92L596.072 53.829L595.962 54.42H596.563V53.92ZM619.963 53.92V54.42H620.604L620.448 53.7987L619.963 53.92ZM616.483 47.68L616.828 47.3179L616.823 47.3131L616.483 47.68ZM599.563 48.16L599.21 47.8063L599.201 47.8152L599.563 48.16ZM635.923 64.24V64.74H636.423V64.24H635.923ZM595.963 64.24V63.74H595.463V64.24H595.963ZM599.203 73.36L598.832 73.6945L598.837 73.7002L599.203 73.36ZM615.043 75.16L614.809 74.7181L614.799 74.7236L614.789 74.7295L615.043 75.16ZM618.763 70.72L618.814 70.2226L618.471 70.1872L618.316 70.4964L618.763 70.72ZM635.083 72.4L635.56 72.5502L635.744 71.9654L635.134 71.9026L635.083 72.4ZM624.763 85.84L625.021 86.2688L625.026 86.2651L624.763 85.84ZM586.603 40.36L586.25 40.0064L586.245 40.0116L586.603 40.36ZM628.363 40.72L628.728 40.3775L628.725 40.3746L628.363 40.72ZM596.563 54.42H619.963V53.42H596.563V54.42ZM620.448 53.7987C619.789 51.1598 618.586 48.9919 616.828 47.3179L616.138 48.0421C617.741 49.5681 618.858 51.5602 619.478 54.0413L620.448 53.7987ZM616.823 47.3131C614.56 45.2175 611.714 44.18 608.323 44.18V45.18C611.493 45.18 614.087 46.1425 616.144 48.0469L616.823 47.3131ZM608.323 44.18C604.681 44.18 601.631 45.3854 599.21 47.8064L599.917 48.5135C602.136 46.2946 604.925 45.18 608.323 45.18V44.18ZM599.201 47.8152C597.538 49.5613 596.49 51.5681 596.072 53.829L597.055 54.011C597.436 51.9519 598.388 50.1187 599.925 48.5048L599.201 47.8152ZM635.423 62.44V64.24H636.423V62.44H635.423ZM635.923 63.74H595.963V64.74H635.923V63.74ZM595.463 64.24C595.463 68.025 596.577 71.1898 598.832 73.6945L599.575 73.0255C597.509 70.7302 596.463 67.8149 596.463 64.24H595.463ZM598.837 73.7002C601.035 76.067 604.142 77.22 608.083 77.22V76.22C604.344 76.22 601.532 75.133 599.57 73.0198L598.837 73.7002ZM608.083 77.22C611.018 77.22 613.435 76.6909 615.298 75.5905L614.789 74.7295C613.131 75.7091 610.909 76.22 608.083 76.22V77.22ZM615.277 75.6019C616.771 74.8111 618.071 73.2233 619.211 70.9436L618.316 70.4964C617.216 72.6967 616.036 74.0689 614.809 74.7181L615.277 75.6019ZM618.712 71.2174L635.032 72.8974L635.134 71.9026L618.814 70.2226L618.712 71.2174ZM634.606 72.2497C632.801 77.9796 629.435 82.3602 624.5 85.4149L625.026 86.2651C630.172 83.0798 633.685 78.5004 635.56 72.5502L634.606 72.2497ZM624.506 85.4113C620.206 87.9913 614.663 89.3 607.843 89.3V90.3C614.784 90.3 620.521 88.9687 625.021 86.2688L624.506 85.4113ZM607.843 89.3C598.82 89.3 591.84 86.7698 586.837 81.7664L586.13 82.4736C591.366 87.7102 598.627 90.3 607.843 90.3V89.3ZM586.837 81.7664C581.581 76.5108 578.943 69.7631 578.943 61.48H577.943C577.943 69.9969 580.665 77.0092 586.13 82.4736L586.837 81.7664ZM578.943 61.48C578.943 53.1178 581.621 46.2066 586.962 40.7084L586.245 40.0116C580.706 45.7134 577.943 52.8822 577.943 61.48H578.943ZM586.957 40.7136C591.966 35.7042 598.67 33.18 607.123 33.18V32.18C598.457 32.18 591.48 34.7758 586.25 40.0064L586.957 40.7136ZM607.123 33.18C616.059 33.18 622.996 35.8252 628.002 41.0654L628.725 40.3746C623.49 34.8948 616.268 32.18 607.123 32.18V33.18ZM627.999 41.0625C632.932 46.3088 635.423 53.4153 635.423 62.44H636.423C636.423 53.2247 633.874 45.8512 628.728 40.3775L627.999 41.0625ZM686.308 37.24L686.732 37.5054L687.006 37.0685L686.561 36.8083L686.308 37.24ZM679.468 48.16L679.213 48.5896L679.633 48.8397L679.892 48.4254L679.468 48.16ZM665.668 51.52L666.022 51.1664L665.974 51.1191L665.916 51.0859L665.668 51.52ZM670.828 53.32L670.677 53.7966L670.678 53.7968L670.828 53.32ZM675.388 54.76L675.238 55.2368L675.239 55.2372L675.388 54.76ZM684.268 59.44L683.929 59.8074L683.931 59.809L684.268 59.44ZM682.948 83.68L682.595 83.3264L682.948 83.68ZM643.588 82.12L643.165 81.8538L642.938 82.2148L643.259 82.496L643.588 82.12ZM650.908 70.48L651.231 70.0983L650.792 69.7263L650.485 70.2138L650.908 70.48ZM656.788 74.44L657.012 73.9927L657.004 73.9889L656.788 74.44ZM669.388 74.92L669.693 75.3164L669.701 75.3104L669.388 74.92ZM669.268 68.32L669 68.7418L669.003 68.744L669.268 68.32ZM663.988 66.4L663.842 66.8782L663.849 66.8804L663.857 66.8824L663.988 66.4ZM659.668 65.08L659.52 65.5574L659.522 65.5582L659.668 65.08ZM651.028 60.16L650.664 60.5027L650.669 60.5082L650.675 60.5135L651.028 60.16ZM652.348 38.08L652.01 37.7117L652.008 37.7139L652.348 38.08ZM685.885 36.9746L679.045 47.8946L679.892 48.4254L686.732 37.5054L685.885 36.9746ZM679.724 47.7304C676.311 45.6987 673.063 44.66 669.988 44.66V45.66C672.834 45.66 675.906 46.6213 679.213 48.5896L679.724 47.7304ZM669.988 44.66C667.684 44.66 665.888 45.1935 664.715 46.3664L665.422 47.0736C666.329 46.1665 667.813 45.66 669.988 45.66V44.66ZM664.715 46.3664C663.917 47.1643 663.488 48.0864 663.488 49.12H664.488C664.488 48.3936 664.78 47.7157 665.422 47.0736L664.715 46.3664ZM663.488 49.12C663.488 50.32 664.205 51.2599 665.42 51.9541L665.916 51.0859C664.891 50.5001 664.488 49.84 664.488 49.12H663.488ZM665.315 51.8736C665.402 51.9605 665.52 52.0194 665.581 52.0495C665.665 52.0908 665.771 52.1365 665.893 52.1861C666.14 52.2856 666.481 52.4112 666.914 52.5621C667.78 52.8645 669.036 53.2762 670.677 53.7966L670.979 52.8434C669.341 52.3238 668.096 51.9155 667.243 51.6179C666.816 51.4688 666.492 51.3494 666.268 51.2589C666.156 51.2134 666.075 51.1779 666.022 51.1518C665.945 51.1143 665.975 51.1195 666.022 51.1664L665.315 51.8736ZM670.678 53.7968L675.238 55.2368L675.539 54.2832L670.979 52.8432L670.678 53.7968ZM675.239 55.2372C679.036 56.4238 681.922 57.9542 683.929 59.8074L684.607 59.0726C682.455 57.0858 679.42 55.4962 675.537 54.2828L675.239 55.2372ZM683.931 59.809C686.615 62.2626 687.968 65.5221 687.968 69.64H688.968C688.968 65.2779 687.522 61.7374 684.606 59.071L683.931 59.809ZM687.968 69.64C687.968 75.2007 686.172 79.7493 682.595 83.3264L683.302 84.0336C687.085 80.2507 688.968 75.4393 688.968 69.64H687.968ZM682.595 83.3264C678.634 87.2867 672.978 89.3 665.548 89.3V90.3C673.159 90.3 679.102 88.2333 683.302 84.0336L682.595 83.3264ZM665.548 89.3C656.852 89.3 649.655 86.7734 643.918 81.744L643.259 82.496C649.202 87.7066 656.644 90.3 665.548 90.3V89.3ZM644.012 82.3862L651.332 70.7462L650.485 70.2138L643.165 81.8538L644.012 82.3862ZM650.585 70.8617C652.688 72.6407 654.684 73.9876 656.573 74.8911L657.004 73.9889C655.213 73.1324 653.289 71.8393 651.231 70.0983L650.585 70.8617ZM656.565 74.8872C658.876 76.0427 661.352 76.62 663.988 76.62V75.62C661.504 75.62 659.181 75.0773 657.012 73.9928L656.565 74.8872ZM663.988 76.62C666.57 76.62 668.515 76.2228 669.693 75.3163L669.083 74.5237C668.182 75.2172 666.527 75.62 663.988 75.62V76.62ZM669.701 75.3104C671.002 74.2695 671.688 72.9729 671.688 71.44H670.688C670.688 72.6271 670.175 73.6505 669.076 74.5296L669.701 75.3104ZM671.688 71.44C671.688 69.9543 670.929 68.7682 669.533 67.896L669.003 68.744C670.168 69.4718 670.688 70.3657 670.688 71.44H671.688ZM669.537 67.8982C668.585 67.2922 666.754 66.6361 664.12 65.9176L663.857 66.8824C666.502 67.6039 668.192 68.2278 669 68.7418L669.537 67.8982ZM664.134 65.9218L659.814 64.6018L659.522 65.5582L663.842 66.8782L664.134 65.9218ZM659.817 64.6026C656.276 63.5011 653.473 61.8973 651.382 59.8064L650.675 60.5135C652.904 62.7427 655.86 64.4189 659.52 65.5574L659.817 64.6026ZM651.392 59.8173C648.92 57.1908 647.688 54.0736 647.688 50.44H646.688C646.688 54.3264 648.016 57.6892 650.664 60.5027L651.392 59.8173ZM647.688 50.44C647.688 45.5276 649.359 41.5441 652.689 38.4461L652.008 37.7139C648.458 41.0159 646.688 45.2724 646.688 50.44H647.688ZM652.686 38.4483C656.49 34.9555 661.756 33.18 668.548 33.18V32.18C661.581 32.18 656.047 34.0045 652.01 37.7117L652.686 38.4483ZM668.548 33.18C675.109 33.18 680.94 34.6809 686.056 37.6716L686.561 36.8083C681.276 33.7191 675.268 32.18 668.548 32.18V33.18ZM699.94 34.48V33.98H699.44V34.48H699.94ZM717.219 34.48H717.719V33.98H717.219V34.48ZM717.219 88V88.5H717.719V88H717.219ZM699.94 88H699.44V88.5H699.94V88ZM701.38 18.88L701.019 19.2263L701.026 19.2336L701.033 19.2407L701.38 18.88ZM701.38 4.59999L701.026 4.24644L701.38 4.59999ZM715.66 4.59999L715.299 4.94626L715.306 4.95362L715.313 4.96069L715.66 4.59999ZM715.66 18.88L715.306 18.5264L715.66 18.88ZM699.94 34.98H717.219V33.98H699.94V34.98ZM716.719 34.48V88H717.719V34.48H716.719ZM717.219 87.5H699.94V88.5H717.219V87.5ZM700.44 88V34.48H699.44V88H700.44ZM701.74 18.5337C699.911 16.6279 699 14.3524 699 11.68H698C698 14.6076 699.008 17.1321 701.019 19.2263L701.74 18.5337ZM699 11.68C699 9.00798 699.91 6.77656 701.733 4.95355L701.026 4.24644C699.009 6.26344 698 8.75201 698 11.68H699ZM701.733 4.95355C703.64 3.04625 705.914 2.1 708.58 2.1V1.1C705.645 1.1 703.119 2.15374 701.026 4.24644L701.733 4.95355ZM708.58 2.1C711.245 2.1 713.474 3.04557 715.299 4.94626L716.02 4.25373C714.005 2.15442 711.514 1.1 708.58 1.1V2.1ZM715.313 4.96069C717.214 6.78535 718.16 9.01461 718.16 11.68H719.16C719.16 8.74538 718.105 6.25465 716.006 4.2393L715.313 4.96069ZM718.16 11.68C718.16 14.3459 717.213 16.6191 715.306 18.5264L716.013 19.2336C718.106 17.1409 719.16 14.6141 719.16 11.68H718.16ZM715.306 18.5264C713.483 20.3494 711.252 21.26 708.58 21.26V22.26C711.508 22.26 713.996 21.2505 716.013 19.2336L715.306 18.5264ZM708.58 21.26C705.907 21.26 703.632 20.3489 701.726 18.5193L701.033 19.2407C703.127 21.2511 705.652 22.26 708.58 22.26V21.26ZM772.584 40.72L772.169 40.9988L773.084 42.3612V40.72H772.584ZM772.584 34.48V33.98H772.084V34.48H772.584ZM789.864 34.48H790.364V33.98H789.864V34.48ZM789.504 92.68L789.007 92.6227L789.006 92.6329L789.005 92.6431L789.504 92.68ZM787.704 100.12L787.235 99.9459L787.233 99.9502L787.704 100.12ZM783.264 107.56L783.628 107.902L783.631 107.899L783.264 107.56ZM738.384 108.64L738.71 108.262L738.708 108.259L738.384 108.64ZM730.344 94.48V93.98H729.745L729.852 94.5688L730.344 94.48ZM749.184 94.48L749.668 94.3545L749.57 93.98H749.184V94.48ZM753.024 99.76L752.742 100.174L752.75 100.179L753.024 99.76ZM769.104 98.68L769.436 99.0537L769.443 99.0469L769.451 99.0397L769.104 98.68ZM772.584 81.4H773.084V79.625L772.157 81.139L772.584 81.4ZM737.064 81.88L736.705 82.2282L736.71 82.2336L737.064 81.88ZM737.184 40.36L737.542 40.7082L737.543 40.7079L737.184 40.36ZM751.104 51.16L750.762 50.7949L750.761 50.7959L751.104 51.16ZM750.744 70.72L751.108 70.378L751.108 70.3777L750.744 70.72ZM769.824 71.08L770.165 71.4451L770.167 71.4438L769.824 71.08ZM769.944 51.04L770.286 50.6758L770.279 50.6689L769.944 51.04ZM773.084 40.72V34.48H772.084V40.72H773.084ZM772.584 34.98H789.864V33.98H772.584V34.98ZM789.364 34.48V84.76H790.364V34.48H789.364ZM789.364 84.76C789.364 87.9497 789.244 90.5688 789.007 92.6227L790 92.7373C790.243 90.6311 790.364 87.9703 790.364 84.76H789.364ZM789.005 92.6431C788.849 94.7422 788.264 97.1746 787.235 99.9459L788.172 100.294C789.223 97.4654 789.838 94.9378 790.002 92.7169L789.005 92.6431ZM787.233 99.9502C786.214 102.773 784.767 105.194 782.896 107.221L783.631 107.899C785.6 105.766 787.113 103.227 788.174 100.29L787.233 99.9502ZM782.899 107.218C778.066 112.363 770.701 114.98 760.704 114.98V115.98C770.866 115.98 778.541 113.317 783.628 107.902L782.899 107.218ZM760.704 114.98C751.178 114.98 743.87 112.718 738.71 108.262L738.057 109.018C743.457 113.682 751.029 115.98 760.704 115.98V114.98ZM738.708 108.259C734.479 104.657 731.856 100.041 730.836 94.3912L729.852 94.5688C730.911 100.439 733.648 105.263 738.059 109.021L738.708 108.259ZM730.344 94.98H749.184V93.98H730.344V94.98ZM748.7 94.6055C749.293 96.8931 750.651 98.7514 752.742 100.173L753.305 99.3465C751.396 98.0486 750.194 96.3869 749.668 94.3545L748.7 94.6055ZM752.75 100.179C754.699 101.45 757.286 102.06 760.464 102.06V101.06C757.402 101.06 755.028 100.47 753.297 99.3412L752.75 100.179ZM760.464 102.06C764.155 102.06 767.163 101.074 769.436 99.0537L768.771 98.3063C766.724 100.126 763.972 101.06 760.464 101.06V102.06ZM769.451 99.0397C771.914 96.6615 773.084 92.7755 773.084 87.52H772.084C772.084 92.6645 770.933 96.2185 768.756 98.3203L769.451 99.0397ZM773.084 87.52V81.4H772.084V87.52H773.084ZM772.157 81.139C768.985 86.3229 763.845 88.94 756.624 88.94V89.94C764.123 89.94 769.622 87.1971 773.01 81.661L772.157 81.139ZM756.624 88.94C748.739 88.94 742.352 86.4608 737.417 81.5264L736.71 82.2336C741.856 87.3792 748.509 89.94 756.624 89.94V88.94ZM737.422 81.5318C732.321 76.2732 729.764 69.6817 729.764 61.72H728.764C728.764 69.9183 731.406 76.7668 736.705 82.2281L737.422 81.5318ZM729.764 61.72C729.764 53.0275 732.368 46.0399 737.542 40.7082L736.825 40.0118C731.44 45.5601 728.764 52.8125 728.764 61.72H729.764ZM737.543 40.7079C742.397 35.6974 748.741 33.18 756.624 33.18V32.18C748.506 32.18 741.891 34.7826 736.824 40.0121L737.543 40.7079ZM756.624 33.18C763.515 33.18 768.671 35.7912 772.169 40.9988L772.999 40.4412C769.296 34.9288 763.812 32.18 756.624 32.18V33.18ZM760.584 47.18C756.635 47.18 753.347 48.3767 750.762 50.7949L751.445 51.5251C753.82 49.3033 756.853 48.18 760.584 48.18V47.18ZM750.761 50.7959C747.931 53.4597 746.524 56.9163 746.524 61.12H747.524C747.524 57.1637 748.837 53.9803 751.446 51.5241L750.761 50.7959ZM746.524 61.12C746.524 65.0019 747.808 68.3258 750.379 71.0623L751.108 70.3777C748.719 67.8342 747.524 64.7581 747.524 61.12H746.524ZM750.379 71.062C752.889 73.7394 756.27 75.06 760.464 75.06V74.06C756.497 74.06 753.398 72.8206 751.108 70.378L750.379 71.062ZM760.464 75.06C764.336 75.06 767.582 73.8614 770.165 71.4451L769.482 70.7149C767.105 72.9386 764.111 74.06 760.464 74.06V75.06ZM770.167 71.4438C773.075 68.7011 774.524 65.1653 774.524 60.88H773.524C773.524 64.9147 772.172 68.1789 769.481 70.7162L770.167 71.4438ZM774.524 60.88C774.524 56.7531 773.114 53.3376 770.286 50.6759L769.601 51.4041C772.213 53.8624 773.524 57.0069 773.524 60.88H774.524ZM770.279 50.6689C767.695 48.3354 764.451 47.18 760.584 47.18V48.18C764.236 48.18 767.232 49.2646 769.608 51.411L770.279 50.6689ZM803.271 88H802.771V88.5H803.271V88ZM803.271 34.48V33.98H802.771V34.48H803.271ZM820.551 34.48H821.051V33.98H820.551V34.48ZM820.551 40.84H820.051V42.2872L820.944 41.1486L820.551 40.84ZM852.471 38.44L852.117 38.7935L852.471 38.44ZM857.871 88V88.5H858.371V88H857.871ZM840.591 88H840.091V88.5H840.591V88ZM837.711 49.84L838.064 49.4864L837.711 49.84ZM823.911 50.32L824.264 50.6736L824.272 50.6659L824.279 50.6579L823.911 50.32ZM820.551 88V88.5H821.051V88H820.551ZM803.771 88V34.48H802.771V88H803.771ZM803.271 34.98H820.551V33.98H803.271V34.98ZM820.051 34.48V40.84H821.051V34.48H820.051ZM820.944 41.1486C824.924 36.0767 830.295 33.54 837.111 33.54V32.54C830.007 32.54 824.338 35.2033 820.157 40.5314L820.944 41.1486ZM837.111 33.54C843.66 33.54 848.637 35.3133 852.117 38.7935L852.824 38.0864C849.104 34.3667 843.841 32.54 837.111 32.54V33.54ZM852.117 38.7935C855.594 42.2706 857.371 47.3647 857.371 54.16H858.371C858.371 47.1953 856.547 41.8094 852.824 38.0864L852.117 38.7935ZM857.371 54.16V88H858.371V54.16H857.371ZM857.871 87.5H840.591V88.5H857.871V87.5ZM841.091 88V60.52H840.091V88H841.091ZM841.091 60.52C841.091 55.295 840.134 51.5557 838.064 49.4864L837.357 50.1936C839.128 51.9643 840.091 55.345 840.091 60.52H841.091ZM838.064 49.4864C836.349 47.7715 834.01 46.94 831.111 46.94V47.94C833.812 47.94 835.872 48.7085 837.357 50.1936L838.064 49.4864ZM831.111 46.94C827.956 46.94 825.413 47.9413 823.542 49.9821L824.279 50.6579C825.929 48.8587 828.185 47.94 831.111 47.94V46.94ZM823.557 49.9664C821.189 52.3348 820.051 55.8859 820.051 60.52H821.051C821.051 56.0341 822.153 52.7852 824.264 50.6736L823.557 49.9664ZM820.051 60.52V88H821.051V60.52H820.051ZM820.551 87.5H803.271V88.5H820.551V87.5ZM957.685 0.519997H958.185V0.0199966H957.685V0.519997ZM957.685 88V88.5H958.185V88H957.685ZM940.405 88H939.905V88.5H940.405V88ZM940.405 81.52H940.905V79.8978L939.991 81.2385L940.405 81.52ZM905.125 82.48L905.484 82.1323L905.478 82.1264L905.125 82.48ZM905.125 39.88L904.78 39.5179L904.779 39.5188L905.125 39.88ZM940.405 40.48L940.002 40.777L940.905 41.9988V40.48H940.405ZM940.405 0.519997V0.0199966H939.905V0.519997H940.405ZM918.685 51.16L919.028 51.5238L919.032 51.5193L918.685 51.16ZM918.685 71.2L919.032 70.8408L919.028 70.8362L918.685 71.2ZM937.525 70.96L937.182 70.5955L937.176 70.6012L937.525 70.96ZM937.645 51.52L938.009 51.1773L938.004 51.1719L937.645 51.52ZM957.185 0.519997V88H958.185V0.519997H957.185ZM957.685 87.5H940.405V88.5H957.685V87.5ZM940.905 88V81.52H939.905V88H940.905ZM939.991 81.2385C936.337 86.6029 930.863 89.3 923.484 89.3V90.3C931.146 90.3 936.952 87.4771 940.818 81.8015L939.991 81.2385ZM923.484 89.3C916.084 89.3 910.099 86.904 905.484 82.1324L904.765 82.8276C909.59 87.816 915.845 90.3 923.484 90.3V89.3ZM905.478 82.1264C899.982 76.6301 897.224 69.6021 897.224 61H896.224C896.224 69.8379 899.067 77.1299 904.771 82.8336L905.478 82.1264ZM897.224 61C897.224 52.3977 899.982 45.4947 905.47 40.2412L904.779 39.5188C899.068 44.9853 896.224 52.1623 896.224 61H897.224ZM905.469 40.2421C910.411 35.5361 916.485 33.18 923.724 33.18V32.18C916.244 32.18 909.918 34.6239 904.78 39.5179L905.469 40.2421ZM923.724 33.18C930.869 33.18 936.27 35.7221 940.002 40.777L940.807 40.183C936.86 34.8379 931.14 32.18 923.724 32.18V33.18ZM940.905 40.48V0.519997H939.905V40.48H940.905ZM940.405 1.02H957.685V0.0199966H940.405V1.02ZM927.925 47.06C924.124 47.06 920.917 48.3041 918.337 50.8007L919.032 51.5193C921.412 49.2159 924.365 48.06 927.925 48.06V47.06ZM918.342 50.7962C915.433 53.5389 913.984 57.0747 913.984 61.36H914.984C914.984 57.3253 916.336 54.0611 919.028 51.5238L918.342 50.7962ZM913.984 61.36C913.984 65.4148 915.439 68.8273 918.342 71.5638L919.028 70.8362C916.33 68.2926 914.984 65.1452 914.984 61.36H913.984ZM918.337 71.5591C920.986 74.1259 924.109 75.42 927.685 75.42V74.42C924.38 74.42 921.503 73.2341 919.032 70.8409L918.337 71.5591ZM927.685 75.42C931.653 75.42 935.058 74.0507 937.873 71.3188L937.176 70.6012C934.551 73.1493 931.396 74.42 927.685 74.42V75.42ZM937.867 71.3244C940.616 68.7416 941.984 65.4054 941.984 61.36H940.984C940.984 65.1546 939.713 68.2184 937.182 70.5956L937.867 71.3244ZM941.984 61.36C941.984 57.3966 940.659 53.9929 938.009 51.1773L937.28 51.8627C939.75 54.4871 940.984 57.6434 940.984 61.36H941.984ZM938.004 51.1719C935.343 48.4279 931.97 47.06 927.925 47.06V48.06C931.719 48.06 934.826 49.3321 937.286 51.8681L938.004 51.1719ZM987.032 53.92L986.54 53.829L986.431 54.42H987.032V53.92ZM1010.43 53.92V54.42H1011.07L1010.92 53.7987L1010.43 53.92ZM1006.95 47.68L1007.3 47.3179L1007.29 47.3131L1006.95 47.68ZM990.032 48.16L989.678 47.8063L989.67 47.8152L990.032 48.16ZM1026.39 64.24V64.74H1026.89V64.24H1026.39ZM986.432 64.24V63.74H985.932V64.24H986.432ZM989.672 73.36L989.3 73.6945L989.306 73.7002L989.672 73.36ZM1005.51 75.16L1005.28 74.7181L1005.27 74.7236L1005.26 74.7295L1005.51 75.16ZM1009.23 70.72L1009.28 70.2226L1008.94 70.1872L1008.78 70.4964L1009.23 70.72ZM1025.55 72.4L1026.03 72.5502L1026.21 71.9654L1025.6 71.9026L1025.55 72.4ZM1015.23 85.84L1015.49 86.2688L1015.5 86.2651L1015.23 85.84ZM977.072 40.36L976.718 40.0064L976.713 40.0116L977.072 40.36ZM1018.83 40.72L1019.2 40.3775L1019.19 40.3746L1018.83 40.72ZM987.032 54.42H1010.43V53.42H987.032V54.42ZM1010.92 53.7987C1010.26 51.1598 1009.05 48.9919 1007.3 47.3179L1006.61 48.0421C1008.21 49.5681 1009.33 51.5602 1009.95 54.0413L1010.92 53.7987ZM1007.29 47.3131C1005.03 45.2175 1002.18 44.18 998.792 44.18V45.18C1001.96 45.18 1004.56 46.1425 1006.61 48.0469L1007.29 47.3131ZM998.792 44.18C995.15 44.18 992.099 45.3854 989.678 47.8064L990.386 48.5135C992.604 46.2946 995.394 45.18 998.792 45.18V44.18ZM989.67 47.8152C988.007 49.5613 986.959 51.5681 986.54 53.829L987.524 54.011C987.905 51.9519 988.857 50.1187 990.394 48.5048L989.67 47.8152ZM1025.89 62.44V64.24H1026.89V62.44H1025.89ZM1026.39 63.74H986.432V64.74H1026.39V63.74ZM985.932 64.24C985.932 68.025 987.046 71.1898 989.3 73.6945L990.044 73.0255C987.978 70.7302 986.932 67.8149 986.932 64.24H985.932ZM989.306 73.7002C991.503 76.067 994.611 77.22 998.552 77.22V76.22C994.813 76.22 992.001 75.133 990.038 73.0198L989.306 73.7002ZM998.552 77.22C1001.49 77.22 1003.9 76.6909 1005.77 75.5905L1005.26 74.7295C1003.6 75.7091 1001.38 76.22 998.552 76.22V77.22ZM1005.75 75.6019C1007.24 74.8111 1008.54 73.2233 1009.68 70.9436L1008.78 70.4964C1007.68 72.6967 1006.5 74.0689 1005.28 74.7181L1005.75 75.6019ZM1009.18 71.2174L1025.5 72.8974L1025.6 71.9026L1009.28 70.2226L1009.18 71.2174ZM1025.08 72.2497C1023.27 77.9796 1019.9 82.3602 1014.97 85.4149L1015.5 86.2651C1020.64 83.0798 1024.15 78.5004 1026.03 72.5502L1025.08 72.2497ZM1014.97 85.4113C1010.67 87.9913 1005.13 89.3 998.312 89.3V90.3C1005.25 90.3 1010.99 88.9687 1015.49 86.2688L1014.97 85.4113ZM998.312 89.3C989.288 89.3 982.309 86.7698 977.306 81.7664L976.599 82.4736C981.835 87.7102 989.096 90.3 998.312 90.3V89.3ZM977.306 81.7664C972.05 76.5108 969.412 69.7631 969.412 61.48H968.412C968.412 69.9969 971.134 77.0092 976.599 82.4736L977.306 81.7664ZM969.412 61.48C969.412 53.1178 972.09 46.2066 977.431 40.7084L976.713 40.0116C971.175 45.7134 968.412 52.8822 968.412 61.48H969.412ZM977.426 40.7136C982.435 35.7042 989.139 33.18 997.592 33.18V32.18C988.925 32.18 981.949 34.7758 976.719 40.0064L977.426 40.7136ZM997.592 33.18C1006.53 33.18 1013.46 35.8252 1018.47 41.0654L1019.19 40.3746C1013.96 34.8948 1006.74 32.18 997.592 32.18V33.18ZM1018.47 41.0625C1023.4 46.3088 1025.89 53.4153 1025.89 62.44H1026.89C1026.89 53.2247 1024.34 45.8512 1019.2 40.3775L1018.47 41.0625ZM1030.7 34.48V33.98H1029.88L1030.25 34.706L1030.7 34.48ZM1049.66 34.48L1050.11 34.2663L1049.97 33.98H1049.66V34.48ZM1063.22 63.16L1062.77 63.3737L1063.22 64.3298L1063.67 63.3737L1063.22 63.16ZM1076.78 34.48V33.98H1076.46L1076.32 34.2663L1076.78 34.48ZM1095.74 34.48L1096.18 34.706L1096.55 33.98H1095.74V34.48ZM1068.62 88V88.5H1068.92L1069.06 88.226L1068.62 88ZM1057.82 88L1057.37 88.226L1057.51 88.5H1057.82V88ZM1030.7 34.98H1049.66V33.98H1030.7V34.98ZM1049.2 34.6937L1062.77 63.3737L1063.67 62.9463L1050.11 34.2663L1049.2 34.6937ZM1063.67 63.3737L1077.23 34.6937L1076.32 34.2663L1062.77 62.9463L1063.67 63.3737ZM1076.78 34.98H1095.74V33.98H1076.78V34.98ZM1095.29 34.254L1068.17 87.774L1069.06 88.226L1096.18 34.706L1095.29 34.254ZM1068.62 87.5H1057.82V88.5H1068.62V87.5ZM1058.26 87.774L1031.14 34.254L1030.25 34.706L1057.37 88.226L1058.26 87.774ZM1116.41 53.92L1115.92 53.829L1115.81 54.42H1116.41V53.92ZM1139.81 53.92V54.42H1140.45L1140.29 53.7987L1139.81 53.92ZM1136.33 47.68L1136.67 47.3179L1136.67 47.3131L1136.33 47.68ZM1119.41 48.16L1119.05 47.8063L1119.04 47.8152L1119.41 48.16ZM1155.77 64.24V64.74H1156.27V64.24H1155.77ZM1115.81 64.24V63.74H1115.31V64.24H1115.81ZM1119.05 73.36L1118.68 73.6945L1118.68 73.7002L1119.05 73.36ZM1134.89 75.16L1134.65 74.7181L1134.64 74.7236L1134.63 74.7295L1134.89 75.16ZM1138.61 70.72L1138.66 70.2226L1138.31 70.1872L1138.16 70.4964L1138.61 70.72ZM1154.93 72.4L1155.4 72.5502L1155.59 71.9654L1154.98 71.9026L1154.93 72.4ZM1144.61 85.84L1144.86 86.2688L1144.87 86.2651L1144.61 85.84ZM1106.45 40.36L1106.09 40.0064L1106.09 40.0116L1106.45 40.36ZM1148.21 40.72L1148.57 40.3775L1148.57 40.3746L1148.21 40.72ZM1116.41 54.42H1139.81V53.42H1116.41V54.42ZM1140.29 53.7987C1139.63 51.1598 1138.43 48.9919 1136.67 47.3179L1135.98 48.0421C1137.58 49.5681 1138.7 51.5602 1139.32 54.0413L1140.29 53.7987ZM1136.67 47.3131C1134.4 45.2175 1131.56 44.18 1128.17 44.18V45.18C1131.34 45.18 1133.93 46.1425 1135.99 48.0469L1136.67 47.3131ZM1128.17 44.18C1124.53 44.18 1121.47 45.3854 1119.05 47.8064L1119.76 48.5135C1121.98 46.2946 1124.77 45.18 1128.17 45.18V44.18ZM1119.04 47.8152C1117.38 49.5613 1116.33 51.5681 1115.92 53.829L1116.9 54.011C1117.28 51.9519 1118.23 50.1187 1119.77 48.5048L1119.04 47.8152ZM1155.27 62.44V64.24H1156.27V62.44H1155.27ZM1155.77 63.74H1115.81V64.74H1155.77V63.74ZM1115.31 64.24C1115.31 68.025 1116.42 71.1898 1118.68 73.6945L1119.42 73.0255C1117.35 70.7302 1116.31 67.8149 1116.31 64.24H1115.31ZM1118.68 73.7002C1120.88 76.067 1123.99 77.22 1127.93 77.22V76.22C1124.19 76.22 1121.38 75.133 1119.41 73.0198L1118.68 73.7002ZM1127.93 77.22C1130.86 77.22 1133.28 76.6909 1135.14 75.5905L1134.63 74.7295C1132.97 75.7091 1130.75 76.22 1127.93 76.22V77.22ZM1135.12 75.6019C1136.61 74.8111 1137.91 73.2233 1139.05 70.9436L1138.16 70.4964C1137.06 72.6967 1135.88 74.0689 1134.65 74.7181L1135.12 75.6019ZM1138.56 71.2174L1154.88 72.8974L1154.98 71.9026L1138.66 70.2226L1138.56 71.2174ZM1154.45 72.2497C1152.64 77.9796 1149.28 82.3602 1144.34 85.4149L1144.87 86.2651C1150.02 83.0798 1153.53 78.5004 1155.4 72.5502L1154.45 72.2497ZM1144.35 85.4113C1140.05 87.9913 1134.51 89.3 1127.69 89.3V90.3C1134.63 90.3 1140.36 88.9687 1144.86 86.2688L1144.35 85.4113ZM1127.69 89.3C1118.66 89.3 1111.68 86.7698 1106.68 81.7664L1105.97 82.4736C1111.21 87.7102 1118.47 90.3 1127.69 90.3V89.3ZM1106.68 81.7664C1101.42 76.5108 1098.79 69.7631 1098.79 61.48H1097.79C1097.79 69.9969 1100.51 77.0092 1105.97 82.4736L1106.68 81.7664ZM1098.79 61.48C1098.79 53.1178 1101.46 46.2066 1106.81 40.7084L1106.09 40.0116C1100.55 45.7134 1097.79 52.8822 1097.79 61.48H1098.79ZM1106.8 40.7136C1111.81 35.7042 1118.51 33.18 1126.97 33.18V32.18C1118.3 32.18 1111.32 34.7758 1106.09 40.0064L1106.8 40.7136ZM1126.97 33.18C1135.9 33.18 1142.84 35.8252 1147.85 41.0654L1148.57 40.3746C1143.33 34.8948 1136.11 32.18 1126.97 32.18V33.18ZM1147.84 41.0625C1152.78 46.3088 1155.27 53.4153 1155.27 62.44H1156.27C1156.27 53.2247 1153.72 45.8512 1148.57 40.3775L1147.84 41.0625ZM1167.03 0.519997V0.0199966H1166.53V0.519997H1167.03ZM1184.31 0.519997H1184.81V0.0199966H1184.31V0.519997ZM1184.31 88V88.5H1184.81V88H1184.31ZM1167.03 88H1166.53V88.5H1167.03V88ZM1167.03 1.02H1184.31V0.0199966H1167.03V1.02ZM1183.81 0.519997V88H1184.81V0.519997H1183.81ZM1184.31 87.5H1167.03V88.5H1184.31V87.5ZM1167.53 88V0.519997H1166.53V88H1167.53ZM1250.39 81.16L1250.04 80.8064L1250.39 81.16ZM1203.59 41.32L1203.24 40.9664L1203.59 41.32ZM1236.71 51.16L1236.36 51.5135L1236.71 51.16ZM1236.71 71.32L1236.36 70.9664L1236.71 71.32ZM1250.04 41.6736C1255.3 46.9352 1257.93 53.446 1257.93 61.24H1258.93C1258.93 53.194 1256.2 46.4248 1250.75 40.9664L1250.04 41.6736ZM1257.93 61.24C1257.93 69.034 1255.3 75.5448 1250.04 80.8064L1250.75 81.5135C1256.2 76.0552 1258.93 69.286 1258.93 61.24H1257.93ZM1250.04 80.8064C1244.39 86.4537 1236.73 89.3 1226.99 89.3V90.3C1236.94 90.3 1244.87 87.3863 1250.75 81.5135L1250.04 80.8064ZM1226.99 89.3C1217.26 89.3 1209.59 86.4537 1203.95 80.8064L1203.24 81.5135C1209.11 87.3863 1217.05 90.3 1226.99 90.3V89.3ZM1203.95 80.8064C1198.68 75.5448 1196.05 69.034 1196.05 61.24H1195.05C1195.05 69.286 1197.78 76.0552 1203.24 81.5135L1203.95 80.8064ZM1196.05 61.24C1196.05 53.446 1198.68 46.9352 1203.95 41.6736L1203.24 40.9664C1197.78 46.4248 1195.05 53.194 1195.05 61.24H1196.05ZM1203.95 41.6736C1209.59 36.0263 1217.26 33.18 1226.99 33.18V32.18C1217.05 32.18 1209.11 35.0937 1203.24 40.9664L1203.95 41.6736ZM1226.99 33.18C1236.73 33.18 1244.39 36.0263 1250.04 41.6736L1250.75 40.9664C1244.87 35.0937 1236.94 32.18 1226.99 32.18V33.18ZM1237.07 50.8064C1234.4 48.1444 1231.03 46.82 1226.99 46.82V47.82C1230.79 47.82 1233.9 49.0555 1236.36 51.5135L1237.07 50.8064ZM1226.99 46.82C1222.95 46.82 1219.58 48.1444 1216.92 50.8064L1217.63 51.5135C1220.08 49.0555 1223.19 47.82 1226.99 47.82V46.82ZM1216.92 50.8064C1214.18 53.5494 1212.81 57.0409 1212.81 61.24H1213.81C1213.81 57.2791 1215.09 54.0506 1217.63 51.5135L1216.92 50.8064ZM1212.81 61.24C1212.81 65.4391 1214.18 68.9306 1216.92 71.6736L1217.63 70.9664C1215.09 68.4294 1213.81 65.2009 1213.81 61.24H1212.81ZM1216.92 71.6736C1219.58 74.3376 1223 75.66 1227.11 75.66V74.66C1223.23 74.66 1220.08 73.4224 1217.63 70.9664L1216.92 71.6736ZM1227.11 75.66C1231.08 75.66 1234.41 74.3335 1237.07 71.6736L1236.36 70.9664C1233.9 73.4265 1230.83 74.66 1227.11 74.66V75.66ZM1237.07 71.6736C1239.81 68.9306 1241.17 65.4391 1241.17 61.24H1240.17C1240.17 65.2009 1238.9 68.4294 1236.36 70.9664L1237.07 71.6736ZM1241.17 61.24C1241.17 57.0409 1239.81 53.5494 1237.07 50.8064L1236.36 51.5135C1238.9 54.0506 1240.17 57.2791 1240.17 61.24H1241.17ZM1286.49 81.88L1286.9 81.59L1285.99 80.3159V81.88H1286.49ZM1286.49 115.48V115.98H1286.99V115.48H1286.49ZM1269.21 115.48H1268.71V115.98H1269.21V115.48ZM1269.21 34.48V33.98H1268.71V34.48H1269.21ZM1286.49 34.48H1286.99V33.98H1286.49V34.48ZM1286.49 40.84H1285.99V42.317L1286.89 41.1437L1286.49 40.84ZM1321.65 82.6L1322 82.9536L1321.65 82.6ZM1289.37 51.52L1289.01 51.1664L1289.37 51.52ZM1289.13 70.84L1288.76 71.1827L1288.77 71.1882L1288.77 71.1936L1289.13 70.84ZM1308.21 71.2L1308.55 71.5644L1308.55 71.5638L1308.21 71.2ZM1308.33 51.28L1308.67 50.9159L1308.67 50.9156L1308.33 51.28ZM1285.99 81.88V115.48H1286.99V81.88H1285.99ZM1286.49 114.98H1269.21V115.98H1286.49V114.98ZM1269.71 115.48V34.48H1268.71V115.48H1269.71ZM1269.21 34.98H1286.49V33.98H1269.21V34.98ZM1285.99 34.48V40.84H1286.99V34.48H1285.99ZM1286.89 41.1437C1290.95 35.8298 1296.36 33.18 1303.17 33.18V32.18C1296.06 32.18 1290.35 34.9702 1286.09 40.5363L1286.89 41.1437ZM1303.17 33.18C1310.65 33.18 1316.84 35.654 1321.77 40.5936L1322.48 39.8864C1317.34 34.746 1310.89 32.18 1303.17 32.18V33.18ZM1321.77 40.5936C1327.03 45.8473 1329.67 52.6739 1329.67 61.12H1330.67C1330.67 52.4461 1327.95 45.3526 1322.48 39.8864L1321.77 40.5936ZM1329.67 61.12C1329.67 69.6385 1326.87 76.6678 1321.29 82.2464L1322 82.9536C1327.78 77.1722 1330.67 69.8815 1330.67 61.12H1329.67ZM1321.29 82.2464C1316.6 86.9454 1310.69 89.3 1303.53 89.3V90.3C1310.93 90.3 1317.1 87.8546 1322 82.9536L1321.29 82.2464ZM1303.53 89.3C1296.06 89.3 1290.54 86.7142 1286.9 81.59L1286.08 82.17C1289.95 87.6058 1295.8 90.3 1303.53 90.3V89.3ZM1298.97 47.06C1295.08 47.06 1291.75 48.4319 1289.01 51.1664L1289.72 51.8736C1292.27 49.3281 1295.34 48.06 1298.97 48.06V47.06ZM1289.01 51.1664C1286.2 53.98 1284.79 57.3871 1284.79 61.36H1285.79C1285.79 57.6529 1287.1 54.5 1289.72 51.8736L1289.01 51.1664ZM1284.79 61.36C1284.79 65.0926 1286.12 68.3738 1288.76 71.1827L1289.49 70.4973C1287.02 67.8662 1285.79 64.8274 1285.79 61.36H1284.79ZM1288.77 71.1936C1291.59 74.0071 1295 75.42 1298.97 75.42V74.42C1295.26 74.42 1292.11 73.1129 1289.48 70.4864L1288.77 71.1936ZM1298.97 75.42C1302.62 75.42 1305.82 74.1287 1308.55 71.5644L1307.87 70.8356C1305.32 73.2313 1302.36 74.42 1298.97 74.42V75.42ZM1308.55 71.5638C1311.46 68.8211 1312.91 65.2853 1312.91 61H1311.91C1311.91 65.0347 1310.56 68.2989 1307.87 70.8362L1308.55 71.5638ZM1312.91 61C1312.91 56.9498 1311.5 53.5755 1308.67 50.9159L1307.99 51.6441C1310.6 54.1045 1311.91 57.2102 1311.91 61H1312.91ZM1308.67 50.9156C1305.94 48.3491 1302.7 47.06 1298.97 47.06V48.06C1302.44 48.06 1305.44 49.2509 1307.99 51.6444L1308.67 50.9156ZM1340.93 88H1340.43V88.5H1340.93V88ZM1340.93 34.48V33.98H1340.43V34.48H1340.93ZM1358.21 34.48H1358.71V33.98H1358.21V34.48ZM1358.21 40.72H1357.71V42.3714L1358.62 40.9973L1358.21 40.72ZM1383.29 35.56L1383.03 35.9877L1383.04 35.9941L1383.29 35.56ZM1389.77 43L1389.31 43.2061L1389.7 44.0755L1390.2 43.2572L1389.77 43ZM1396.61 36.16L1396.35 35.7331L1396.35 35.7334L1396.61 36.16ZM1423.01 38.2L1423.35 37.8387L1423.35 37.8383L1423.01 38.2ZM1428.53 88V88.5H1429.03V88H1428.53ZM1411.25 88H1410.75V88.5H1411.25V88ZM1408.97 50.44L1409.36 50.1296L1408.97 50.44ZM1396.01 50.8L1396.4 51.1089L1396.4 51.1033L1396.41 51.0976L1396.01 50.8ZM1393.37 88V88.5H1393.87V88H1393.37ZM1376.09 88H1375.59V88.5H1376.09V88ZM1373.33 49.72L1372.97 50.0736L1373.33 49.72ZM1361.57 49.72L1361.22 49.357L1361.22 49.3601L1361.57 49.72ZM1358.21 88V88.5H1358.71V88H1358.21ZM1341.43 88V34.48H1340.43V88H1341.43ZM1340.93 34.98H1358.21V33.98H1340.93V34.98ZM1357.71 34.48V40.72H1358.71V34.48H1357.71ZM1358.62 40.9973C1361.88 36.1115 1366.72 33.66 1373.21 33.66V32.66C1366.42 32.66 1361.25 35.2485 1357.79 40.4426L1358.62 40.9973ZM1373.21 33.66C1377.22 33.66 1380.49 34.4479 1383.03 35.9876L1383.55 35.1324C1380.81 33.4721 1377.35 32.66 1373.21 32.66V33.66ZM1383.04 35.9941C1385.73 37.5346 1387.83 39.9277 1389.31 43.2061L1390.22 42.7939C1388.67 39.3523 1386.44 36.7854 1383.54 35.1259L1383.04 35.9941ZM1390.2 43.2572C1391.83 40.5288 1394.05 38.306 1396.87 36.5866L1396.35 35.7334C1393.4 37.534 1391.06 39.8712 1389.34 42.7428L1390.2 43.2572ZM1396.87 36.5869C1400.06 34.6405 1403.77 33.66 1408.01 33.66V32.66C1403.61 32.66 1399.71 33.6795 1396.35 35.7331L1396.87 36.5869ZM1408.01 33.66C1414.4 33.66 1419.26 35.3167 1422.66 38.5617L1423.35 37.8383C1419.71 34.3633 1414.57 32.66 1408.01 32.66V33.66ZM1422.66 38.5613C1426.21 41.9545 1428.03 47.1209 1428.03 54.16H1429.03C1429.03 46.9591 1427.17 41.4855 1423.35 37.8387L1422.66 38.5613ZM1428.03 54.16V88H1429.03V54.16H1428.03ZM1428.53 87.5H1411.25V88.5H1428.53V87.5ZM1411.75 88V60.88H1410.75V88H1411.75ZM1411.75 60.88C1411.75 55.8262 1410.99 52.1927 1409.36 50.1296L1408.57 50.7504C1409.98 52.5273 1410.75 55.8538 1410.75 60.88H1411.75ZM1409.36 50.1296C1407.74 48.0795 1405.51 47.06 1402.73 47.06V48.06C1405.23 48.06 1407.16 48.9605 1408.57 50.7504L1409.36 50.1296ZM1402.73 47.06C1399.7 47.06 1397.31 48.2048 1395.61 50.5024L1396.41 51.0976C1397.91 49.0751 1399.99 48.06 1402.73 48.06V47.06ZM1395.61 50.4911C1393.75 52.8617 1392.87 56.5179 1392.87 61.36H1393.87C1393.87 56.6021 1394.74 53.2183 1396.4 51.1089L1395.61 50.4911ZM1392.87 61.36V88H1393.87V61.36H1392.87ZM1393.37 87.5H1376.09V88.5H1393.37V87.5ZM1376.59 88V60.16H1375.59V88H1376.59ZM1376.59 60.16C1376.59 55.0196 1375.67 51.3574 1373.68 49.3664L1372.97 50.0736C1374.66 51.7626 1375.59 55.0604 1375.59 60.16H1376.59ZM1373.68 49.3664C1372.13 47.8161 1370.07 47.06 1367.57 47.06V48.06C1369.86 48.06 1371.64 48.7439 1372.97 50.0736L1373.68 49.3664ZM1367.57 47.06C1364.98 47.06 1362.85 47.8131 1361.22 49.357L1361.91 50.083C1363.32 48.7469 1365.19 48.06 1367.57 48.06V47.06ZM1361.22 49.3601C1358.83 51.6598 1357.71 55.468 1357.71 60.64H1358.71C1358.71 55.572 1359.82 52.1002 1361.91 50.0799L1361.22 49.3601ZM1357.71 60.64V88H1358.71V60.64H1357.71ZM1358.21 87.5H1340.93V88.5H1358.21V87.5ZM1457.54 53.92L1457.05 53.829L1456.94 54.42H1457.54V53.92ZM1480.94 53.92V54.42H1481.58L1481.42 53.7987L1480.94 53.92ZM1477.46 47.68L1477.8 47.3179L1477.8 47.3131L1477.46 47.68ZM1460.54 48.16L1460.19 47.8063L1460.18 47.8152L1460.54 48.16ZM1496.9 64.24V64.74H1497.4V64.24H1496.9ZM1456.94 64.24V63.74H1456.44V64.24H1456.94ZM1460.18 73.36L1459.81 73.6945L1459.81 73.7002L1460.18 73.36ZM1476.02 75.16L1475.79 74.7181L1475.78 74.7236L1475.77 74.7295L1476.02 75.16ZM1479.74 70.72L1479.79 70.2226L1479.45 70.1872L1479.29 70.4964L1479.74 70.72ZM1496.06 72.4L1496.54 72.5502L1496.72 71.9654L1496.11 71.9026L1496.06 72.4ZM1485.74 85.84L1486 86.2688L1486 86.2651L1485.74 85.84ZM1447.58 40.36L1447.23 40.0064L1447.22 40.0116L1447.58 40.36ZM1489.34 40.72L1489.7 40.3775L1489.7 40.3746L1489.34 40.72ZM1457.54 54.42H1480.94V53.42H1457.54V54.42ZM1481.42 53.7987C1480.77 51.1598 1479.56 48.9919 1477.8 47.3179L1477.11 48.0421C1478.72 49.5681 1479.83 51.5602 1480.45 54.0413L1481.42 53.7987ZM1477.8 47.3131C1475.54 45.2175 1472.69 44.18 1469.3 44.18V45.18C1472.47 45.18 1475.06 46.1425 1477.12 48.0469L1477.8 47.3131ZM1469.3 44.18C1465.66 44.18 1462.61 45.3854 1460.19 47.8064L1460.89 48.5135C1463.11 46.2946 1465.9 45.18 1469.3 45.18V44.18ZM1460.18 47.8152C1458.51 49.5613 1457.47 51.5681 1457.05 53.829L1458.03 54.011C1458.41 51.9519 1459.36 50.1187 1460.9 48.5048L1460.18 47.8152ZM1496.4 62.44V64.24H1497.4V62.44H1496.4ZM1496.9 63.74H1456.94V64.74H1496.9V63.74ZM1456.44 64.24C1456.44 68.025 1457.55 71.1898 1459.81 73.6945L1460.55 73.0255C1458.49 70.7302 1457.44 67.8149 1457.44 64.24H1456.44ZM1459.81 73.7002C1462.01 76.067 1465.12 77.22 1469.06 77.22V76.22C1465.32 76.22 1462.51 75.133 1460.55 73.0198L1459.81 73.7002ZM1469.06 77.22C1471.99 77.22 1474.41 76.6909 1476.27 75.5905L1475.77 74.7295C1474.11 75.7091 1471.89 76.22 1469.06 76.22V77.22ZM1476.25 75.6019C1477.75 74.8111 1479.05 73.2233 1480.19 70.9436L1479.29 70.4964C1478.19 72.6967 1477.01 74.0689 1475.79 74.7181L1476.25 75.6019ZM1479.69 71.2174L1496.01 72.8974L1496.11 71.9026L1479.79 70.2226L1479.69 71.2174ZM1495.58 72.2497C1493.78 77.9796 1490.41 82.3602 1485.48 85.4149L1486 86.2651C1491.15 83.0798 1494.66 78.5004 1496.54 72.5502L1495.58 72.2497ZM1485.48 85.4113C1481.18 87.9913 1475.64 89.3 1468.82 89.3V90.3C1475.76 90.3 1481.5 88.9687 1486 86.2688L1485.48 85.4113ZM1468.82 89.3C1459.8 89.3 1452.82 86.7698 1447.81 81.7664L1447.11 82.4736C1452.34 87.7102 1459.6 90.3 1468.82 90.3V89.3ZM1447.81 81.7664C1442.56 76.5108 1439.92 69.7631 1439.92 61.48H1438.92C1438.92 69.9969 1441.64 77.0092 1447.11 82.4736L1447.81 81.7664ZM1439.92 61.48C1439.92 53.1178 1442.6 46.2066 1447.94 40.7084L1447.22 40.0116C1441.68 45.7134 1438.92 52.8822 1438.92 61.48H1439.92ZM1447.93 40.7136C1452.94 35.7042 1459.65 33.18 1468.1 33.18V32.18C1459.43 32.18 1452.46 34.7758 1447.23 40.0064L1447.93 40.7136ZM1468.1 33.18C1477.04 33.18 1483.97 35.8252 1488.98 41.0654L1489.7 40.3746C1484.47 34.8948 1477.24 32.18 1468.1 32.18V33.18ZM1488.98 41.0625C1493.91 46.3088 1496.4 53.4153 1496.4 62.44H1497.4C1497.4 53.2247 1494.85 45.8512 1489.7 40.3775L1488.98 41.0625ZM1507.68 88H1507.18V88.5H1507.68V88ZM1507.68 34.48V33.98H1507.18V34.48H1507.68ZM1524.96 34.48H1525.46V33.98H1524.96V34.48ZM1524.96 40.84H1524.46V42.2872L1525.36 41.1486L1524.96 40.84ZM1556.88 38.44L1556.53 38.7935L1556.88 38.44ZM1562.28 88V88.5H1562.78V88H1562.28ZM1545 88H1544.5V88.5H1545V88ZM1542.12 49.84L1542.48 49.4864L1542.12 49.84ZM1528.32 50.32L1528.68 50.6736L1528.69 50.6659L1528.69 50.6579L1528.32 50.32ZM1524.96 88V88.5H1525.46V88H1524.96ZM1508.18 88V34.48H1507.18V88H1508.18ZM1507.68 34.98H1524.96V33.98H1507.68V34.98ZM1524.46 34.48V40.84H1525.46V34.48H1524.46ZM1525.36 41.1486C1529.34 36.0767 1534.71 33.54 1541.52 33.54V32.54C1534.42 32.54 1528.75 35.2033 1524.57 40.5314L1525.36 41.1486ZM1541.52 33.54C1548.07 33.54 1553.05 35.3133 1556.53 38.7935L1557.24 38.0864C1553.52 34.3667 1548.26 32.54 1541.52 32.54V33.54ZM1556.53 38.7935C1560.01 42.2706 1561.78 47.3647 1561.78 54.16H1562.78C1562.78 47.1953 1560.96 41.8094 1557.24 38.0864L1556.53 38.7935ZM1561.78 54.16V88H1562.78V54.16H1561.78ZM1562.28 87.5H1545V88.5H1562.28V87.5ZM1545.5 88V60.52H1544.5V88H1545.5ZM1545.5 60.52C1545.5 55.295 1544.55 51.5557 1542.48 49.4864L1541.77 50.1936C1543.54 51.9643 1544.5 55.345 1544.5 60.52H1545.5ZM1542.48 49.4864C1540.76 47.7715 1538.42 46.94 1535.52 46.94V47.94C1538.23 47.94 1540.29 48.7085 1541.77 50.1936L1542.48 49.4864ZM1535.52 46.94C1532.37 46.94 1529.83 47.9413 1527.96 49.9821L1528.69 50.6579C1530.34 48.8587 1532.6 47.94 1535.52 47.94V46.94ZM1527.97 49.9664C1525.6 52.3348 1524.46 55.8859 1524.46 60.52H1525.46C1525.46 56.0341 1526.57 52.7852 1528.68 50.6736L1527.97 49.9664ZM1524.46 60.52V88H1525.46V60.52H1524.46ZM1524.96 87.5H1507.68V88.5H1524.96V87.5ZM1604.21 48.4V48.9H1604.71V48.4H1604.21ZM1593.53 48.4V47.9H1593.03V48.4H1593.53ZM1593.53 88V88.5H1594.03V88H1593.53ZM1576.25 88H1575.75V88.5H1576.25V88ZM1576.25 48.4H1576.75V47.9H1576.25V48.4ZM1570.25 48.4H1569.75V48.9H1570.25V48.4ZM1570.25 34.48V33.98H1569.75V34.48H1570.25ZM1576.25 34.48V34.98H1576.75V34.48H1576.25ZM1576.25 17.2V16.7H1575.75V17.2H1576.25ZM1593.53 17.2H1594.03V16.7H1593.53V17.2ZM1593.53 34.48H1593.03V34.98H1593.53V34.48ZM1604.21 34.48H1604.71V33.98H1604.21V34.48ZM1604.21 47.9H1593.53V48.9H1604.21V47.9ZM1593.03 48.4V88H1594.03V48.4H1593.03ZM1593.53 87.5H1576.25V88.5H1593.53V87.5ZM1576.75 88V48.4H1575.75V88H1576.75ZM1576.25 47.9H1570.25V48.9H1576.25V47.9ZM1570.75 48.4V34.48H1569.75V48.4H1570.75ZM1570.25 34.98H1576.25V33.98H1570.25V34.98ZM1576.75 34.48V17.2H1575.75V34.48H1576.75ZM1576.25 17.7H1593.53V16.7H1576.25V17.7ZM1593.03 17.2V34.48H1594.03V17.2H1593.03ZM1593.53 34.98H1604.21V33.98H1593.53V34.98ZM1603.71 34.48V48.4H1604.71V34.48H1603.71Z" fill="white" fill-opacity="0.6"/>
</svg>
