<svg width="563" height="285" viewBox="0 0 563 285" fill="none" xmlns="http://www.w3.org/2000/svg">
<path opacity="0.7" d="M6.45 132.95L5.46005 132.809L5.32834 133.731L6.23867 133.927L6.45 132.95ZM23.1 136.55L22.8887 137.527L23.8661 137.739L24.0774 136.761L23.1 136.55ZM35.1 128L35.1244 129L35.1335 128.999L35.1425 128.999L35.1 128ZM45.75 136.55L44.7779 136.315L44.7758 136.324L44.7738 136.333L45.75 136.55ZM27.6 143.3L27.8108 144.278L27.8169 144.276L27.6 143.3ZM1.5 167.9H0.5V167.927L0.501498 167.955L1.5 167.9ZM46.2 178.25H47.2V175.836L45.4929 177.543L46.2 178.25ZM46.2 185H45.2V186H46.2V185ZM66 185V186H67V185H66ZM46.2 155.45L47.1972 155.525L47.2 155.488V155.45H46.2ZM32.25 170.75L32.0979 169.762L32.0856 169.764L32.25 170.75ZM22.05 167.3L22.9898 166.958L22.9863 166.949L22.05 167.3ZM30.15 156.95L29.9038 155.981L29.8936 155.983L30.15 156.95ZM46.2 153.2H47.2V151.975L45.9996 152.22L46.2 153.2ZM36.45 110.65C18.0068 110.65 6.88787 122.814 5.46005 132.809L7.43995 133.091C8.71213 124.186 18.8932 112.65 36.45 112.65V110.65ZM6.23867 133.927L22.8887 137.527L23.3113 135.573L6.66133 131.973L6.23867 133.927ZM24.0774 136.761C24.6244 134.232 25.942 132.353 27.8087 131.075C29.6922 129.786 32.1904 129.071 35.1244 129L35.0756 127C31.8596 127.079 28.9578 127.864 26.6788 129.425C24.383 130.997 22.7756 133.318 22.1226 136.339L24.0774 136.761ZM35.1425 128.999C38.4515 128.858 41.1192 129.847 42.8136 131.292C44.5086 132.738 45.1951 134.587 44.7779 136.315L46.7221 136.785C47.3549 134.163 46.2414 131.587 44.1115 129.77C41.9808 127.953 38.7985 126.842 35.0575 127.001L35.1425 128.999ZM44.7738 136.333C44.5993 137.118 44.2404 137.674 43.6329 138.141C42.9872 138.638 42.0289 139.06 40.6149 139.471C39.2086 139.879 37.4447 140.251 35.2378 140.695C33.0433 141.137 30.4331 141.646 27.3831 142.324L27.8169 144.276C30.8419 143.604 33.4255 143.1 35.6325 142.656C37.8272 142.214 39.6726 141.827 41.1726 141.392C42.6649 140.958 43.9096 140.452 44.853 139.726C45.8346 138.97 46.4507 138.007 46.7262 136.767L44.7738 136.333ZM27.3892 142.322C19.7056 143.98 12.9841 146.231 8.17978 150.157C3.31165 154.134 0.5 159.756 0.5 167.9H2.5C2.5 160.294 5.08835 155.266 9.44522 151.706C13.8659 148.094 20.1944 145.92 27.8108 144.278L27.3892 142.322ZM0.501498 167.955C0.814378 173.665 3.01559 178.512 7.04139 181.919C11.0555 185.318 16.7817 187.2 24 187.2V185.2C17.1183 185.2 11.8945 183.407 8.33361 180.393C4.78441 177.388 2.78562 173.085 2.4985 167.845L0.501498 167.955ZM24 187.2C36.606 187.2 44.0505 181.814 46.9071 178.957L45.4929 177.543C42.9495 180.086 35.994 185.2 24 185.2V187.2ZM45.2 178.25V185H47.2V178.25H45.2ZM46.2 186H66V184H46.2V186ZM67 185V139.85H65V185H67ZM67 139.85C67 129.114 63.4606 121.753 57.7638 117.1C52.1027 112.478 44.457 110.65 36.45 110.65V112.65C44.193 112.65 51.3223 114.422 56.4987 118.65C61.6394 122.847 65 129.586 65 139.85H67ZM45.2028 155.375C44.6367 162.876 39.4232 168.635 32.0979 169.762L32.4021 171.738C40.6768 170.465 46.5633 163.924 47.1972 155.525L45.2028 155.375ZM32.0856 169.764C29.9376 170.122 27.8483 170.074 26.1963 169.585C24.5512 169.098 23.4469 168.215 22.9898 166.958L21.1102 167.642C21.8531 169.685 23.5988 170.902 25.6287 171.503C27.6517 172.101 30.0624 172.128 32.4144 171.736L32.0856 169.764ZM22.9863 166.949C22.428 165.46 22.5675 163.698 23.667 162.065C24.7726 160.423 26.8989 158.847 30.4064 157.917L29.8936 155.983C26.0511 157.003 23.4524 158.802 22.008 160.948C20.5575 163.102 20.322 165.54 21.1137 167.651L22.9863 166.949ZM30.3962 157.919C35.1109 156.722 39.1144 155.786 41.9384 155.151C43.3503 154.833 44.4672 154.59 45.2304 154.426C45.612 154.345 45.9052 154.283 46.1027 154.242C46.2014 154.221 46.2762 154.205 46.3261 154.195C46.3511 154.19 46.3698 154.186 46.3822 154.183C46.3884 154.182 46.3931 154.181 46.3961 154.181C46.3976 154.18 46.3987 154.18 46.3995 154.18C46.3998 154.18 46.4001 154.18 46.4002 154.18C46.4003 154.18 46.4003 154.18 46.4004 154.18C46.4004 154.18 46.4004 154.18 46.2 153.2C45.9996 152.22 45.9995 152.22 45.9995 152.22C45.9994 152.22 45.9993 152.22 45.9992 152.22C45.9989 152.22 45.9986 152.22 45.9981 152.221C45.9972 152.221 45.996 152.221 45.9943 152.221C45.9909 152.222 45.9859 152.223 45.9793 152.224C45.9662 152.227 45.9467 152.231 45.9211 152.236C45.8697 152.247 45.7935 152.263 45.6933 152.284C45.4928 152.326 45.1966 152.388 44.8118 152.471C44.0422 152.635 42.9184 152.88 41.4991 153.199C38.6606 153.839 34.6391 154.778 29.9038 155.981L30.3962 157.919ZM45.2 153.2V155.45H47.2V153.2H45.2ZM148.8 140.75L149.096 139.795L149.09 139.793L148.8 140.75ZM135.15 132.8L136.148 132.745L136.148 132.734L136.147 132.723L135.15 132.8ZM144.6 127.7L144.681 126.703L144.678 126.703L144.6 127.7ZM153.3 134L152.346 134.298L152.636 135.228L153.573 134.962L153.3 134ZM168.6 129.65L168.873 130.612L169.727 130.369L169.588 129.493L168.6 129.65ZM114.6 132.35L113.601 132.305L113.601 132.312L114.6 132.35ZM136.8 155.15L136.468 156.093L136.475 156.096L136.8 155.15ZM150.45 163.1L149.451 163.137L149.451 163.138L150.45 163.1ZM139.2 168.05L139.141 169.048L139.145 169.048L139.2 168.05ZM126.3 161L127.228 160.629L126.813 159.59L125.828 160.119L126.3 161ZM111.75 168.8L111.278 167.919L110.577 168.294L110.785 169.062L111.75 168.8ZM171.45 164.15L170.451 164.109L170.451 164.116L171.45 164.15ZM149.09 139.793C143.386 138.067 140.127 136.786 138.283 135.643C137.373 135.081 136.868 134.587 136.579 134.147C136.299 133.722 136.178 133.284 136.148 132.745L134.152 132.855C134.197 133.666 134.394 134.465 134.907 135.246C135.41 136.009 136.17 136.688 137.23 137.344C139.323 138.639 142.814 139.983 148.51 141.707L149.09 139.793ZM136.147 132.723C136.099 132.1 136.39 130.994 137.563 130.084C138.731 129.177 140.856 128.409 144.522 128.697L144.678 126.703C140.694 126.391 138.019 127.198 136.337 128.504C134.66 129.806 134.051 131.55 134.153 132.877L136.147 132.723ZM144.519 128.697C149.591 129.108 151.694 132.214 152.346 134.298L154.254 133.702C153.406 130.986 150.709 127.192 144.681 126.703L144.519 128.697ZM153.573 134.962L168.873 130.612L168.327 128.688L153.027 133.038L153.573 134.962ZM169.588 129.493C168.457 122.386 159.77 110.8 141.9 110.8V112.8C158.83 112.8 166.643 123.714 167.612 129.807L169.588 129.493ZM141.9 110.8C132.337 110.8 125.373 113.481 120.728 117.554C116.085 121.627 113.837 127.026 113.601 132.305L115.599 132.395C115.813 127.624 117.84 122.748 122.047 119.058C126.252 115.369 132.713 112.8 141.9 112.8V110.8ZM113.601 132.312C113.367 138.476 115.058 143.079 118.929 146.831C122.733 150.517 128.575 153.312 136.468 156.093L137.132 154.207C129.275 151.438 123.792 148.758 120.321 145.394C116.917 142.096 115.383 138.074 115.599 132.388L113.601 132.312ZM136.475 156.096C141.588 157.851 144.834 158.785 146.897 159.798C147.901 160.291 148.502 160.749 148.869 161.236C149.219 161.701 149.419 162.276 149.451 163.137L151.449 163.063C151.406 161.899 151.119 160.899 150.466 160.033C149.83 159.188 148.912 158.559 147.778 158.002C145.566 156.915 142.062 155.899 137.125 154.204L136.475 156.096ZM149.451 163.138C149.5 164.421 148.586 165.472 146.563 166.211C144.578 166.936 141.876 167.197 139.255 167.052L139.145 169.048C141.924 169.203 144.922 168.939 147.249 168.089C149.539 167.253 151.55 165.679 151.449 163.062L149.451 163.138ZM139.259 167.052C136.862 166.911 134.149 166.129 131.864 164.933C129.547 163.72 127.848 162.177 127.228 160.629L125.372 161.371C126.252 163.573 128.453 165.405 130.936 166.705C133.451 168.021 136.438 168.889 139.141 169.048L139.259 167.052ZM125.828 160.119L111.278 167.919L112.222 169.681L126.772 161.881L125.828 160.119ZM110.785 169.062C112.08 173.838 116.263 178.331 121.917 181.609C127.599 184.902 134.896 187.05 142.65 187.05V185.05C135.254 185.05 128.301 182.998 122.92 179.879C117.512 176.744 113.82 172.612 112.715 168.538L110.785 169.062ZM142.65 187.05C159.606 187.05 171.974 177.979 172.449 164.184L170.451 164.116C170.026 176.421 158.994 185.05 142.65 185.05V187.05ZM172.449 164.191C172.683 158.493 171.192 153.679 167.378 149.627C163.606 145.619 157.639 142.441 149.096 139.795L148.504 141.705C156.911 144.309 162.494 147.356 165.922 150.998C169.308 154.596 170.667 158.857 170.451 164.109L172.449 164.191ZM199.059 118.85H198.059V121.111L199.732 119.59L199.059 118.85ZM199.059 112.7H200.059V111.7H199.059V112.7ZM179.109 112.7V111.7H178.109V112.7H179.109ZM179.109 217.7H178.109V218.7H179.109V217.7ZM199.059 217.7V218.7H200.059V217.7H199.059ZM199.059 178.7L199.744 177.971L198.059 176.389V178.7H199.059ZM218.259 110.65C210.364 110.65 203.523 113.44 198.387 118.11L199.732 119.59C204.495 115.26 210.855 112.65 218.259 112.65V110.65ZM200.059 118.85V112.7H198.059V118.85H200.059ZM199.059 111.7H179.109V113.7H199.059V111.7ZM178.109 112.7V217.7H180.109V112.7H178.109ZM179.109 218.7H199.059V216.7H179.109V218.7ZM200.059 217.7V178.7H198.059V217.7H200.059ZM198.375 179.429C203.505 184.249 210.349 187.2 218.259 187.2V185.2C210.87 185.2 204.513 182.451 199.744 177.971L198.375 179.429ZM218.259 187.2C239.753 187.2 254.059 170.156 254.059 148.85H252.059C252.059 169.244 238.466 185.2 218.259 185.2V187.2ZM254.059 148.85C254.059 127.538 239.748 110.65 218.259 110.65V112.65C238.471 112.65 252.059 128.462 252.059 148.85H254.059ZM216.159 166.9C211.035 166.9 207.043 164.953 204.319 161.774C201.579 158.578 200.059 154.062 200.059 148.85H198.059C198.059 154.438 199.689 159.447 202.8 163.076C205.925 166.722 210.484 168.9 216.159 168.9V166.9ZM200.059 148.85C200.059 143.638 201.579 139.122 204.319 135.926C207.043 132.747 211.035 130.8 216.159 130.8V128.8C210.484 128.8 205.925 130.978 202.8 134.624C199.689 138.253 198.059 143.262 198.059 148.85H200.059ZM216.159 130.8C221.283 130.8 225.234 132.746 227.921 135.921C230.624 139.115 232.109 143.632 232.109 148.85H234.109C234.109 143.268 232.52 138.26 229.448 134.629C226.359 130.979 221.836 128.8 216.159 128.8V130.8ZM232.109 148.85C232.109 154.068 230.624 158.585 227.921 161.779C225.234 164.954 221.283 166.9 216.159 166.9V168.9C221.836 168.9 226.359 166.721 229.448 163.071C232.52 159.44 234.109 154.432 234.109 148.85H232.109ZM328.452 156.05V157.05H329.272L329.433 156.246L328.452 156.05ZM326.202 169.55L327.061 170.063L327.617 169.131L326.643 168.652L326.202 169.55ZM309.702 161.45L310.143 160.552L309.376 160.176L308.884 160.875L309.702 161.45ZM280.302 156.05V155.05H278.933L279.349 156.354L280.302 156.05ZM310.152 142.1V143.1H311.407L311.127 141.877L310.152 142.1ZM280.152 142.1L279.182 141.857L278.871 143.1H280.152V142.1ZM329.433 156.246C329.9 153.907 330.052 151.435 330.052 148.85H328.052C328.052 151.365 327.904 153.693 327.471 155.854L329.433 156.246ZM330.052 148.85C330.052 138.227 326.803 128.682 320.847 121.778C314.877 114.859 306.236 110.65 295.602 110.65V112.65C305.668 112.65 313.751 116.616 319.332 123.084C324.926 129.568 328.052 138.623 328.052 148.85H330.052ZM295.602 110.65C274.152 110.65 258.752 127.497 258.752 148.85H260.752C260.752 128.503 275.352 112.65 295.602 112.65V110.65ZM258.752 148.85C258.752 170.225 274.923 187.2 296.352 187.2V185.2C276.081 185.2 260.752 169.175 260.752 148.85H258.752ZM296.352 187.2C309.911 187.2 320.884 180.408 327.061 170.063L325.343 169.037C319.52 178.792 309.193 185.2 296.352 185.2V187.2ZM326.643 168.652L310.143 160.552L309.261 162.348L325.761 170.448L326.643 168.652ZM308.884 160.875C306.24 164.632 301.91 166.9 296.352 166.9V168.9C302.494 168.9 307.464 166.368 310.52 162.025L308.884 160.875ZM296.352 166.9C288.579 166.9 283.385 162.423 281.255 155.746L279.349 156.354C281.718 163.777 287.625 168.9 296.352 168.9V166.9ZM280.302 157.05H328.452V155.05H280.302V157.05ZM295.602 130.8C299.585 130.8 302.56 132.002 304.734 133.988C306.923 135.988 308.383 138.859 309.177 142.323L311.127 141.877C310.271 138.141 308.655 134.862 306.083 132.512C303.494 130.147 300.019 128.8 295.602 128.8V130.8ZM310.152 141.1H280.152V143.1H310.152V141.1ZM281.122 142.343C281.98 138.909 283.647 136.032 286.045 134.015C288.436 132.006 291.615 130.8 295.602 130.8V128.8C291.189 128.8 287.543 130.144 284.759 132.485C281.982 134.818 280.123 138.091 279.182 141.857L281.122 142.343ZM385.727 136.25L384.92 136.84L385.411 137.512L386.161 137.151L385.727 136.25ZM402.227 128.3L402.661 129.201L403.646 128.726L403.086 127.787L402.227 128.3ZM402.227 169.55L403.086 170.063L403.642 169.131L402.668 168.652L402.227 169.55ZM385.727 161.45L386.168 160.552L385.401 160.176L384.91 160.875L385.727 161.45ZM372.377 166.9C367.254 166.9 363.302 164.954 360.616 161.779C357.913 158.585 356.427 154.068 356.427 148.85H354.427C354.427 154.432 356.017 159.44 359.089 163.071C362.177 166.721 366.701 168.9 372.377 168.9V166.9ZM356.427 148.85C356.427 143.632 357.913 139.115 360.616 135.921C363.302 132.746 367.254 130.8 372.377 130.8V128.8C366.701 128.8 362.177 130.979 359.089 134.629C356.017 138.26 354.427 143.268 354.427 148.85H356.427ZM372.377 130.8C378.062 130.8 382.261 133.201 384.92 136.84L386.535 135.66C383.494 131.499 378.692 128.8 372.377 128.8V130.8ZM386.161 137.151L402.661 129.201L401.793 127.399L385.293 135.349L386.161 137.151ZM403.086 127.787C396.909 117.442 385.937 110.65 372.377 110.65V112.65C385.218 112.65 395.545 119.058 401.369 128.813L403.086 127.787ZM372.377 110.65C350.954 110.65 334.777 127.469 334.777 148.85H336.777C336.777 128.531 352.101 112.65 372.377 112.65V110.65ZM334.777 148.85C334.777 170.225 350.949 187.2 372.377 187.2V185.2C352.106 185.2 336.777 169.175 336.777 148.85H334.777ZM372.377 187.2C385.937 187.2 396.909 180.408 403.086 170.063L401.369 169.037C395.545 178.792 385.218 185.2 372.377 185.2V187.2ZM402.668 168.652L386.168 160.552L385.287 162.348L401.787 170.448L402.668 168.652ZM384.91 160.875C382.263 164.636 378.08 166.9 372.377 166.9V168.9C378.674 168.9 383.492 166.364 386.545 162.025L384.91 160.875ZM410.876 185H409.876V186H410.876V185ZM430.826 185V186H431.826V185H430.826ZM430.826 112.7H431.826V111.7H430.826V112.7ZM410.876 112.7V111.7H409.876V112.7H410.876ZM420.926 103.65C427.628 103.65 433.026 98.2523 433.026 91.55H431.026C431.026 97.1477 426.523 101.65 420.926 101.65V103.65ZM433.026 91.55C433.026 84.7065 427.637 79.3 420.926 79.3V81.3C426.515 81.3 431.026 85.7935 431.026 91.55H433.026ZM420.926 79.3C414.073 79.3 408.676 84.6977 408.676 91.55H410.676C410.676 85.8023 415.178 81.3 420.926 81.3V79.3ZM408.676 91.55C408.676 98.261 414.082 103.65 420.926 103.65V101.65C415.169 101.65 410.676 97.139 410.676 91.55H408.676ZM410.876 186H430.826V184H410.876V186ZM431.826 185V112.7H429.826V185H431.826ZM430.826 111.7H410.876V113.7H430.826V111.7ZM409.876 112.7V185H411.876V112.7H409.876ZM445.171 132.95L444.181 132.809L444.049 133.731L444.959 133.927L445.171 132.95ZM461.821 136.55L461.609 137.527L462.587 137.739L462.798 136.761L461.821 136.55ZM473.821 128L473.845 129L473.854 128.999L473.863 128.999L473.821 128ZM484.471 136.55L483.499 136.315L483.496 136.324L483.495 136.333L484.471 136.55ZM466.321 143.3L466.532 144.278L466.538 144.276L466.321 143.3ZM440.221 167.9H439.221V167.927L439.222 167.955L440.221 167.9ZM484.921 178.25H485.921V175.836L484.214 177.543L484.921 178.25ZM484.921 185H483.921V186H484.921V185ZM504.721 185V186H505.721V185H504.721ZM484.921 155.45L485.918 155.525L485.921 155.488V155.45H484.921ZM470.971 170.75L470.819 169.762L470.806 169.764L470.971 170.75ZM460.771 167.3L461.711 166.958L461.707 166.949L460.771 167.3ZM468.871 156.95L468.625 155.981L468.614 155.983L468.871 156.95ZM484.921 153.2H485.921V151.975L484.72 152.22L484.921 153.2ZM475.171 110.65C456.728 110.65 445.609 122.814 444.181 132.809L446.161 133.091C447.433 124.186 457.614 112.65 475.171 112.65V110.65ZM444.959 133.927L461.609 137.527L462.032 135.573L445.382 131.973L444.959 133.927ZM462.798 136.761C463.345 134.232 464.663 132.353 466.529 131.075C468.413 129.786 470.911 129.071 473.845 129L473.796 127C470.58 127.079 467.679 127.864 465.4 129.425C463.104 130.997 461.496 133.318 460.843 136.339L462.798 136.761ZM473.863 128.999C477.172 128.858 479.84 129.847 481.534 131.292C483.229 132.738 483.916 134.587 483.499 136.315L485.443 136.785C486.076 134.163 484.962 131.587 482.832 129.77C480.702 127.953 477.519 126.842 473.778 127.001L473.863 128.999ZM483.495 136.333C483.32 137.118 482.961 137.674 482.354 138.141C481.708 138.638 480.75 139.06 479.336 139.471C477.929 139.879 476.165 140.251 473.959 140.695C471.764 141.137 469.154 141.646 466.104 142.324L466.538 144.276C469.563 143.604 472.146 143.1 474.353 142.656C476.548 142.214 478.393 141.827 479.893 141.392C481.386 140.958 482.63 140.452 483.574 139.726C484.555 138.97 485.171 138.007 485.447 136.767L483.495 136.333ZM466.11 142.322C458.426 143.98 451.705 146.231 446.9 150.157C442.032 154.134 439.221 159.756 439.221 167.9H441.221C441.221 160.294 443.809 155.266 448.166 151.706C452.587 148.094 458.915 145.92 466.532 144.278L466.11 142.322ZM439.222 167.955C439.535 173.665 441.736 178.512 445.762 181.919C449.776 185.318 455.502 187.2 462.721 187.2V185.2C455.839 185.2 450.615 183.407 447.054 180.393C443.505 177.388 441.506 173.085 441.219 167.845L439.222 167.955ZM462.721 187.2C475.327 187.2 482.771 181.814 485.628 178.957L484.214 177.543C481.67 180.086 474.715 185.2 462.721 185.2V187.2ZM483.921 178.25V185H485.921V178.25H483.921ZM484.921 186H504.721V184H484.921V186ZM505.721 185V139.85H503.721V185H505.721ZM505.721 139.85C505.721 129.114 502.181 121.753 496.484 117.1C490.823 112.478 483.178 110.65 475.171 110.65V112.65C482.914 112.65 490.043 114.422 495.219 118.65C500.36 122.847 503.721 129.586 503.721 139.85H505.721ZM483.924 155.375C483.357 162.876 478.144 168.635 470.819 169.762L471.123 171.738C479.397 170.465 485.284 163.924 485.918 155.525L483.924 155.375ZM470.806 169.764C468.658 170.122 466.569 170.074 464.917 169.585C463.272 169.098 462.168 168.215 461.711 166.958L459.831 167.642C460.574 169.685 462.319 170.902 464.349 171.503C466.372 172.101 468.783 172.128 471.135 171.736L470.806 169.764ZM461.707 166.949C461.149 165.46 461.288 163.698 462.388 162.065C463.493 160.423 465.62 158.847 469.127 157.917L468.614 155.983C464.772 157.003 462.173 158.802 460.729 160.948C459.278 163.102 459.043 165.54 459.834 167.651L461.707 166.949ZM469.117 157.919C473.832 156.722 477.835 155.786 480.659 155.151C482.071 154.833 483.188 154.59 483.951 154.426C484.333 154.345 484.626 154.283 484.823 154.242C484.922 154.221 484.997 154.205 485.047 154.195C485.072 154.19 485.091 154.186 485.103 154.183C485.109 154.182 485.114 154.181 485.117 154.181C485.118 154.18 485.119 154.18 485.12 154.18C485.121 154.18 485.121 154.18 485.121 154.18C485.121 154.18 485.121 154.18 485.121 154.18C485.121 154.18 485.121 154.18 484.921 153.2C484.72 152.22 484.72 152.22 484.72 152.22C484.72 152.22 484.72 152.22 484.72 152.22C484.72 152.22 484.719 152.22 484.719 152.221C484.718 152.221 484.717 152.221 484.715 152.221C484.712 152.222 484.707 152.223 484.7 152.224C484.687 152.227 484.667 152.231 484.642 152.236C484.59 152.247 484.514 152.263 484.414 152.284C484.214 152.326 483.917 152.388 483.532 152.471C482.763 152.635 481.639 152.88 480.22 153.199C477.381 153.839 473.36 154.778 468.625 155.981L469.117 157.919ZM483.921 153.2V155.45H485.921V153.2H483.921ZM551.256 165.35L552.054 164.747L551.397 163.878L550.587 164.607L551.256 165.35ZM544.056 167.75L544.151 166.754L544.139 166.753L544.056 167.75ZM537.456 72.5H538.456V71.5H537.456V72.5ZM517.506 72.5V71.5H516.506V72.5H517.506ZM539.106 186.2L539.158 185.201L539.155 185.201L539.106 186.2ZM560.556 177.65L561.293 178.326L561.856 177.712L561.354 177.047L560.556 177.65ZM550.587 164.607C549.24 165.819 546.956 167.022 544.151 166.755L543.961 168.745C547.456 169.078 550.272 167.581 551.925 166.093L550.587 164.607ZM544.139 166.753C541.845 166.562 540.478 165.36 539.632 163.604C538.754 161.781 538.456 159.373 538.456 156.95H536.456C536.456 159.477 536.758 162.244 537.83 164.471C538.934 166.765 540.867 168.488 543.973 168.747L544.139 166.753ZM538.456 156.95V72.5H536.456V156.95H538.456ZM537.456 71.5H517.506V73.5H537.456V71.5ZM516.506 72.5V155.9H518.506V72.5H516.506ZM516.506 155.9C516.506 167.996 518.844 175.71 522.935 180.476C527.052 185.274 532.777 186.892 539.057 187.199L539.155 185.201C533.135 184.908 528.06 183.376 524.452 179.174C520.818 174.94 518.506 167.804 518.506 155.9H516.506ZM539.054 187.199C548.06 187.664 556.147 183.94 561.293 178.326L559.819 176.974C555.065 182.16 547.552 185.636 539.158 185.201L539.054 187.199ZM561.354 177.047L552.054 164.747L550.458 165.953L559.758 178.253L561.354 177.047ZM94.1648 150V149H93.1648V150H94.1648ZM94.1648 189L93.5032 189.75L95.1648 191.216V189H94.1648ZM94.1648 248.85H95.1648V246.634L93.5032 248.1L94.1648 248.85ZM94.1648 255H93.1648V256H94.1648V255ZM114.115 255V256H115.115V255H114.115ZM114.115 150H115.115V149H114.115V150ZM93.1648 150V189H95.1648V150H93.1648ZM94.8265 188.25C89.5601 183.603 82.8795 180.65 74.8148 180.65V182.65C82.3502 182.65 88.5696 185.397 93.5032 189.75L94.8265 188.25ZM74.8148 180.65C53.3097 180.65 39.4648 197.557 39.4648 218.85H41.4648C41.4648 198.443 54.62 182.65 74.8148 182.65V180.65ZM39.4648 218.85C39.4648 240.138 53.3048 257.2 74.8148 257.2V255.2C54.6249 255.2 41.4648 239.262 41.4648 218.85H39.4648ZM74.8148 257.2C82.8795 257.2 89.5601 254.247 94.8265 249.6L93.5032 248.1C88.5696 252.453 82.3502 255.2 74.8148 255.2V257.2ZM93.1648 248.85V255H95.1648V248.85H93.1648ZM94.1648 256H114.115V254H94.1648V256ZM115.115 255V150H113.115V255H115.115ZM114.115 149H94.1648V151H114.115V149ZM77.0648 236.9C71.9404 236.9 67.9487 234.953 65.2241 231.774C62.4848 228.578 60.9648 224.062 60.9648 218.85H58.9648C58.9648 224.438 60.5949 229.447 63.7056 233.076C66.831 236.722 71.3893 238.9 77.0648 238.9V236.9ZM60.9648 218.85C60.9648 213.638 62.4848 209.122 65.2241 205.926C67.9487 202.747 71.9404 200.8 77.0648 200.8V198.8C71.3893 198.8 66.831 200.978 63.7056 204.624C60.5949 208.253 58.9648 213.262 58.9648 218.85H60.9648ZM77.0648 200.8C82.1893 200.8 86.181 202.747 88.9056 205.926C91.6449 209.122 93.1648 213.638 93.1648 218.85H95.1648C95.1648 213.262 93.5348 208.253 90.4241 204.624C87.2987 200.978 82.7404 198.8 77.0648 198.8V200.8ZM93.1648 218.85C93.1648 224.062 91.6449 228.578 88.9056 231.774C86.181 234.953 82.1893 236.9 77.0648 236.9V238.9C82.7404 238.9 87.2987 236.722 90.4241 233.076C93.5348 229.447 95.1648 224.438 95.1648 218.85H93.1648ZM191.782 226.05V227.05H192.602L192.763 226.246L191.782 226.05ZM189.532 239.55L190.391 240.063L190.947 239.131L189.973 238.652L189.532 239.55ZM173.032 231.45L173.473 230.552L172.706 230.176L172.214 230.875L173.032 231.45ZM143.632 226.05V225.05H142.263L142.679 226.354L143.632 226.05ZM173.482 212.1V213.1H174.737L174.457 211.877L173.482 212.1ZM143.482 212.1L142.512 211.857L142.201 213.1H143.482V212.1ZM192.763 226.246C193.23 223.907 193.382 221.435 193.382 218.85H191.382C191.382 221.365 191.234 223.693 190.801 225.854L192.763 226.246ZM193.382 218.85C193.382 208.227 190.133 198.682 184.177 191.778C178.208 184.859 169.566 180.65 158.932 180.65V182.65C168.998 182.65 177.082 186.616 182.662 193.084C188.256 199.568 191.382 208.623 191.382 218.85H193.382ZM158.932 180.65C137.482 180.65 122.082 197.497 122.082 218.85H124.082C124.082 198.503 138.682 182.65 158.932 182.65V180.65ZM122.082 218.85C122.082 240.225 138.253 257.2 159.682 257.2V255.2C139.411 255.2 124.082 239.175 124.082 218.85H122.082ZM159.682 257.2C173.241 257.2 184.214 250.408 190.391 240.063L188.673 239.037C182.85 248.792 172.523 255.2 159.682 255.2V257.2ZM189.973 238.652L173.473 230.552L172.591 232.348L189.091 240.448L189.973 238.652ZM172.214 230.875C169.57 234.632 165.24 236.9 159.682 236.9V238.9C165.824 238.9 170.794 236.368 173.85 232.025L172.214 230.875ZM159.682 236.9C151.909 236.9 146.716 232.423 144.585 225.746L142.679 226.354C145.049 233.777 150.955 238.9 159.682 238.9V236.9ZM143.632 227.05H191.782V225.05H143.632V227.05ZM158.932 200.8C162.915 200.8 165.89 202.003 168.064 203.988C170.254 205.988 171.713 208.859 172.507 212.323L174.457 211.877C173.601 208.141 171.986 204.862 169.413 202.512C166.824 200.147 163.349 198.8 158.932 198.8V200.8ZM173.482 211.1H143.482V213.1H173.482V211.1ZM144.452 212.343C145.311 208.909 146.977 206.032 149.375 204.015C151.766 202.006 154.945 200.8 158.932 200.8V198.8C154.519 198.8 150.873 200.144 148.089 202.485C145.312 204.818 143.453 208.091 142.512 211.857L144.452 212.343ZM233.175 210.75L233.471 209.795L233.465 209.793L233.175 210.75ZM219.525 202.8L220.523 202.745L220.523 202.734L220.522 202.723L219.525 202.8ZM228.975 197.7L229.056 196.703L229.053 196.703L228.975 197.7ZM237.675 204L236.721 204.298L237.011 205.228L237.948 204.962L237.675 204ZM252.975 199.65L253.248 200.612L254.102 200.369L253.963 199.493L252.975 199.65ZM198.975 202.35L197.976 202.305L197.976 202.312L198.975 202.35ZM221.175 225.15L220.843 226.093L220.85 226.096L221.175 225.15ZM234.825 233.1L233.826 233.137L233.826 233.138L234.825 233.1ZM223.575 238.05L223.516 239.048L223.52 239.048L223.575 238.05ZM210.675 231L211.603 230.629L211.188 229.59L210.203 230.119L210.675 231ZM196.125 238.8L195.653 237.919L194.952 238.294L195.16 239.062L196.125 238.8ZM255.825 234.15L254.826 234.109L254.826 234.116L255.825 234.15ZM233.465 209.793C227.761 208.067 224.502 206.786 222.658 205.643C221.748 205.081 221.243 204.587 220.954 204.147C220.674 203.722 220.553 203.284 220.523 202.745L218.527 202.855C218.572 203.666 218.769 204.465 219.282 205.246C219.785 206.009 220.545 206.688 221.605 207.344C223.698 208.639 227.189 209.983 232.885 211.707L233.465 209.793ZM220.522 202.723C220.474 202.1 220.765 200.994 221.938 200.084C223.106 199.177 225.231 198.409 228.897 198.697L229.053 196.703C225.069 196.391 222.394 197.198 220.712 198.504C219.035 199.806 218.426 201.55 218.528 202.877L220.522 202.723ZM228.894 198.697C233.966 199.108 236.069 202.214 236.721 204.298L238.629 203.702C237.781 200.986 235.084 197.192 229.056 196.703L228.894 198.697ZM237.948 204.962L253.248 200.612L252.702 198.688L237.402 203.038L237.948 204.962ZM253.963 199.493C252.832 192.386 244.145 180.8 226.275 180.8V182.8C243.205 182.8 251.018 193.714 251.987 199.807L253.963 199.493ZM226.275 180.8C216.712 180.8 209.748 183.481 205.103 187.554C200.46 191.627 198.212 197.026 197.976 202.305L199.974 202.395C200.188 197.624 202.215 192.748 206.422 189.058C210.627 185.369 217.088 182.8 226.275 182.8V180.8ZM197.976 202.312C197.742 208.476 199.433 213.079 203.304 216.831C207.108 220.517 212.95 223.312 220.843 226.093L221.507 224.207C213.65 221.438 208.167 218.758 204.696 215.394C201.292 212.096 199.758 208.074 199.974 202.388L197.976 202.312ZM220.85 226.096C225.963 227.851 229.209 228.785 231.272 229.798C232.276 230.291 232.877 230.749 233.244 231.236C233.594 231.701 233.794 232.276 233.826 233.137L235.824 233.063C235.781 231.899 235.494 230.899 234.841 230.033C234.205 229.188 233.287 228.559 232.153 228.002C229.941 226.915 226.437 225.899 221.5 224.204L220.85 226.096ZM233.826 233.138C233.875 234.421 232.961 235.472 230.938 236.211C228.953 236.936 226.251 237.197 223.63 237.052L223.52 239.048C226.299 239.203 229.297 238.939 231.624 238.089C233.914 237.253 235.925 235.679 235.824 233.062L233.826 233.138ZM223.634 237.052C221.237 236.911 218.524 236.129 216.239 234.933C213.922 233.72 212.223 232.177 211.603 230.629L209.747 231.371C210.627 233.573 212.828 235.405 215.311 236.705C217.826 238.021 220.813 238.889 223.516 239.048L223.634 237.052ZM210.203 230.119L195.653 237.919L196.597 239.681L211.147 231.881L210.203 230.119ZM195.16 239.062C196.455 243.838 200.638 248.331 206.292 251.609C211.974 254.902 219.271 257.05 227.025 257.05V255.05C219.629 255.05 212.676 252.998 207.295 249.879C201.887 246.744 198.195 242.612 197.09 238.538L195.16 239.062ZM227.025 257.05C243.981 257.05 256.349 247.979 256.824 234.184L254.826 234.116C254.401 246.421 243.369 255.05 227.025 255.05V257.05ZM256.824 234.191C257.058 228.493 255.567 223.679 251.753 219.627C247.981 215.619 242.014 212.441 233.471 209.795L232.879 211.705C241.286 214.309 246.869 217.356 250.297 220.998C253.683 224.596 255.042 228.857 254.826 234.109L256.824 234.191ZM264.684 255H263.684V256H264.684V255ZM284.634 255V256H285.634V255H284.634ZM284.634 182.7H285.634V181.7H284.634V182.7ZM264.684 182.7V181.7H263.684V182.7H264.684ZM274.734 173.65C281.437 173.65 286.834 168.252 286.834 161.55H284.834C284.834 167.148 280.332 171.65 274.734 171.65V173.65ZM286.834 161.55C286.834 154.707 281.445 149.3 274.734 149.3V151.3C280.323 151.3 284.834 155.793 284.834 161.55H286.834ZM274.734 149.3C267.882 149.3 262.484 154.698 262.484 161.55H264.484C264.484 155.802 268.987 151.3 274.734 151.3V149.3ZM262.484 161.55C262.484 168.261 267.891 173.65 274.734 173.65V171.65C268.978 171.65 264.484 167.139 264.484 161.55H262.484ZM264.684 256H284.634V254H264.684V256ZM285.634 255V182.7H283.634V255H285.634ZM284.634 181.7H264.684V183.7H284.634V181.7ZM263.684 182.7V255H265.684V182.7H263.684ZM363.271 256.95L364.27 256.904L364.27 256.904L363.271 256.95ZM319.171 235.65L318.201 235.893L318.213 235.943L318.231 235.992L319.171 235.65ZM321.721 231.6V230.6H321.471L321.25 230.718L321.721 231.6ZM350.371 195.3L349.789 194.486L349.069 195.001L349.493 195.779L350.371 195.3ZM362.821 192.45L362.76 193.448L363.821 193.512V192.45H362.821ZM362.821 176.4H363.821V175.4H362.821V176.4ZM342.571 186.75L342.016 187.582L342.788 188.097L343.359 187.365L342.571 186.75ZM308.221 227.4L308.875 228.157L309.933 227.241L308.725 226.536L308.221 227.4ZM305.821 248.85L306.425 248.053L306.416 248.046L306.406 248.039L305.821 248.85ZM325.771 254.25L325.701 255.248L325.708 255.248L325.715 255.248L325.771 254.25ZM324.721 266.85L324.666 267.849L324.668 267.849L324.721 266.85ZM301.321 258.9L302.028 258.193L301.258 257.423L300.556 258.256L301.321 258.9ZM291.721 270.3L290.956 269.656L290.431 270.279L290.935 270.919L291.721 270.3ZM327.421 283.2L327.412 284.2L327.414 284.2L327.421 283.2ZM364.27 256.904C364.114 253.566 363.403 250.592 361.964 248.02C360.52 245.44 358.376 243.318 355.441 241.644C349.618 238.322 340.659 236.75 327.721 236.75V238.75C340.582 238.75 349.099 240.328 354.45 243.381C357.103 244.895 358.971 246.767 360.218 248.996C361.47 251.233 362.127 253.884 362.272 256.996L364.27 256.904ZM327.721 236.75C325.564 236.75 323.66 236.637 322.245 236.34C321.536 236.191 321.003 236.007 320.637 235.802C320.271 235.597 320.15 235.418 320.111 235.308L318.231 235.992C318.491 236.707 319.046 237.203 319.66 237.547C320.272 237.89 321.024 238.127 321.834 238.297C323.456 238.638 325.527 238.75 327.721 238.75V236.75ZM320.141 235.407C319.986 234.787 320.209 233.539 322.191 232.482L321.25 230.718C318.732 232.061 317.756 234.113 318.201 235.893L320.141 235.407ZM321.721 232.6C322.126 232.6 322.573 232.634 323.091 232.672C323.594 232.71 324.154 232.75 324.721 232.75V230.75C324.238 230.75 323.748 230.715 323.238 230.678C322.744 230.641 322.216 230.6 321.721 230.6V232.6ZM324.721 232.75C340.538 232.75 354.371 222.871 354.371 206.7H352.371C352.371 221.429 339.803 230.75 324.721 230.75V232.75ZM354.371 206.7C354.371 202.155 353.114 198.242 351.249 194.821L349.493 195.779C351.227 198.958 352.371 202.545 352.371 206.7H354.371ZM350.952 196.114C353.852 194.042 357.947 193.156 362.76 193.448L362.881 191.452C357.795 191.144 353.189 192.058 349.789 194.486L350.952 196.114ZM363.821 192.45V176.4H361.821V192.45H363.821ZM362.821 175.4C354.368 175.4 346.743 179.779 341.782 186.135L343.359 187.365C347.999 181.421 355.073 177.4 362.821 177.4V175.4ZM343.125 185.918C337.995 182.498 331.648 180.65 324.721 180.65V182.65C331.293 182.65 337.246 184.402 342.016 187.582L343.125 185.918ZM324.721 180.65C308.903 180.65 295.071 190.529 295.071 206.7H297.071C297.071 191.971 309.638 182.65 324.721 182.65V180.65ZM295.071 206.7C295.071 216.398 300.248 223.907 307.717 228.264L308.725 226.536C301.793 222.493 297.071 215.602 297.071 206.7H295.071ZM307.567 226.643C298.374 234.59 299.166 245.278 305.235 249.661L306.406 248.039C301.675 244.622 300.367 235.51 308.875 228.157L307.567 226.643ZM305.216 249.647C309.82 253.139 317.136 254.647 325.701 255.248L325.841 253.252C317.305 252.653 310.522 251.161 306.425 248.053L305.216 249.647ZM325.715 255.248C329.096 255.436 331.976 255.531 334.351 255.638C336.746 255.746 338.613 255.866 340.048 256.1C341.504 256.336 342.355 256.667 342.843 257.08C343.264 257.437 343.521 257.947 343.521 258.9H345.521C345.521 257.528 345.121 256.388 344.136 255.554C343.217 254.776 341.912 254.376 340.369 254.125C338.804 253.871 336.827 253.748 334.441 253.64C332.034 253.532 329.195 253.439 325.826 253.252L325.715 255.248ZM343.521 258.9C343.521 260.895 342.413 262.763 339.491 264.104C336.517 265.468 331.756 266.223 324.774 265.851L324.668 267.849C331.786 268.227 336.924 267.482 340.325 265.921C343.779 264.337 345.521 261.855 345.521 258.9H343.521ZM324.775 265.852C313.936 265.258 306.127 262.292 302.028 258.193L300.614 259.607C305.214 264.208 313.605 267.242 324.666 267.848L324.775 265.852ZM300.556 258.256L290.956 269.656L292.486 270.944L302.086 259.544L300.556 258.256ZM290.935 270.919C293.035 273.584 297.675 276.855 303.955 279.473C310.269 282.105 318.346 284.124 327.412 284.2L327.429 282.2C318.645 282.126 310.823 280.17 304.724 277.627C298.591 275.07 294.306 271.966 292.506 269.681L290.935 270.919ZM327.414 284.2C338.87 284.276 348.255 281.776 354.71 277.071C361.206 272.336 364.66 265.415 364.27 256.904L362.272 256.996C362.631 264.835 359.486 271.114 353.532 275.454C347.537 279.824 338.622 282.274 327.427 282.2L327.414 284.2ZM324.721 197.5C331.031 197.5 335.271 201.509 335.271 206.7H337.271C337.271 200.191 331.91 195.5 324.721 195.5V197.5ZM335.271 206.7C335.271 211.891 331.031 215.9 324.721 215.9V217.9C331.91 217.9 337.271 213.209 337.271 206.7H335.271ZM324.721 215.9C318.41 215.9 314.171 211.891 314.171 206.7H312.171C312.171 213.209 317.531 217.9 324.721 217.9V215.9ZM314.171 206.7C314.171 201.509 318.41 197.5 324.721 197.5V195.5C317.531 195.5 312.171 200.191 312.171 206.7H314.171ZM391.557 189H390.557V191.473L392.276 189.695L391.557 189ZM391.557 182.7H392.557V181.7H391.557V182.7ZM371.607 182.7V181.7H370.607V182.7H371.607ZM371.607 255H370.607V256H371.607V255ZM391.557 255V256H392.557V255H391.557ZM415.107 255H414.107V256H415.107V255ZM435.057 255V256H436.057V255H435.057ZM408.357 180.65C401.302 180.65 395.352 183.636 390.838 188.305L392.276 189.695C396.463 185.364 401.913 182.65 408.357 182.65V180.65ZM392.557 189V182.7H390.557V189H392.557ZM391.557 181.7H371.607V183.7H391.557V181.7ZM370.607 182.7V255H372.607V182.7H370.607ZM371.607 256H391.557V254H371.607V256ZM392.557 255V215.7H390.557V255H392.557ZM392.557 215.7C392.557 210.508 393.73 206.907 395.627 204.62C397.501 202.361 400.193 201.25 403.557 201.25V199.25C399.722 199.25 396.414 200.539 394.088 203.343C391.785 206.118 390.557 210.242 390.557 215.7H392.557ZM403.557 201.25C406.959 201.25 409.524 202.234 411.267 204.306C413.039 206.413 414.107 209.812 414.107 214.95H416.107C416.107 209.588 415.001 205.637 412.798 203.019C410.566 200.366 407.356 199.25 403.557 199.25V201.25ZM414.107 214.95V255H416.107V214.95H414.107ZM415.107 256H435.057V254H415.107V256ZM436.057 255V215.7H434.057V255H436.057ZM436.057 215.7C436.057 204.463 433.478 195.698 428.674 189.723C423.847 183.718 416.867 180.65 408.357 180.65V182.65C416.347 182.65 422.718 185.507 427.116 190.977C431.537 196.477 434.057 204.737 434.057 215.7H436.057Z" fill="white" fill-opacity="0.5"/>
<path d="M42 7.99999H8.25V27.2H41.55C63.6 27.2 77.1 40.55 77.1 60.5C77.1 80.6 63.6 93.95 41.55 93.95H28.2V63.8H8.25V113H42C76.8 113 97.05 91.25 97.05 60.5C97.05 29.9 76.8 7.99999 42 7.99999ZM170.981 84.05C171.431 81.8 171.581 79.4 171.581 76.85C171.581 56 158.831 39.65 138.131 39.65C117.281 39.65 102.281 56 102.281 76.85C102.281 97.7 118.031 114.2 138.881 114.2C152.081 114.2 162.731 107.6 168.731 97.55L152.231 89.45C149.381 93.5 144.731 95.9 138.881 95.9C130.631 95.9 125.081 91.1 122.831 84.05H170.981ZM138.131 57.8C146.531 57.8 151.031 62.9 152.681 70.1H122.681C124.481 62.9 129.731 57.8 138.131 57.8ZM244.545 40.7H224.145L208.845 86.3L193.545 40.7H173.145L199.395 113H218.145L244.545 40.7ZM313.364 84.05C313.814 81.8 313.964 79.4 313.964 76.85C313.964 56 301.214 39.65 280.514 39.65C259.664 39.65 244.664 56 244.664 76.85C244.664 97.7 260.414 114.2 281.264 114.2C294.464 114.2 305.114 107.6 311.114 97.55L294.614 89.45C291.764 93.5 287.114 95.9 281.264 95.9C273.014 95.9 267.464 91.1 265.214 84.05H313.364ZM280.514 57.8C288.914 57.8 293.414 62.9 295.064 70.1H265.064C266.864 62.9 272.114 57.8 280.514 57.8ZM357.457 93.35C355.957 94.7 353.407 96.05 350.257 95.75C344.857 95.3 343.657 89.9 343.657 84.95V0.499991H323.707V83.9C323.707 107.9 333.007 113.6 345.307 114.2C354.007 114.65 361.807 111.05 366.757 105.65L357.457 93.35ZM402.571 39.65C381.721 39.65 365.971 56 365.971 76.85C365.971 97.7 381.721 114.2 402.571 114.2C423.421 114.2 439.171 97.7 439.171 76.85C439.171 56 423.421 39.65 402.571 39.65ZM402.571 95.9C391.771 95.9 385.471 87.65 385.471 76.85C385.471 66.05 391.771 57.8 402.571 57.8C413.371 57.8 419.671 66.05 419.671 76.85C419.671 87.65 413.371 95.9 402.571 95.9ZM487.351 39.65C479.701 39.65 473.101 42.35 468.151 46.85V40.7H448.201V145.7H468.151V106.7C473.101 111.35 479.701 114.2 487.351 114.2C508.201 114.2 522.151 97.7 522.151 76.85C522.151 56 508.201 39.65 487.351 39.65ZM485.251 95.9C474.451 95.9 468.151 87.65 468.151 76.85C468.151 66.05 474.451 57.8 485.251 57.8C496.051 57.8 502.201 66.05 502.201 76.85C502.201 87.65 496.051 95.9 485.251 95.9Z" fill="black" fill-opacity="0.2"/>
</svg>
