<svg width="649" height="116" viewBox="0 0 649 116" fill="none" xmlns="http://www.w3.org/2000/svg">
<g filter="url(#filter0_d)">
<path d="M32.3 86.95L12.95 106H67.25V86.95H32.3ZM24.2 32.65H4.25V92.8L24.2 73V32.65ZM24.2 0.999993H4.25V17.95H24.2V0.999993ZM140.468 77.05C140.918 74.8 141.068 72.4 141.068 69.85C141.068 49 128.318 32.65 107.618 32.65C86.7676 32.65 71.7676 49 71.7676 69.85C71.7676 90.7 87.5176 107.2 108.368 107.2C121.568 107.2 132.218 100.6 138.218 90.55L121.718 82.45C118.868 86.5 114.218 88.9 108.368 88.9C100.118 88.9 94.5676 84.1 92.3176 77.05H140.468ZM107.618 50.8C116.018 50.8 120.518 55.9 122.168 63.1H92.1676C93.9676 55.9 99.2176 50.8 107.618 50.8ZM191.778 84.7C189.828 86.5 186.078 87.7 183.378 87.7C177.078 87.7 175.428 83.8 175.428 77.35V52.9H192.228V33.7H175.428V13L155.478 17.5V33.7H145.578V52.9H155.478V83.8C155.478 98.8 164.028 106.75 179.328 106.75C187.878 106.75 194.628 103.6 198.378 100L191.778 84.7ZM198.4 0.0999955L201.85 25.3H211.75L215.35 0.0999955H198.4ZM250.122 61.75C238.722 58.3 236.622 56.5 236.472 53.8C236.322 51.85 238.272 48.1 245.922 48.7C251.472 49.15 253.872 52.6 254.622 55L269.922 50.65C268.872 44.05 260.622 32.8 243.222 32.8C224.472 32.8 216.372 43.3 215.922 53.35C215.472 65.2 222.372 70.6 238.122 76.15C248.172 79.6 251.622 80.05 251.772 84.1C251.922 88 245.922 89.35 240.522 89.05C235.422 88.75 229.122 85.75 227.622 82L213.072 89.8C215.472 98.65 228.822 107.05 243.972 107.05C260.622 107.05 272.322 98.2 272.772 85.15C273.222 74.2 267.072 67 250.122 61.75ZM396.196 32.65C387.946 32.65 380.596 36.1 375.346 41.95C371.146 35.8 364.696 32.65 356.146 32.65C349.396 32.65 343.696 35.5 339.346 40V33.7H319.396V106H339.346V66.7C339.346 56.65 343.396 51.25 350.446 51.25C357.646 51.25 361.246 56.5 361.246 65.95V106H381.196V66.7C381.196 56.65 385.096 51.25 392.296 51.25C399.496 51.25 403.096 56.5 403.096 65.95V106H423.046V66.7C423.046 44.5 412.846 32.65 396.196 32.65ZM466.337 32.65C448.337 32.65 437.687 44.5 436.337 53.95L452.987 57.55C454.187 52 458.837 49.15 464.987 49C472.037 48.7 476.687 53.2 475.637 57.55C474.737 61.6 469.637 61.6 457.487 64.3C442.187 67.6 431.387 73.15 431.387 88.9C431.987 99.85 439.787 107.2 453.887 107.2C466.187 107.2 473.387 101.95 476.087 99.25V106H495.887V60.85C495.887 39.85 482.087 32.65 466.337 32.65ZM476.087 76.45C475.487 84.4 469.937 90.55 462.137 91.75C457.637 92.5 453.137 91.6 451.937 88.3C450.587 84.7 452.687 79.9 460.037 77.95C469.487 75.55 476.087 74.2 476.087 74.2V76.45ZM553.972 106H576.772L552.022 69.85L575.722 33.7H553.222L535.822 60.4H527.872V0.999993H507.922V106H527.872V79.45H536.122L553.972 106ZM643.934 77.05C644.384 74.8 644.534 72.4 644.534 69.85C644.534 49 631.784 32.65 611.084 32.65C590.234 32.65 575.234 49 575.234 69.85C575.234 90.7 590.984 107.2 611.834 107.2C625.034 107.2 635.684 100.6 641.684 90.55L625.184 82.45C622.334 86.5 617.684 88.9 611.834 88.9C603.584 88.9 598.034 84.1 595.784 77.05H643.934ZM611.084 50.8C619.484 50.8 623.984 55.9 625.634 63.1H595.634C597.434 55.9 602.684 50.8 611.084 50.8Z" fill="black" fill-opacity="0.2"/>
</g>
<defs>
<filter id="filter0_d" x="0.25" y="0.0999756" width="648.284" height="115.1" filterUnits="userSpaceOnUse" color-interpolation-filters="sRGB">
<feFlood flood-opacity="0" result="BackgroundImageFix"/>
<feColorMatrix in="SourceAlpha" type="matrix" values="0 0 0 0 0 0 0 0 0 0 0 0 0 0 0 0 0 0 127 0"/>
<feOffset dy="4"/>
<feGaussianBlur stdDeviation="2"/>
<feColorMatrix type="matrix" values="0 0 0 0 0 0 0 0 0 0 0 0 0 0 0 0 0 0 0.25 0"/>
<feBlend mode="normal" in2="BackgroundImageFix" result="effect1_dropShadow"/>
<feBlend mode="normal" in="SourceGraphic" in2="effect1_dropShadow" result="shape"/>
</filter>
</defs>
</svg>
