<svg width="685" height="245" viewBox="0 0 685 245" fill="none" xmlns="http://www.w3.org/2000/svg">
<path d="M109.417 127.94C109.417 153.59 95.3774 169.25 72.9674 169.25C50.2874 169.25 36.5174 153.59 36.5174 127.94V70.97L0.607422 70.97V128.75C0.607422 176 28.9574 205.16 72.9674 205.16C113.197 205.16 140.467 180.59 144.787 139.82L109.417 124.43V127.94ZM109.417 14V92.3L145.327 107.96V14H109.417ZM36.5174 14L0.607422 14V44.51L36.5174 44.51V14ZM173.608 203H209.518V70.97L173.608 70.97V203ZM173.608 14V44.51L209.518 44.51V14L173.608 14ZM302.982 0.499984L221.712 244.58H253.032L334.032 0.499984H302.982ZM461.683 127.94C461.683 153.59 447.643 169.25 425.233 169.25C402.553 169.25 388.783 153.59 388.783 127.94V70.97L352.873 70.97V128.75C352.873 176 381.223 205.16 425.233 205.16C465.463 205.16 492.733 180.59 497.053 139.82L461.683 124.43V127.94ZM461.683 14V92.3L497.593 107.96V14H461.683ZM388.783 14L352.873 14V44.51L388.783 44.51V14ZM622.327 104.72L679.027 14H635.287L579.937 104.45L640.417 203H684.157L622.327 104.72ZM582.637 51.53L559.957 14L516.217 14L561.577 86.36L582.637 51.53ZM511.087 203H554.827L581.827 158.72L560.497 124.16L511.087 203Z" fill="black" fill-opacity="0.15"/>
</svg>
