<svg width="683" height="286" viewBox="0 0 683 286" fill="none" xmlns="http://www.w3.org/2000/svg">
<g opacity="0.7" filter="url(#filter0_d)">
<path d="M11.45 125.95L10.4601 125.809L10.3283 126.731L11.2387 126.927L11.45 125.95ZM28.1 129.55L27.8887 130.527L28.8661 130.739L29.0774 129.761L28.1 129.55ZM40.1 121L40.1244 122L40.1335 121.999L40.1425 121.999L40.1 121ZM50.75 129.55L49.7779 129.315L49.7758 129.324L49.7738 129.333L50.75 129.55ZM32.6 136.3L32.8108 137.278L32.8169 137.276L32.6 136.3ZM6.5 160.9H5.5V160.927L5.5015 160.955L6.5 160.9ZM51.2 171.25H52.2V168.836L50.4929 170.543L51.2 171.25ZM51.2 178H50.2V179H51.2V178ZM71 178V179H72V178H71ZM51.2 148.45L52.1972 148.525L52.2 148.488V148.45H51.2ZM37.25 163.75L37.0979 162.762L37.0856 162.764L37.25 163.75ZM27.05 160.3L27.9898 159.958L27.9863 159.949L27.05 160.3ZM35.15 149.95L34.9038 148.981L34.8936 148.983L35.15 149.95ZM51.2 146.2H52.2V144.975L50.9996 145.22L51.2 146.2ZM41.45 103.65C23.0068 103.65 11.8879 115.814 10.4601 125.809L12.4399 126.091C13.7121 117.186 23.8932 105.65 41.45 105.65V103.65ZM11.2387 126.927L27.8887 130.527L28.3113 128.573L11.6613 124.973L11.2387 126.927ZM29.0774 129.761C29.6244 127.232 30.942 125.353 32.8087 124.075C34.6922 122.786 37.1904 122.071 40.1244 122L40.0756 120C36.8596 120.079 33.9578 120.864 31.6788 122.425C29.383 123.997 27.7756 126.318 27.1226 129.339L29.0774 129.761ZM40.1425 121.999C43.4515 121.858 46.1192 122.847 47.8136 124.292C49.5086 125.738 50.1951 127.587 49.7779 129.315L51.7221 129.785C52.3549 127.163 51.2414 124.587 49.1115 122.77C46.9808 120.953 43.7985 119.842 40.0575 120.001L40.1425 121.999ZM49.7738 129.333C49.5993 130.118 49.2404 130.674 48.6329 131.141C47.9872 131.638 47.0289 132.06 45.6149 132.471C44.2086 132.879 42.4447 133.251 40.2378 133.695C38.0433 134.137 35.4331 134.646 32.3831 135.324L32.8169 137.276C35.8419 136.604 38.4255 136.1 40.6325 135.656C42.8272 135.214 44.6726 134.827 46.1726 134.392C47.6649 133.958 48.9096 133.452 49.853 132.726C50.8346 131.97 51.4507 131.007 51.7262 129.767L49.7738 129.333ZM32.3892 135.322C24.7056 136.98 17.9841 139.231 13.1798 143.157C8.31165 147.134 5.5 152.756 5.5 160.9H7.5C7.5 153.294 10.0884 148.266 14.4452 144.706C18.8659 141.094 25.1944 138.92 32.8108 137.278L32.3892 135.322ZM5.5015 160.955C5.81438 166.665 8.01559 171.512 12.0414 174.919C16.0555 178.318 21.7817 180.2 29 180.2V178.2C22.1183 178.2 16.8945 176.407 13.3336 173.393C9.78441 170.388 7.78562 166.085 7.4985 160.845L5.5015 160.955ZM29 180.2C41.606 180.2 49.0505 174.814 51.9071 171.957L50.4929 170.543C47.9495 173.086 40.994 178.2 29 178.2V180.2ZM50.2 171.25V178H52.2V171.25H50.2ZM51.2 179H71V177H51.2V179ZM72 178V132.85H70V178H72ZM72 132.85C72 122.114 68.4606 114.753 62.7638 110.1C57.1027 105.478 49.457 103.65 41.45 103.65V105.65C49.193 105.65 56.3223 107.422 61.4987 111.65C66.6394 115.847 70 122.586 70 132.85H72ZM50.2028 148.375C49.6367 155.876 44.4232 161.635 37.0979 162.762L37.4021 164.738C45.6768 163.465 51.5633 156.924 52.1972 148.525L50.2028 148.375ZM37.0856 162.764C34.9376 163.122 32.8483 163.074 31.1963 162.585C29.5512 162.098 28.4469 161.215 27.9898 159.958L26.1102 160.642C26.8531 162.685 28.5988 163.902 30.6287 164.503C32.6517 165.101 35.0624 165.128 37.4144 164.736L37.0856 162.764ZM27.9863 159.949C27.428 158.46 27.5675 156.698 28.667 155.065C29.7726 153.423 31.8989 151.847 35.4064 150.917L34.8936 148.983C31.0511 150.003 28.4524 151.802 27.008 153.948C25.5575 156.102 25.322 158.54 26.1137 160.651L27.9863 159.949ZM35.3962 150.919C40.1109 149.722 44.1144 148.786 46.9384 148.151C48.3503 147.833 49.4672 147.59 50.2304 147.426C50.612 147.345 50.9052 147.283 51.1027 147.242C51.2014 147.221 51.2762 147.205 51.3261 147.195C51.3511 147.19 51.3698 147.186 51.3822 147.183C51.3884 147.182 51.3931 147.181 51.3961 147.181C51.3976 147.18 51.3987 147.18 51.3995 147.18C51.3998 147.18 51.4001 147.18 51.4002 147.18C51.4003 147.18 51.4003 147.18 51.4004 147.18C51.4004 147.18 51.4004 147.18 51.2 146.2C50.9996 145.22 50.9995 145.22 50.9995 145.22C50.9994 145.22 50.9993 145.22 50.9992 145.22C50.9989 145.22 50.9986 145.22 50.9981 145.221C50.9972 145.221 50.996 145.221 50.9943 145.221C50.9909 145.222 50.9859 145.223 50.9793 145.224C50.9662 145.227 50.9467 145.231 50.9211 145.236C50.8697 145.247 50.7935 145.263 50.6933 145.284C50.4928 145.326 50.1966 145.388 49.8118 145.471C49.0422 145.635 47.9184 145.88 46.4991 146.199C43.6606 146.839 39.6391 147.778 34.9038 148.981L35.3962 150.919ZM50.2 146.2V148.45H52.2V146.2H50.2ZM208.55 105.7V104.7H207.835L207.604 105.377L208.55 105.7ZM194.45 146.95L193.504 147.273L194.45 150.042L195.396 147.273L194.45 146.95ZM180.35 105.7L181.296 105.377L181.065 104.7H180.35V105.7ZM165.8 105.7V104.7H165.085L164.854 105.377L165.8 105.7ZM151.7 146.95L150.755 147.277L151.705 150.027L152.646 147.273L151.7 146.95ZM137.45 105.7L138.395 105.373L138.163 104.7H137.45V105.7ZM117.5 105.7V104.7H116.098L116.555 106.026L117.5 105.7ZM142.4 178L141.454 178.326L141.687 179H142.4V178ZM158.3 178V179H159.01L159.244 178.329L158.3 178ZM173 135.85L173.943 135.518L172.995 132.827L172.056 135.521L173 135.85ZM187.85 178L186.907 178.332L187.142 179H187.85V178ZM203.75 178V179H204.463L204.696 178.326L203.75 178ZM228.65 105.7L229.596 106.026L230.052 104.7H228.65V105.7ZM207.604 105.377L193.504 146.627L195.396 147.273L209.496 106.023L207.604 105.377ZM195.396 146.627L181.296 105.377L179.404 106.023L193.504 147.273L195.396 146.627ZM180.35 104.7H165.8V106.7H180.35V104.7ZM164.854 105.377L150.754 146.627L152.646 147.273L166.746 106.023L164.854 105.377ZM152.645 146.623L138.395 105.373L136.505 106.027L150.755 147.277L152.645 146.623ZM137.45 104.7H117.5V106.7H137.45V104.7ZM116.555 106.026L141.454 178.326L143.346 177.674L118.445 105.374L116.555 106.026ZM142.4 179H158.3V177H142.4V179ZM159.244 178.329L173.944 136.179L172.056 135.521L157.356 177.671L159.244 178.329ZM172.057 136.182L186.907 178.332L188.793 177.668L173.943 135.518L172.057 136.182ZM187.85 179H203.75V177H187.85V179ZM204.696 178.326L229.596 106.026L227.705 105.374L202.805 177.674L204.696 178.326ZM228.65 104.7H208.55V106.7H228.65V104.7ZM266.799 103.65C245.376 103.65 229.199 120.469 229.199 141.85H231.199C231.199 121.531 246.523 105.65 266.799 105.65V103.65ZM229.199 141.85C229.199 163.225 245.37 180.2 266.799 180.2V178.2C246.528 178.2 231.199 162.175 231.199 141.85H229.199ZM266.799 180.2C288.228 180.2 304.399 163.225 304.399 141.85H302.399C302.399 162.175 287.07 178.2 266.799 178.2V180.2ZM304.399 141.85C304.399 120.469 288.223 103.65 266.799 103.65V105.65C287.076 105.65 302.399 121.531 302.399 141.85H304.399ZM266.799 159.9C261.675 159.9 257.683 157.953 254.958 154.774C252.219 151.578 250.699 147.062 250.699 141.85H248.699C248.699 147.438 250.329 152.447 253.44 156.076C256.565 159.722 261.124 161.9 266.799 161.9V159.9ZM250.699 141.85C250.699 136.638 252.219 132.122 254.958 128.926C257.683 125.747 261.675 123.8 266.799 123.8V121.8C261.124 121.8 256.565 123.978 253.44 127.624C250.329 131.253 248.699 136.262 248.699 141.85H250.699ZM266.799 123.8C271.924 123.8 275.915 125.747 278.64 128.926C281.379 132.122 282.899 136.638 282.899 141.85H284.899C284.899 136.262 283.269 131.253 280.158 127.624C277.033 123.978 272.475 121.8 266.799 121.8V123.8ZM282.899 141.85C282.899 147.062 281.379 151.578 278.64 154.774C275.915 157.953 271.924 159.9 266.799 159.9V161.9C272.475 161.9 277.033 159.722 280.158 156.076C283.269 152.447 284.899 147.438 284.899 141.85H282.899ZM396.782 105.7V104.7H396.067L395.836 105.377L396.782 105.7ZM382.682 146.95L381.736 147.273L382.682 150.042L383.629 147.273L382.682 146.95ZM368.582 105.7L369.529 105.377L369.297 104.7H368.582V105.7ZM354.032 105.7V104.7H353.317L353.086 105.377L354.032 105.7ZM339.932 146.95L338.987 147.277L339.937 150.027L340.879 147.273L339.932 146.95ZM325.682 105.7L326.628 105.373L326.395 104.7H325.682V105.7ZM305.732 105.7V104.7H304.33L304.787 106.026L305.732 105.7ZM330.632 178L329.687 178.326L329.919 179H330.632V178ZM346.532 178V179H347.243L347.477 178.329L346.532 178ZM361.232 135.85L362.176 135.518L361.228 132.827L360.288 135.521L361.232 135.85ZM376.082 178L375.139 178.332L375.374 179H376.082V178ZM391.982 178V179H392.696L392.928 178.326L391.982 178ZM416.882 105.7L417.828 106.026L418.284 104.7H416.882V105.7ZM395.836 105.377L381.736 146.627L383.629 147.273L397.729 106.023L395.836 105.377ZM383.629 146.627L369.529 105.377L367.636 106.023L381.736 147.273L383.629 146.627ZM368.582 104.7H354.032V106.7H368.582V104.7ZM353.086 105.377L338.986 146.627L340.879 147.273L354.979 106.023L353.086 105.377ZM340.878 146.623L326.628 105.373L324.737 106.027L338.987 147.277L340.878 146.623ZM325.682 104.7H305.732V106.7H325.682V104.7ZM304.787 106.026L329.687 178.326L331.578 177.674L306.678 105.374L304.787 106.026ZM330.632 179H346.532V177H330.632V179ZM347.477 178.329L362.177 136.179L360.288 135.521L345.588 177.671L347.477 178.329ZM360.289 136.182L375.139 178.332L377.026 177.668L362.176 135.518L360.289 136.182ZM376.082 179H391.982V177H376.082V179ZM392.928 178.326L417.828 106.026L415.937 105.374L391.037 177.674L392.928 178.326ZM416.882 104.7H396.782V106.7H416.882V104.7ZM493.644 133.75L493.94 132.795L493.933 132.793L493.644 133.75ZM479.994 125.8L480.992 125.745L480.992 125.734L480.991 125.723L479.994 125.8ZM489.444 120.7L489.525 119.703L489.522 119.703L489.444 120.7ZM498.144 127L497.189 127.298L497.48 128.228L498.417 127.962L498.144 127ZM513.444 122.65L513.717 123.612L514.571 123.369L514.431 122.493L513.444 122.65ZM459.444 125.35L458.445 125.305L458.444 125.312L459.444 125.35ZM481.644 148.15L481.311 149.093L481.319 149.096L481.644 148.15ZM495.294 156.1L494.294 156.137L494.294 156.138L495.294 156.1ZM484.044 161.05L483.985 162.048L483.988 162.048L484.044 161.05ZM471.144 154L472.072 153.629L471.657 152.59L470.671 153.119L471.144 154ZM456.594 161.8L456.121 160.919L455.421 161.294L455.629 162.062L456.594 161.8ZM516.294 157.15L515.295 157.109L515.294 157.116L516.294 157.15ZM493.933 132.793C488.23 131.067 484.971 129.786 483.126 128.643C482.217 128.081 481.712 127.587 481.422 127.147C481.143 126.722 481.022 126.284 480.992 125.745L478.995 125.855C479.04 126.666 479.238 127.465 479.751 128.246C480.254 129.009 481.014 129.688 482.074 130.344C484.166 131.639 487.657 132.983 493.354 134.707L493.933 132.793ZM480.991 125.723C480.943 125.1 481.234 123.994 482.407 123.084C483.574 122.177 485.699 121.409 489.366 121.697L489.522 119.703C485.538 119.391 482.863 120.198 481.181 121.504C479.504 122.806 478.895 124.55 478.997 125.877L480.991 125.723ZM489.363 121.697C494.435 122.108 496.538 125.214 497.189 127.298L499.098 126.702C498.25 123.986 495.553 120.192 489.525 119.703L489.363 121.697ZM498.417 127.962L513.717 123.612L513.17 121.688L497.87 126.038L498.417 127.962ZM514.431 122.493C513.301 115.386 504.614 103.8 486.744 103.8V105.8C503.674 105.8 511.487 116.714 512.456 122.807L514.431 122.493ZM486.744 103.8C477.18 103.8 470.216 106.481 465.572 110.554C460.929 114.627 458.681 120.026 458.445 125.305L460.443 125.395C460.656 120.624 462.684 115.748 466.891 112.058C471.096 108.369 477.557 105.8 486.744 105.8V103.8ZM458.444 125.312C458.21 131.476 459.901 136.079 463.773 139.831C467.577 143.517 473.419 146.312 481.311 149.093L481.976 147.207C474.119 144.438 468.636 141.758 465.165 138.394C461.761 135.096 460.227 131.074 460.443 125.388L458.444 125.312ZM481.319 149.096C486.432 150.851 489.678 151.785 491.74 152.798C492.744 153.291 493.345 153.749 493.712 154.236C494.062 154.701 494.263 155.276 494.294 156.137L496.293 156.063C496.25 154.899 495.963 153.899 495.31 153.033C494.673 152.188 493.756 151.559 492.622 151.002C490.409 149.915 486.906 148.899 481.968 147.204L481.319 149.096ZM494.294 156.138C494.344 157.421 493.429 158.472 491.407 159.211C489.422 159.936 486.72 160.197 484.099 160.052L483.988 162.048C486.768 162.203 489.766 161.939 492.093 161.089C494.383 160.253 496.394 158.679 496.293 156.062L494.294 156.138ZM484.102 160.052C481.706 159.911 478.993 159.129 476.707 157.933C474.39 156.72 472.692 155.177 472.072 153.629L470.215 154.371C471.096 156.573 473.297 158.405 475.78 159.705C478.294 161.021 481.282 161.889 483.985 162.048L484.102 160.052ZM470.671 153.119L456.121 160.919L457.066 162.681L471.616 154.881L470.671 153.119ZM455.629 162.062C456.924 166.838 461.106 171.331 466.761 174.609C472.443 177.902 479.74 180.05 487.494 180.05V178.05C480.097 178.05 473.145 175.998 467.764 172.879C462.356 169.744 458.664 165.612 457.559 161.538L455.629 162.062ZM487.494 180.05C504.449 180.05 516.817 170.979 517.293 157.184L515.294 157.116C514.87 169.421 503.838 178.05 487.494 178.05V180.05ZM517.293 157.191C517.527 151.493 516.035 146.679 512.222 142.627C508.449 138.619 502.483 135.441 493.94 132.795L493.348 134.705C501.755 137.309 507.338 140.356 510.766 143.998C514.152 147.596 515.51 151.857 515.295 157.109L517.293 157.191ZM525.153 178H524.153V179H525.153V178ZM545.103 178V179H546.103V178H545.103ZM545.103 105.7H546.103V104.7H545.103V105.7ZM525.153 105.7V104.7H524.153V105.7H525.153ZM535.203 96.65C541.905 96.65 547.303 91.2523 547.303 84.55H545.303C545.303 90.1477 540.801 94.65 535.203 94.65V96.65ZM547.303 84.55C547.303 77.7065 541.914 72.3 535.203 72.3V74.3C540.792 74.3 545.303 78.7935 545.303 84.55H547.303ZM535.203 72.3C528.351 72.3 522.953 77.6977 522.953 84.55H524.953C524.953 78.8023 529.455 74.3 535.203 74.3V72.3ZM522.953 84.55C522.953 91.261 528.36 96.65 535.203 96.65V94.65C529.447 94.65 524.953 90.139 524.953 84.55H522.953ZM525.153 179H545.103V177H525.153V179ZM546.103 178V105.7H544.103V178H546.103ZM545.103 104.7H525.153V106.7H545.103V104.7ZM524.153 105.7V178H526.153V105.7H524.153ZM599.216 156.7L600.134 156.304L599.575 155.008L598.537 155.965L599.216 156.7ZM582.866 124.9V123.9H581.866V124.9H582.866ZM599.666 124.9V125.9H600.666V124.9H599.666ZM599.666 105.7H600.666V104.7H599.666V105.7ZM582.866 105.7H581.866V106.7H582.866V105.7ZM582.866 85H583.866V83.7493L582.646 84.0245L582.866 85ZM562.916 89.5L562.696 88.5245L561.916 88.7004V89.5H562.916ZM562.916 105.7V106.7H563.916V105.7H562.916ZM553.016 105.7V104.7H552.016V105.7H553.016ZM553.016 124.9H552.016V125.9H553.016V124.9ZM562.916 124.9H563.916V123.9H562.916V124.9ZM605.816 172L606.508 172.721L607.009 172.241L606.734 171.604L605.816 172ZM598.537 155.965C597.699 156.739 596.412 157.431 594.97 157.93C593.535 158.426 592.034 158.7 590.816 158.7V160.7C592.298 160.7 594.021 160.374 595.624 159.82C597.219 159.269 598.783 158.461 599.894 157.435L598.537 155.965ZM590.816 158.7C587.89 158.7 586.268 157.811 585.307 156.385C584.284 154.865 583.866 152.538 583.866 149.35H581.866C581.866 152.612 582.272 155.46 583.649 157.502C585.088 159.639 587.442 160.7 590.816 160.7V158.7ZM583.866 149.35V124.9H581.866V149.35H583.866ZM582.866 125.9H599.666V123.9H582.866V125.9ZM600.666 124.9V105.7H598.666V124.9H600.666ZM599.666 104.7H582.866V106.7H599.666V104.7ZM583.866 105.7V85H581.866V105.7H583.866ZM582.646 84.0245L562.696 88.5245L563.136 90.4755L583.086 85.9755L582.646 84.0245ZM561.916 89.5V105.7H563.916V89.5H561.916ZM562.916 104.7H553.016V106.7H562.916V104.7ZM552.016 105.7V124.9H554.016V105.7H552.016ZM553.016 125.9H562.916V123.9H553.016V125.9ZM561.916 124.9V155.8H563.916V124.9H561.916ZM561.916 155.8C561.916 163.489 564.111 169.521 568.413 173.624C572.707 177.719 578.952 179.75 586.766 179.75V177.75C579.279 177.75 573.599 175.806 569.793 172.176C565.995 168.554 563.916 163.111 563.916 155.8H561.916ZM586.766 179.75C595.55 179.75 602.556 176.516 606.508 172.721L605.123 171.279C601.576 174.684 595.081 177.75 586.766 177.75V179.75ZM606.734 171.604L600.134 156.304L598.297 157.096L604.897 172.396L606.734 171.604ZM676.811 149.05V150.05H677.631L677.792 149.246L676.811 149.05ZM674.561 162.55L675.42 163.063L675.976 162.131L675.002 161.652L674.561 162.55ZM658.061 154.45L658.502 153.552L657.735 153.176L657.244 153.875L658.061 154.45ZM628.661 149.05V148.05H627.292L627.709 149.354L628.661 149.05ZM658.511 135.1V136.1H659.766L659.486 134.877L658.511 135.1ZM628.511 135.1L627.541 134.857L627.231 136.1H628.511V135.1ZM677.792 149.246C678.26 146.907 678.411 144.435 678.411 141.85H676.411C676.411 144.365 676.263 146.693 675.831 148.854L677.792 149.246ZM678.411 141.85C678.411 131.227 675.163 121.682 669.206 114.778C663.237 107.859 654.596 103.65 643.961 103.65V105.65C654.027 105.65 662.111 109.616 667.692 116.084C673.285 122.568 676.411 131.623 676.411 141.85H678.411ZM643.961 103.65C622.511 103.65 607.111 120.497 607.111 141.85H609.111C609.111 121.503 623.712 105.65 643.961 105.65V103.65ZM607.111 141.85C607.111 163.225 623.283 180.2 644.711 180.2V178.2C624.44 178.2 609.111 162.175 609.111 141.85H607.111ZM644.711 180.2C658.271 180.2 669.243 173.408 675.42 163.063L673.703 162.037C667.879 171.792 657.552 178.2 644.711 178.2V180.2ZM675.002 161.652L658.502 153.552L657.621 155.348L674.121 163.448L675.002 161.652ZM657.244 153.875C654.599 157.632 650.269 159.9 644.711 159.9V161.9C650.853 161.9 655.823 159.368 658.879 155.025L657.244 153.875ZM644.711 159.9C636.938 159.9 631.745 155.423 629.614 148.746L627.709 149.354C630.078 156.777 635.984 161.9 644.711 161.9V159.9ZM628.661 150.05H676.811V148.05H628.661V150.05ZM643.961 123.8C647.944 123.8 650.919 125.002 653.093 126.988C655.283 128.988 656.743 131.859 657.537 135.323L659.486 134.877C658.63 131.141 657.015 127.862 654.442 125.512C651.854 123.147 648.378 121.8 643.961 121.8V123.8ZM658.511 134.1H628.511V136.1H658.511V134.1ZM629.481 135.343C630.34 131.909 632.006 129.032 634.405 127.015C636.796 125.006 639.974 123.8 643.961 123.8V121.8C639.548 121.8 635.902 123.144 633.118 125.485C630.342 127.818 628.483 131.091 627.541 134.857L629.481 135.343ZM51.95 226.7L52.8682 226.304L52.3091 225.008L51.2717 225.965L51.95 226.7ZM35.6 194.9V193.9H34.6V194.9H35.6ZM52.4 194.9V195.9H53.4V194.9H52.4ZM52.4 175.7H53.4V174.7H52.4V175.7ZM35.6 175.7H34.6V176.7H35.6V175.7ZM35.6 155H36.6V153.749L35.38 154.025L35.6 155ZM15.65 159.5L15.43 158.525L14.65 158.7V159.5H15.65ZM15.65 175.7V176.7H16.65V175.7H15.65ZM5.75 175.7V174.7H4.75V175.7H5.75ZM5.75 194.9H4.75V195.9H5.75V194.9ZM15.65 194.9H16.65V193.9H15.65V194.9ZM58.55 242L59.2425 242.721L59.743 242.241L59.4682 241.604L58.55 242ZM51.2717 225.965C50.433 226.739 49.1467 227.431 47.7045 227.93C46.2693 228.426 44.768 228.7 43.55 228.7V230.7C45.032 230.7 46.7557 230.374 48.358 229.82C49.9534 229.269 51.517 228.461 52.6283 227.435L51.2717 225.965ZM43.55 228.7C40.6241 228.7 39.0026 227.811 38.0419 226.385C37.0182 224.865 36.6 222.538 36.6 219.35H34.6C34.6 222.612 35.0068 225.46 36.3831 227.502C37.8224 229.639 40.1759 230.7 43.55 230.7V228.7ZM36.6 219.35V194.9H34.6V219.35H36.6ZM35.6 195.9H52.4V193.9H35.6V195.9ZM53.4 194.9V175.7H51.4V194.9H53.4ZM52.4 174.7H35.6V176.7H52.4V174.7ZM36.6 175.7V155H34.6V175.7H36.6ZM35.38 154.025L15.43 158.525L15.87 160.475L35.82 155.975L35.38 154.025ZM14.65 159.5V175.7H16.65V159.5H14.65ZM15.65 174.7H5.75V176.7H15.65V174.7ZM4.75 175.7V194.9H6.75V175.7H4.75ZM5.75 195.9H15.65V193.9H5.75V195.9ZM14.65 194.9V225.8H16.65V194.9H14.65ZM14.65 225.8C14.65 233.489 16.8455 239.521 21.1473 243.624C25.4415 247.719 31.6864 249.75 39.5 249.75V247.75C32.0136 247.75 26.3335 245.806 22.5277 242.176C18.7295 238.554 16.65 233.111 16.65 225.8H14.65ZM39.5 249.75C48.2845 249.75 55.2899 246.516 59.2425 242.721L57.8575 241.279C54.3101 244.684 47.8155 247.75 39.5 247.75V249.75ZM59.4682 241.604L52.8682 226.304L51.0318 227.096L57.6318 242.396L59.4682 241.604ZM98.1957 173.65C76.7722 173.65 60.5957 190.469 60.5957 211.85H62.5957C62.5957 191.531 77.9192 175.65 98.1957 175.65V173.65ZM60.5957 211.85C60.5957 233.225 76.767 250.2 98.1957 250.2V248.2C77.9244 248.2 62.5957 232.175 62.5957 211.85H60.5957ZM98.1957 250.2C119.624 250.2 135.796 233.225 135.796 211.85H133.796C133.796 232.175 118.467 248.2 98.1957 248.2V250.2ZM135.796 211.85C135.796 190.469 119.619 173.65 98.1957 173.65V175.65C118.472 175.65 133.796 191.531 133.796 211.85H135.796ZM98.1957 229.9C93.0713 229.9 89.0796 227.953 86.355 224.774C83.6157 221.578 82.0957 217.062 82.0957 211.85H80.0957C80.0957 217.438 81.7258 222.447 84.8364 226.076C87.9618 229.722 92.5201 231.9 98.1957 231.9V229.9ZM82.0957 211.85C82.0957 206.638 83.6157 202.122 86.355 198.926C89.0796 195.747 93.0713 193.8 98.1957 193.8V191.8C92.5201 191.8 87.9618 193.978 84.8364 197.624C81.7258 201.253 80.0957 206.262 80.0957 211.85H82.0957ZM98.1957 193.8C103.32 193.8 107.312 195.747 110.036 198.926C112.776 202.122 114.296 206.638 114.296 211.85H116.296C116.296 206.262 114.666 201.253 111.555 197.624C108.43 193.978 103.871 191.8 98.1957 191.8V193.8ZM114.296 211.85C114.296 217.062 112.776 221.578 110.036 224.774C107.312 227.953 103.32 229.9 98.1957 229.9V231.9C103.871 231.9 108.43 229.722 111.555 226.076C114.666 222.447 116.296 217.438 116.296 211.85H114.296ZM209.335 249.95L210.334 249.904L210.334 249.904L209.335 249.95ZM165.235 228.65L164.265 228.893L164.278 228.943L164.295 228.992L165.235 228.65ZM167.785 224.6V223.6H167.535L167.315 223.718L167.785 224.6ZM196.435 188.3L195.854 187.486L195.133 188.001L195.557 188.779L196.435 188.3ZM208.885 185.45L208.825 186.448L209.885 186.512V185.45H208.885ZM208.885 169.4H209.885V168.4H208.885V169.4ZM188.635 179.75L188.08 180.582L188.853 181.097L189.423 180.365L188.635 179.75ZM154.285 220.4L154.939 221.157L155.998 220.241L154.789 219.536L154.285 220.4ZM151.885 241.85L152.49 241.053L152.48 241.046L152.471 241.039L151.885 241.85ZM171.835 247.25L171.765 248.248L171.772 248.248L171.78 248.248L171.835 247.25ZM170.785 259.85L170.73 260.849L170.732 260.849L170.785 259.85ZM147.385 251.9L148.092 251.193L147.322 250.423L146.62 251.256L147.385 251.9ZM137.785 263.3L137.02 262.656L136.496 263.279L137 263.919L137.785 263.3ZM173.485 276.2L173.477 277.2L173.479 277.2L173.485 276.2ZM210.334 249.904C210.179 246.566 209.468 243.592 208.028 241.02C206.585 238.44 204.44 236.318 201.506 234.644C195.682 231.322 186.723 229.75 173.785 229.75V231.75C186.647 231.75 195.163 233.328 200.515 236.381C203.168 237.895 205.036 239.767 206.283 241.996C207.534 244.233 208.191 246.884 208.336 249.996L210.334 249.904ZM173.785 229.75C171.629 229.75 169.724 229.637 168.309 229.34C167.601 229.191 167.068 229.007 166.701 228.802C166.335 228.597 166.215 228.418 166.175 228.308L164.295 228.992C164.555 229.707 165.11 230.203 165.724 230.547C166.337 230.89 167.088 231.127 167.899 231.297C169.521 231.638 171.592 231.75 173.785 231.75V229.75ZM166.205 228.407C166.05 227.787 166.274 226.539 168.256 225.482L167.315 223.718C164.796 225.061 163.82 227.113 164.265 228.893L166.205 228.407ZM167.785 225.6C168.19 225.6 168.637 225.634 169.155 225.672C169.658 225.71 170.218 225.75 170.785 225.75V223.75C170.302 223.75 169.812 223.715 169.303 223.678C168.808 223.641 168.28 223.6 167.785 223.6V225.6ZM170.785 225.75C186.602 225.75 200.435 215.871 200.435 199.7H198.435C198.435 214.429 185.868 223.75 170.785 223.75V225.75ZM200.435 199.7C200.435 195.155 199.179 191.242 197.313 187.821L195.557 188.779C197.291 191.958 198.435 195.545 198.435 199.7H200.435ZM197.016 189.114C199.917 187.042 204.011 186.156 208.825 186.448L208.946 184.452C203.859 184.144 199.254 185.058 195.854 187.486L197.016 189.114ZM209.885 185.45V169.4H207.885V185.45H209.885ZM208.885 168.4C200.432 168.4 192.807 172.779 187.847 179.135L189.423 180.365C194.063 174.421 201.138 170.4 208.885 170.4V168.4ZM189.19 178.918C184.06 175.498 177.713 173.65 170.785 173.65V175.65C177.358 175.65 183.311 177.402 188.08 180.582L189.19 178.918ZM170.785 173.65C154.968 173.65 141.135 183.529 141.135 199.7H143.135C143.135 184.971 155.702 175.65 170.785 175.65V173.65ZM141.135 199.7C141.135 209.398 146.313 216.907 153.781 221.264L154.789 219.536C147.857 215.493 143.135 208.602 143.135 199.7H141.135ZM153.631 219.643C144.439 227.59 145.231 238.278 151.3 242.661L152.471 241.039C147.74 237.622 146.432 228.51 154.939 221.157L153.631 219.643ZM151.281 242.647C155.884 246.139 163.201 247.647 171.765 248.248L171.905 246.252C163.37 245.653 156.586 244.161 152.49 241.053L151.281 242.647ZM171.78 248.248C175.16 248.436 178.041 248.531 180.415 248.638C182.81 248.746 184.677 248.866 186.112 249.1C187.569 249.336 188.42 249.667 188.908 250.08C189.329 250.437 189.585 250.947 189.585 251.9H191.585C191.585 250.528 191.185 249.388 190.2 248.554C189.282 247.776 187.977 247.376 186.433 247.125C184.868 246.871 182.892 246.748 180.505 246.64C178.098 246.532 175.26 246.439 171.891 246.252L171.78 248.248ZM189.585 251.9C189.585 253.895 188.477 255.763 185.556 257.104C182.582 258.468 177.82 259.223 170.838 258.851L170.732 260.849C177.85 261.227 182.989 260.482 186.39 258.921C189.843 257.337 191.585 254.855 191.585 251.9H189.585ZM170.84 258.852C160 258.258 152.192 255.292 148.092 251.193L146.678 252.607C151.279 257.208 159.67 260.242 170.73 260.848L170.84 258.852ZM146.62 251.256L137.02 262.656L138.55 263.944L148.15 252.544L146.62 251.256ZM137 263.919C139.1 266.584 143.739 269.855 150.019 272.473C156.333 275.105 164.411 277.124 173.477 277.2L173.494 275.2C164.71 275.126 156.887 273.17 150.789 270.627C144.656 268.07 140.37 264.966 138.571 262.681L137 263.919ZM173.479 277.2C184.934 277.276 194.319 274.776 200.774 270.071C207.27 265.336 210.725 258.415 210.334 249.904L208.336 249.996C208.696 257.835 205.55 264.114 199.596 268.454C193.601 272.824 184.686 275.274 173.492 275.2L173.479 277.2ZM170.785 190.5C177.096 190.5 181.335 194.509 181.335 199.7H183.335C183.335 193.191 177.975 188.5 170.785 188.5V190.5ZM181.335 199.7C181.335 204.891 177.096 208.9 170.785 208.9V210.9C177.975 210.9 183.335 206.209 183.335 199.7H181.335ZM170.785 208.9C164.475 208.9 160.235 204.891 160.235 199.7H158.235C158.235 206.209 163.596 210.9 170.785 210.9V208.9ZM160.235 199.7C160.235 194.509 164.475 190.5 170.785 190.5V188.5C163.596 188.5 158.235 193.191 158.235 199.7H160.235ZM279.692 219.05V220.05H280.512L280.673 219.246L279.692 219.05ZM277.442 232.55L278.301 233.063L278.857 232.131L277.883 231.652L277.442 232.55ZM260.942 224.45L261.383 223.552L260.616 223.176L260.124 223.875L260.942 224.45ZM231.542 219.05V218.05H230.173L230.59 219.354L231.542 219.05ZM261.392 205.1V206.1H262.647L262.367 204.877L261.392 205.1ZM231.392 205.1L230.422 204.857L230.111 206.1H231.392V205.1ZM280.673 219.246C281.141 216.907 281.292 214.435 281.292 211.85H279.292C279.292 214.365 279.144 216.693 278.712 218.854L280.673 219.246ZM281.292 211.85C281.292 201.227 278.044 191.682 272.087 184.778C266.118 177.859 257.476 173.65 246.842 173.65V175.65C256.908 175.65 264.992 179.616 270.573 186.084C276.166 192.568 279.292 201.623 279.292 211.85H281.292ZM246.842 173.65C225.392 173.65 209.992 190.497 209.992 211.85H211.992C211.992 191.503 226.593 175.65 246.842 175.65V173.65ZM209.992 211.85C209.992 233.225 226.163 250.2 247.592 250.2V248.2C227.321 248.2 211.992 232.175 211.992 211.85H209.992ZM247.592 250.2C261.152 250.2 272.124 243.408 278.301 233.063L276.584 232.037C270.76 241.792 260.433 248.2 247.592 248.2V250.2ZM277.883 231.652L261.383 223.552L260.502 225.348L277.002 233.448L277.883 231.652ZM260.124 223.875C257.48 227.632 253.15 229.9 247.592 229.9V231.9C253.734 231.9 258.704 229.368 261.76 225.025L260.124 223.875ZM247.592 229.9C239.819 229.9 234.626 225.423 232.495 218.746L230.59 219.354C232.959 226.777 238.865 231.9 247.592 231.9V229.9ZM231.542 220.05H279.692V218.05H231.542V220.05ZM246.842 193.8C250.825 193.8 253.8 195.003 255.974 196.988C258.164 198.988 259.623 201.859 260.417 205.323L262.367 204.877C261.511 201.141 259.896 197.862 257.323 195.512C254.735 193.147 251.259 191.8 246.842 191.8V193.8ZM261.392 204.1H231.392V206.1H261.392V204.1ZM232.362 205.343C233.221 201.909 234.887 199.032 237.286 197.015C239.677 195.006 242.855 193.8 246.842 193.8V191.8C242.429 191.8 238.783 193.144 235.999 195.485C233.222 197.818 231.364 201.091 230.422 204.857L232.362 205.343ZM331.003 226.7L331.921 226.304L331.362 225.008L330.324 225.965L331.003 226.7ZM314.653 194.9V193.9H313.653V194.9H314.653ZM331.453 194.9V195.9H332.453V194.9H331.453ZM331.453 175.7H332.453V174.7H331.453V175.7ZM314.653 175.7H313.653V176.7H314.653V175.7ZM314.653 155H315.653V153.749L314.433 154.025L314.653 155ZM294.703 159.5L294.483 158.525L293.703 158.7V159.5H294.703ZM294.703 175.7V176.7H295.703V175.7H294.703ZM284.803 175.7V174.7H283.803V175.7H284.803ZM284.803 194.9H283.803V195.9H284.803V194.9ZM294.703 194.9H295.703V193.9H294.703V194.9ZM337.603 242L338.295 242.721L338.796 242.241L338.521 241.604L337.603 242ZM330.324 225.965C329.486 226.739 328.199 227.431 326.757 227.93C325.322 228.426 323.821 228.7 322.603 228.7V230.7C324.085 230.7 325.808 230.374 327.411 229.82C329.006 229.269 330.57 228.461 331.681 227.435L330.324 225.965ZM322.603 228.7C319.677 228.7 318.055 227.811 317.095 226.385C316.071 224.865 315.653 222.538 315.653 219.35H313.653C313.653 222.612 314.06 225.46 315.436 227.502C316.875 229.639 319.229 230.7 322.603 230.7V228.7ZM315.653 219.35V194.9H313.653V219.35H315.653ZM314.653 195.9H331.453V193.9H314.653V195.9ZM332.453 194.9V175.7H330.453V194.9H332.453ZM331.453 174.7H314.653V176.7H331.453V174.7ZM315.653 175.7V155H313.653V175.7H315.653ZM314.433 154.025L294.483 158.525L294.923 160.475L314.873 155.975L314.433 154.025ZM293.703 159.5V175.7H295.703V159.5H293.703ZM294.703 174.7H284.803V176.7H294.703V174.7ZM283.803 175.7V194.9H285.803V175.7H283.803ZM284.803 195.9H294.703V193.9H284.803V195.9ZM293.703 194.9V225.8H295.703V194.9H293.703ZM293.703 225.8C293.703 233.489 295.898 239.521 300.2 243.624C304.494 247.719 310.739 249.75 318.553 249.75V247.75C311.066 247.75 305.386 245.806 301.58 242.176C297.782 238.554 295.703 233.111 295.703 225.8H293.703ZM318.553 249.75C327.337 249.75 334.343 246.516 338.295 242.721L336.91 241.279C333.363 244.684 326.868 247.75 318.553 247.75V249.75ZM338.521 241.604L331.921 226.304L330.085 227.096L336.685 242.396L338.521 241.604ZM365.046 182H364.046V184.473L365.765 182.695L365.046 182ZM365.046 143H366.046V142H365.046V143ZM345.096 143V142H344.096V143H345.096ZM345.096 248H344.096V249H345.096V248ZM365.046 248V249H366.046V248H365.046ZM388.746 248H387.746V249H388.746V248ZM408.696 248V249H409.696V248H408.696ZM381.846 173.65C374.79 173.65 368.84 176.636 364.327 181.305L365.765 182.695C369.952 178.364 375.401 175.65 381.846 175.65V173.65ZM366.046 182V143H364.046V182H366.046ZM365.046 142H345.096V144H365.046V142ZM344.096 143V248H346.096V143H344.096ZM345.096 249H365.046V247H345.096V249ZM366.046 248V208.7H364.046V248H366.046ZM366.046 208.7C366.046 203.515 367.252 199.913 369.169 197.623C371.065 195.358 373.761 194.25 377.046 194.25V192.25C373.28 192.25 369.977 193.542 367.635 196.339C365.314 199.112 364.046 203.235 364.046 208.7H366.046ZM377.046 194.25C380.448 194.25 383.055 195.235 384.836 197.313C386.643 199.421 387.746 202.82 387.746 207.95H389.746C389.746 202.58 388.598 198.629 386.355 196.012C384.086 193.365 380.844 192.25 377.046 192.25V194.25ZM387.746 207.95V248H389.746V207.95H387.746ZM388.746 249H408.696V247H388.746V249ZM409.696 248V208.7H407.696V248H409.696ZM409.696 208.7C409.696 197.463 407.116 188.697 402.293 182.722C397.445 176.716 390.428 173.65 381.846 173.65V175.65C389.914 175.65 396.322 178.509 400.736 183.978C405.175 189.478 407.696 197.737 407.696 208.7H409.696ZM486.382 219.05V220.05H487.201L487.362 219.246L486.382 219.05ZM484.132 232.55L484.99 233.063L485.547 232.131L484.572 231.652L484.132 232.55ZM467.632 224.45L468.072 223.552L467.305 223.176L466.814 223.875L467.632 224.45ZM438.232 219.05V218.05H436.863L437.279 219.354L438.232 219.05ZM468.082 205.1V206.1H469.337L469.056 204.877L468.082 205.1ZM438.082 205.1L437.112 204.857L436.801 206.1H438.082V205.1ZM487.362 219.246C487.83 216.907 487.982 214.435 487.982 211.85H485.982C485.982 214.365 485.833 216.693 485.401 218.854L487.362 219.246ZM487.982 211.85C487.982 201.227 484.733 191.682 478.776 184.778C472.807 177.859 464.166 173.65 453.532 173.65V175.65C463.597 175.65 471.681 179.616 477.262 186.084C482.855 192.568 485.982 201.623 485.982 211.85H487.982ZM453.532 173.65C432.081 173.65 416.682 190.497 416.682 211.85H418.682C418.682 191.503 433.282 175.65 453.532 175.65V173.65ZM416.682 211.85C416.682 233.225 432.853 250.2 454.282 250.2V248.2C434.01 248.2 418.682 232.175 418.682 211.85H416.682ZM454.282 250.2C467.841 250.2 478.814 243.408 484.99 233.063L483.273 232.037C477.45 241.792 467.122 248.2 454.282 248.2V250.2ZM484.572 231.652L468.072 223.552L467.191 225.348L483.691 233.448L484.572 231.652ZM466.814 223.875C464.17 227.632 459.84 229.9 454.282 229.9V231.9C460.424 231.9 465.394 229.368 468.449 225.025L466.814 223.875ZM454.282 229.9C446.509 229.9 441.315 225.423 439.184 218.746L437.279 219.354C439.648 226.777 445.555 231.9 454.282 231.9V229.9ZM438.232 220.05H486.382V218.05H438.232V220.05ZM453.532 193.8C457.515 193.8 460.489 195.003 462.663 196.988C464.853 198.988 466.313 201.859 467.107 205.323L469.056 204.877C468.2 201.141 466.585 197.862 464.012 195.512C461.424 193.147 457.949 191.8 453.532 191.8V193.8ZM468.082 204.1H438.082V206.1H468.082V204.1ZM439.052 205.343C439.91 201.909 441.576 199.032 443.975 197.015C446.366 195.006 449.545 193.8 453.532 193.8V191.8C449.119 191.8 445.472 193.144 442.688 195.485C439.912 197.818 438.053 201.091 437.112 204.857L439.052 205.343ZM515.925 182H514.925V184.473L516.644 182.695L515.925 182ZM515.925 175.7H516.925V174.7H515.925V175.7ZM495.975 175.7V174.7H494.975V175.7H495.975ZM495.975 248H494.975V249H495.975V248ZM515.925 248V249H516.925V248H515.925ZM534.675 195.05L534.12 195.882L535.378 196.721L535.657 195.235L534.675 195.05ZM538.425 175.1L539.407 175.285L539.596 174.281L538.589 174.114L538.425 175.1ZM532.725 173.65C525.669 173.65 519.719 176.636 515.206 181.305L516.644 182.695C520.831 178.364 526.28 175.65 532.725 175.65V173.65ZM516.925 182V175.7H514.925V182H516.925ZM515.925 174.7H495.975V176.7H515.925V174.7ZM494.975 175.7V248H496.975V175.7H494.975ZM495.975 249H515.925V247H495.975V249ZM516.925 248V208.7H514.925V248H516.925ZM516.925 208.7C516.925 203.515 518.131 199.913 520.048 197.623C521.943 195.358 524.64 194.25 527.925 194.25V192.25C524.159 192.25 520.856 193.542 518.514 196.339C516.193 199.112 514.925 203.235 514.925 208.7H516.925ZM527.925 194.25C530.476 194.25 532.521 194.816 534.12 195.882L535.229 194.218C533.228 192.884 530.773 192.25 527.925 192.25V194.25ZM535.657 195.235L539.407 175.285L537.442 174.915L533.692 194.865L535.657 195.235ZM538.589 174.114C536.729 173.804 534.724 173.65 532.725 173.65V175.65C534.625 175.65 536.52 175.796 538.26 176.086L538.589 174.114Z" fill="white" fill-opacity="0.5"/>
</g>
<g filter="url(#filter1_d)">
<path d="M41.3 86.95L21.95 106H76.25V86.95H41.3ZM33.2 32.65H13.25V92.8L33.2 73V32.65ZM33.2 0.999993H13.25V17.95H33.2V0.999993ZM149.468 77.05C149.918 74.8 150.068 72.4 150.068 69.85C150.068 49 137.318 32.65 116.618 32.65C95.7676 32.65 80.7676 49 80.7676 69.85C80.7676 90.7 96.5176 107.2 117.368 107.2C130.568 107.2 141.218 100.6 147.218 90.55L130.718 82.45C127.868 86.5 123.218 88.9 117.368 88.9C109.118 88.9 103.568 84.1 101.318 77.05H149.468ZM116.618 50.8C125.018 50.8 129.518 55.9 131.168 63.1H101.168C102.968 55.9 108.218 50.8 116.618 50.8ZM200.778 84.7C198.828 86.5 195.078 87.7 192.378 87.7C186.078 87.7 184.428 83.8 184.428 77.35V52.9H201.228V33.7H184.428V13L164.478 17.5V33.7H154.578V52.9H164.478V83.8C164.478 98.8 173.028 106.75 188.328 106.75C196.878 106.75 203.628 103.6 207.378 100L200.778 84.7ZM207.4 0.0999955L210.85 25.3H220.75L224.35 0.0999955H207.4ZM259.122 61.75C247.722 58.3 245.622 56.5 245.472 53.8C245.322 51.85 247.272 48.1 254.922 48.7C260.472 49.15 262.872 52.6 263.622 55L278.922 50.65C277.872 44.05 269.622 32.8 252.222 32.8C233.472 32.8 225.372 43.3 224.922 53.35C224.472 65.2 231.372 70.6 247.122 76.15C257.172 79.6 260.622 80.05 260.772 84.1C260.922 88 254.922 89.35 249.522 89.05C244.422 88.75 238.122 85.75 236.622 82L222.072 89.8C224.472 98.65 237.822 107.05 252.972 107.05C269.622 107.05 281.322 98.2 281.772 85.15C282.222 74.2 276.072 67 259.122 61.75ZM405.196 32.65C396.946 32.65 389.596 36.1 384.346 41.95C380.146 35.8 373.696 32.65 365.146 32.65C358.396 32.65 352.696 35.5 348.346 40V33.7H328.396V106H348.346V66.7C348.346 56.65 352.396 51.25 359.446 51.25C366.646 51.25 370.246 56.5 370.246 65.95V106H390.196V66.7C390.196 56.65 394.096 51.25 401.296 51.25C408.496 51.25 412.096 56.5 412.096 65.95V106H432.046V66.7C432.046 44.5 421.846 32.65 405.196 32.65ZM475.337 32.65C457.337 32.65 446.687 44.5 445.337 53.95L461.987 57.55C463.187 52 467.837 49.15 473.987 49C481.037 48.7 485.687 53.2 484.637 57.55C483.737 61.6 478.637 61.6 466.487 64.3C451.187 67.6 440.387 73.15 440.387 88.9C440.987 99.85 448.787 107.2 462.887 107.2C475.187 107.2 482.387 101.95 485.087 99.25V106H504.887V60.85C504.887 39.85 491.087 32.65 475.337 32.65ZM485.087 76.45C484.487 84.4 478.937 90.55 471.137 91.75C466.637 92.5 462.137 91.6 460.937 88.3C459.587 84.7 461.687 79.9 469.037 77.95C478.487 75.55 485.087 74.2 485.087 74.2V76.45ZM562.972 106H585.772L561.022 69.85L584.722 33.7H562.222L544.822 60.4H536.872V0.999993H516.922V106H536.872V79.45H545.122L562.972 106ZM652.934 77.05C653.384 74.8 653.534 72.4 653.534 69.85C653.534 49 640.784 32.65 620.084 32.65C599.234 32.65 584.234 49 584.234 69.85C584.234 90.7 599.984 107.2 620.834 107.2C634.034 107.2 644.684 100.6 650.684 90.55L634.184 82.45C631.334 86.5 626.684 88.9 620.834 88.9C612.584 88.9 607.034 84.1 604.784 77.05H652.934ZM620.084 50.8C628.484 50.8 632.984 55.9 634.634 63.1H604.634C606.434 55.9 611.684 50.8 620.084 50.8Z" fill="black" fill-opacity="0.2"/>
</g>
<defs>
<filter id="filter0_d" x="0.75" y="72.3" width="681.661" height="212.902" filterUnits="userSpaceOnUse" color-interpolation-filters="sRGB">
<feFlood flood-opacity="0" result="BackgroundImageFix"/>
<feColorMatrix in="SourceAlpha" type="matrix" values="0 0 0 0 0 0 0 0 0 0 0 0 0 0 0 0 0 0 127 0"/>
<feOffset dy="4"/>
<feGaussianBlur stdDeviation="2"/>
<feColorMatrix type="matrix" values="0 0 0 0 0 0 0 0 0 0 0 0 0 0 0 0 0 0 0.25 0"/>
<feBlend mode="normal" in2="BackgroundImageFix" result="effect1_dropShadow"/>
<feBlend mode="normal" in="SourceGraphic" in2="effect1_dropShadow" result="shape"/>
</filter>
<filter id="filter1_d" x="9.25" y="0.0999756" width="648.284" height="115.1" filterUnits="userSpaceOnUse" color-interpolation-filters="sRGB">
<feFlood flood-opacity="0" result="BackgroundImageFix"/>
<feColorMatrix in="SourceAlpha" type="matrix" values="0 0 0 0 0 0 0 0 0 0 0 0 0 0 0 0 0 0 127 0"/>
<feOffset dy="4"/>
<feGaussianBlur stdDeviation="2"/>
<feColorMatrix type="matrix" values="0 0 0 0 0 0 0 0 0 0 0 0 0 0 0 0 0 0 0.25 0"/>
<feBlend mode="normal" in2="BackgroundImageFix" result="effect1_dropShadow"/>
<feBlend mode="normal" in="SourceGraphic" in2="effect1_dropShadow" result="shape"/>
</filter>
</defs>
</svg>
