<svg width="191" height="113" viewBox="0 0 191 113"  xmlns="http://www.w3.org/2000/svg">
<path d="M19.3229 27.04V20.344H37.1969V20.722C37.1969 23.206 36.7289 25.888 35.7929 28.768C34.8569 31.612 33.4709 33.988 31.6349 35.896C28.5029 39.172 24.2189 40.81 18.7829 40.81C16.2269 40.81 13.8689 40.468 11.7089 39.784C9.54888 39.1 7.51488 37.768 5.60688 35.788C2.07888 32.152 0.314875 27.58 0.314875 22.072C0.314875 16.492 2.04288 11.938 5.49888 8.41C8.88288 4.918 13.5989 3.172 19.6469 3.172C23.6429 3.172 27.0089 4.072 29.7449 5.872C32.0849 7.42 34.0289 9.562 35.5769 12.298L28.0709 16.348C27.2429 14.692 26.1809 13.396 24.8849 12.46C23.3009 11.308 21.4649 10.732 19.3769 10.732C16.2449 10.732 13.7609 11.704 11.9249 13.648C9.87288 15.808 8.84688 18.652 8.84688 22.18C8.84688 25.672 9.85488 28.426 11.8709 30.442C13.7069 32.314 16.1369 33.25 19.1609 33.25C21.8249 33.25 23.9129 32.602 25.4249 31.306C26.6489 30.334 27.5129 28.912 28.0169 27.04H19.3229ZM42.4674 40V15.916H50.2434V19.696C50.9994 18.22 52.0074 17.104 53.2674 16.348C54.3474 15.664 55.7334 15.322 57.4254 15.322C58.3254 15.322 59.1714 15.448 59.9634 15.7L59.5314 22.99C58.4514 22.414 57.2814 22.126 56.0214 22.126C54.4374 22.126 53.1414 22.666 52.1334 23.746C50.8734 25.078 50.2434 27.238 50.2434 30.226V40H42.4674ZM80.869 18.616V15.916H88.645V40H80.869V37.084C79.249 39.568 76.873 40.81 73.741 40.81C70.033 40.81 67.027 39.586 64.723 37.138C62.383 34.654 61.213 31.648 61.213 28.12C61.213 24.124 62.455 20.884 64.939 18.4C67.135 16.204 69.925 15.106 73.309 15.106C76.621 15.106 79.141 16.276 80.869 18.616ZM75.253 21.802C73.561 21.802 72.139 22.378 70.987 23.53C69.799 24.718 69.205 26.176 69.205 27.904C69.205 29.632 69.745 31.072 70.825 32.224C72.013 33.484 73.543 34.114 75.415 34.114C76.999 34.114 78.349 33.556 79.465 32.44C80.725 31.252 81.355 29.74 81.355 27.904C81.355 26.068 80.761 24.592 79.573 23.476C78.421 22.36 76.981 21.802 75.253 21.802ZM102.45 37.246V52.366H94.6744V15.916H102.45V18.778C104.322 16.33 106.824 15.106 109.956 15.106C113.376 15.106 116.22 16.24 118.488 18.508C120.9 20.92 122.106 24.052 122.106 27.904C122.106 31.792 120.828 35.014 118.272 37.57C116.112 39.73 113.394 40.81 110.118 40.81C106.698 40.81 104.142 39.622 102.45 37.246ZM108.066 21.802C106.374 21.802 104.934 22.396 103.746 23.584C102.522 24.808 101.91 26.284 101.91 28.012C101.91 29.632 102.486 31.054 103.638 32.278C104.862 33.502 106.338 34.114 108.066 34.114C109.65 34.114 111.036 33.556 112.224 32.44C113.484 31.252 114.114 29.722 114.114 27.85C114.114 26.086 113.502 24.628 112.278 23.476C111.09 22.36 109.686 21.802 108.066 21.802ZM127.164 40V0.633998H134.94V18.778C135.84 17.662 136.812 16.834 137.856 16.294C139.152 15.61 140.718 15.268 142.554 15.268C145.506 15.268 147.774 16.078 149.358 17.698C150.942 19.282 151.734 21.622 151.734 24.718V40H143.958V27.634C143.958 25.258 143.526 23.656 142.662 22.828C141.942 22.108 140.934 21.748 139.638 21.748C138.378 21.748 137.352 22.144 136.56 22.936C135.48 23.98 134.94 25.654 134.94 27.958V40H127.164ZM158.337 15.916H166.113V40H158.337V15.916ZM158.985 8.896C158.121 7.996 157.689 6.916 157.689 5.656C157.689 4.396 158.121 3.334 158.985 2.47C159.885 1.57 160.965 1.12 162.225 1.12C163.485 1.12 164.547 1.57 165.411 2.47C166.311 3.334 166.761 4.396 166.761 5.656C166.761 6.916 166.311 7.996 165.411 8.896C164.547 9.76 163.485 10.192 162.225 10.192C160.965 10.192 159.885 9.76 158.985 8.896ZM190.811 16.456V23.53C189.335 22.306 187.643 21.694 185.735 21.694C183.935 21.694 182.459 22.27 181.307 23.422C180.119 24.61 179.525 26.122 179.525 27.958C179.525 29.686 180.065 31.126 181.145 32.278C182.333 33.574 183.899 34.222 185.843 34.222C187.679 34.222 189.335 33.592 190.811 32.332V39.352C189.047 40.324 186.995 40.81 184.655 40.81C180.911 40.81 177.797 39.604 175.313 37.192C172.793 34.744 171.533 31.684 171.533 28.012C171.533 24.196 172.865 21.028 175.529 18.508C177.941 16.24 181.001 15.106 184.709 15.106C186.869 15.106 188.903 15.556 190.811 16.456ZM43.2143 60.634V100H35.4383V97.084C33.7463 99.568 31.2083 100.81 27.8243 100.81C24.4403 100.81 21.6863 99.712 19.5623 97.516C17.0423 94.996 15.7823 91.774 15.7823 87.85C15.7823 83.926 17.0423 80.758 19.5623 78.346C21.8303 76.186 24.6203 75.106 27.9323 75.106C31.2083 75.106 33.7103 76.276 35.4383 78.616V60.634H43.2143ZM29.8223 81.802C28.1663 81.802 26.7803 82.342 25.6643 83.422C24.4043 84.61 23.7743 86.14 23.7743 88.012C23.7743 89.776 24.4043 91.252 25.6643 92.44C26.8163 93.556 28.1663 94.114 29.7143 94.114C31.4423 94.114 32.9183 93.52 34.1423 92.332C35.3303 91.216 35.9243 89.776 35.9243 88.012C35.9243 86.284 35.3483 84.808 34.1963 83.584C33.0443 82.396 31.5863 81.802 29.8223 81.802ZM56.4207 84.664H66.9507C66.6627 83.512 66.1407 82.576 65.3847 81.856C64.4127 80.956 63.1887 80.506 61.7127 80.506C60.1287 80.506 58.8147 81.028 57.7707 82.072C57.0507 82.828 56.6007 83.692 56.4207 84.664ZM74.1327 88.498V89.308H56.1507C56.1507 90.964 56.6367 92.332 57.6087 93.412C58.5447 94.42 59.8767 94.924 61.6047 94.924C62.9007 94.924 63.9447 94.69 64.7367 94.222C65.3487 93.898 65.9067 93.232 66.4107 92.224L73.7547 92.98C72.9267 95.608 71.3787 97.624 69.1107 99.028C67.1307 100.216 64.5927 100.81 61.4967 100.81C57.3927 100.81 54.1887 99.658 51.8847 97.354C49.4727 94.942 48.2667 91.846 48.2667 88.066C48.2667 84.25 49.4907 81.082 51.9387 78.562C54.2427 76.258 57.3207 75.106 61.1727 75.106C65.2407 75.106 68.4267 76.312 70.7307 78.724C72.9987 81.136 74.1327 84.394 74.1327 88.498ZM96.8059 77.158L93.7279 82.072C92.2159 81.172 90.7939 80.722 89.4619 80.722C88.4539 80.722 87.7159 80.956 87.2479 81.424C86.9239 81.748 86.7619 82.108 86.7619 82.504C86.7619 82.936 87.0139 83.296 87.5179 83.584C87.5899 83.656 88.3639 83.926 89.8399 84.394L91.8919 85.042C93.6199 85.582 94.9519 86.284 95.8879 87.148C97.1479 88.3 97.7779 89.83 97.7779 91.738C97.7779 94.294 96.9499 96.4 95.2939 98.056C93.4579 99.892 90.8479 100.81 87.4639 100.81C83.5039 100.81 80.2099 99.658 77.5819 97.354L80.8759 92.116C81.8119 92.908 82.6939 93.502 83.5219 93.898C84.5299 94.402 85.6099 94.654 86.7619 94.654C87.9139 94.654 88.7239 94.474 89.1919 94.114C89.7319 93.682 90.0019 93.16 90.0019 92.548C90.0019 91.972 89.7139 91.504 89.1379 91.144C88.7419 90.892 87.9499 90.604 86.7619 90.28L84.8179 89.686C83.1979 89.182 81.9019 88.444 80.9299 87.472C79.7779 86.248 79.2019 84.79 79.2019 83.098C79.2019 80.83 79.9759 78.976 81.5239 77.536C83.2879 75.916 85.7179 75.106 88.8139 75.106C91.8019 75.106 94.4659 75.79 96.8059 77.158ZM102.94 75.916H110.716V100H102.94V75.916ZM103.588 68.896C102.724 67.996 102.292 66.916 102.292 65.656C102.292 64.396 102.724 63.334 103.588 62.47C104.488 61.57 105.568 61.12 106.828 61.12C108.088 61.12 109.15 61.57 110.014 62.47C110.914 63.334 111.364 64.396 111.364 65.656C111.364 66.916 110.914 67.996 110.014 68.896C109.15 69.76 108.088 70.192 106.828 70.192C105.568 70.192 104.488 69.76 103.588 68.896ZM135.63 78.724V75.916H143.406V98.542C143.406 99.982 143.352 101.17 143.244 102.106C143.172 103.078 142.902 104.194 142.434 105.454C141.966 106.75 141.3 107.866 140.436 108.802C138.204 111.178 134.82 112.366 130.284 112.366C125.964 112.366 122.616 111.34 120.24 109.288C118.296 107.632 117.09 105.508 116.622 102.916H125.1C125.352 103.888 125.928 104.68 126.828 105.292C127.656 105.832 128.772 106.102 130.176 106.102C131.796 106.102 133.092 105.67 134.064 104.806C135.108 103.798 135.63 102.124 135.63 99.784V97.03C134.154 99.442 131.76 100.648 128.448 100.648C124.848 100.648 121.914 99.514 119.646 97.246C117.306 94.834 116.136 91.81 116.136 88.174C116.136 84.214 117.324 81.01 119.7 78.562C121.932 76.258 124.848 75.106 128.448 75.106C131.616 75.106 134.01 76.312 135.63 78.724ZM130.23 81.856C128.502 81.856 127.08 82.378 125.964 83.422C124.74 84.574 124.128 86.068 124.128 87.904C124.128 89.596 124.686 91.036 125.802 92.224C126.882 93.376 128.34 93.952 130.176 93.952C131.868 93.952 133.272 93.43 134.388 92.386C135.648 91.198 136.278 89.668 136.278 87.796C136.278 85.996 135.666 84.52 134.442 83.368C133.326 82.36 131.922 81.856 130.23 81.856ZM149.439 100V75.916H157.215V78.778C159.051 76.438 161.535 75.268 164.667 75.268C167.655 75.268 169.959 76.078 171.579 77.698C173.199 79.318 174.009 81.676 174.009 84.772V100H166.233V87.634C166.233 85.294 165.801 83.692 164.937 82.828C164.217 82.108 163.227 81.748 161.967 81.748C160.599 81.748 159.519 82.18 158.727 83.044C157.719 84.052 157.215 85.582 157.215 87.634V100H149.439Z" />
</svg>
