<svg width="66" height="84" viewBox="0 0 66 84" fill="none" xmlns="http://www.w3.org/2000/svg">
<path d="M64.08 67.4H65.08V66.4H64.08V67.4ZM64.08 83V84H65.08V83H64.08ZM2.88 83L2.14313 82.324L0.605484 84H2.88V83ZM26.88 56.84L27.6169 57.516L27.6219 57.5105L27.6269 57.5049L26.88 56.84ZM39.96 40.52L40.792 41.0747L40.8002 41.0625L40.808 41.05L39.96 40.52ZM41.64 19.04L42.3183 18.3052L42.3109 18.2985L41.64 19.04ZM27 19.64L26.2628 18.9643L26.2579 18.9697L27 19.64ZM23.64 29.48V30.48H24.64V29.48H23.64ZM5.16 29.48L4.16372 29.3938L4.06972 30.48H5.16V29.48ZM13.44 9.43999L14.1641 10.1297L14.1679 10.1257L13.44 9.43999ZM56.28 8.72L56.9871 8.01289L56.9789 8.00467L56.9705 7.99664L56.28 8.72ZM57.72 45.56L58.5337 46.1412L57.72 45.56ZM44.88 59.36L44.192 58.6343L44.1885 58.6376L44.88 59.36ZM36.48 67.4L35.7885 66.6776L33.989 68.4H36.48V67.4ZM63.08 67.4V83H65.08V67.4H63.08ZM64.08 82H2.88V84H64.08V82ZM3.61687 83.676L27.6169 57.516L26.1431 56.164L2.14313 82.324L3.61687 83.676ZM27.6269 57.5049C33.4798 50.9304 37.8747 45.4508 40.792 41.0747L39.1279 39.9653C36.2853 44.2292 31.9602 49.6296 26.1331 56.1751L27.6269 57.5049ZM40.808 41.05C44.0578 35.8503 45.76 31.1429 45.76 26.96H43.76C43.76 30.6171 42.2622 34.9497 39.112 39.99L40.808 41.05ZM45.76 26.96C45.76 23.3777 44.6417 20.4499 42.3183 18.3052L40.9617 19.7748C42.7983 21.4701 43.76 23.8223 43.76 26.96H45.76ZM42.3109 18.2985C40.3834 16.5545 37.666 15.76 34.32 15.76V17.76C37.374 17.76 39.5366 18.4855 40.9691 19.7815L42.3109 18.2985ZM34.32 15.76C30.9799 15.76 28.2495 16.7971 26.2628 18.9643L27.7372 20.3157C29.2705 18.6429 31.4201 17.76 34.32 17.76V15.76ZM26.2579 18.9697C23.8171 21.672 22.64 25.2097 22.64 29.48H24.64C24.64 25.5903 25.7029 22.568 27.7421 20.3103L26.2579 18.9697ZM23.64 28.48H5.16V30.48H23.64V28.48ZM6.15628 29.5662C6.86076 21.4255 9.55036 14.9741 14.1641 10.1297L12.7159 8.75034C7.72964 13.9859 4.89924 20.8944 4.16372 29.3938L6.15628 29.5662ZM14.1679 10.1257C19.1331 4.85497 26.2006 2.16 35.52 2.16V0.159996C25.7994 0.159996 18.1469 2.98502 12.7121 8.7543L14.1679 10.1257ZM35.52 2.16C43.8704 2.16 50.5273 4.61124 55.5895 9.44335L56.9705 7.99664C51.4727 2.74875 44.2896 0.159996 35.52 0.159996V2.16ZM55.5729 9.4271C60.3225 14.1767 62.72 20.3111 62.72 27.92H64.72C64.72 19.8489 62.1575 13.1833 56.9871 8.01289L55.5729 9.4271ZM62.72 27.92C62.72 33.8474 60.8 39.5276 56.9063 44.9788L58.5337 46.1412C62.64 40.3924 64.72 34.3126 64.72 27.92H62.72ZM56.9063 44.9788C54.5649 48.2567 50.3434 52.8024 44.192 58.6343L45.568 60.0857C51.7366 54.2376 56.0751 49.5833 58.5337 46.1412L56.9063 44.9788ZM44.1885 58.6376L35.7885 66.6776L37.1715 68.1224L45.5715 60.0824L44.1885 58.6376ZM36.48 68.4H64.08V66.4H36.48V68.4Z" fill="white"/>
</svg>
