<svg width="33" height="83" viewBox="0 0 33 83" fill="none" xmlns="http://www.w3.org/2000/svg">
<path d="M12.72 82H11.72V83H12.72V82ZM12.72 17.56H13.72V16.56H12.72V17.56ZM1.32 17.56H0.320001V18.56H1.32V17.56ZM1.32 1.95999V0.959993H0.320001V1.95999H1.32ZM31.2 1.95999H32.2V0.959993H31.2V1.95999ZM31.2 82V83H32.2V82H31.2ZM13.72 82V17.56H11.72V82H13.72ZM12.72 16.56H1.32V18.56H12.72V16.56ZM2.32 17.56V1.95999H0.320001V17.56H2.32ZM1.32 2.95999H31.2V0.959993H1.32V2.95999ZM30.2 1.95999V82H32.2V1.95999H30.2ZM31.2 81H12.72V83H31.2V81Z" fill="white"/>
</svg>
