<svg width="65" height="86" viewBox="0 0 65 86" fill="none" xmlns="http://www.w3.org/2000/svg">
<path d="M22.16 26.96V27.96H23.1088L23.1586 27.0126L22.16 26.96ZM4.4 26.96L3.40573 26.8531L3.28671 27.96H4.4V26.96ZM12.32 8.84L11.6016 8.14438L11.6006 8.1454L12.32 8.84ZM53.6 8.35999L52.8929 9.0671L52.9 9.07417L52.9072 9.0811L53.6 8.35999ZM56.48 35.6L55.6722 35.0105L55.6671 35.0175L55.6622 35.0245L56.48 35.6ZM50.48 40.64L50.0444 39.7398L47.9041 40.7755L50.1413 41.5809L50.48 40.64ZM59.6 47.12L58.7893 47.7055L58.7954 47.7139L59.6 47.12ZM55.28 77.96L55.9515 78.701L55.9532 78.6994L55.28 77.96ZM10.76 76.64L10.0474 77.3416L10.0529 77.3471L10.76 76.64ZM1.88 56.84V55.84H0.775012L0.884963 56.9395L1.88 56.84ZM20.36 56.84L21.3564 56.7552L21.2785 55.84H20.36V56.84ZM24.2 65.84L23.4929 66.5471L24.2 65.84ZM41.12 66.32L41.7971 67.0559L41.7994 67.0538L41.12 66.32ZM40.88 50.48L41.5176 49.7096L41.5059 49.6999L41.4939 49.6906L40.88 50.48ZM29.6 47.96H28.6V48.96H29.6V47.96ZM29.6 35.24V34.24H28.6V35.24H29.6ZM38.72 32.96L39.3569 33.731L39.3632 33.7257L38.72 32.96ZM39.08 19.28L39.7527 18.5401L39.08 19.28ZM25.04 19.52L24.3329 18.8129L24.3175 18.8283L24.3028 18.8443L25.04 19.52ZM22.16 25.96H4.4V27.96H22.16V25.96ZM5.39427 27.0669C6.17448 19.811 8.73776 13.9899 13.0394 9.53459L11.6006 8.1454C6.94224 12.9701 4.22552 19.229 3.40573 26.8531L5.39427 27.0669ZM13.0384 9.53561C17.6881 4.73349 24.1639 2.27999 32.6 2.27999V0.279993C23.7561 0.279993 16.7119 2.8665 11.6016 8.14438L13.0384 9.53561ZM32.6 2.27999C41.7201 2.27999 48.4237 4.59788 52.8929 9.0671L54.3071 7.65289C49.3363 2.68211 42.0399 0.279993 32.6 0.279993V2.27999ZM52.9072 9.0811C56.7474 12.7707 58.72 17.9252 58.72 24.68H60.72C60.72 17.5148 58.6126 11.7893 54.2928 7.63889L52.9072 9.0811ZM58.72 24.68C58.72 28.8272 57.6861 32.2508 55.6722 35.0105L57.2878 36.1895C59.5939 33.0292 60.72 29.1728 60.72 24.68H58.72ZM55.6622 35.0245C54.2443 37.0395 52.3784 38.6105 50.0444 39.7398L50.9156 41.5402C53.5416 40.2695 55.6758 38.4805 57.2978 36.1755L55.6622 35.0245ZM50.1413 41.5809C53.9897 42.9663 56.8489 45.0187 58.7893 47.7055L60.4107 46.5345C58.1911 43.4613 54.9703 41.1937 50.8187 39.6991L50.1413 41.5809ZM58.7954 47.7139C61.124 50.8687 62.32 54.8484 62.32 59.72H64.32C64.32 54.5116 63.036 50.0913 60.4046 46.5261L58.7954 47.7139ZM62.32 59.72C62.32 66.7199 59.7576 72.531 54.6068 77.2206L55.9532 78.6994C61.5224 73.629 64.32 67.2801 64.32 59.72H62.32ZM54.6085 77.219C49.7217 81.6476 42.9475 83.92 34.16 83.92V85.92C43.2925 85.92 50.5983 83.5524 55.9515 78.701L54.6085 77.219ZM34.16 83.92C24.2645 83.92 16.7493 81.2151 11.4671 75.9329L10.0529 77.3471C15.8107 83.1049 23.8955 85.92 34.16 85.92V83.92ZM11.4726 75.9384C6.52918 70.9178 3.65479 64.538 2.87504 56.7405L0.884963 56.9395C1.70521 65.142 4.75082 71.9622 10.0474 77.3416L11.4726 75.9384ZM1.88 57.84H20.36V55.84H1.88V57.84ZM19.3636 56.9248C19.6996 60.8728 21.0555 64.1097 23.4929 66.5471L24.9071 65.1329C22.8645 63.0903 21.6604 60.3272 21.3564 56.7552L19.3636 56.9248ZM23.4929 66.5471C25.8819 68.9361 29.1198 70.08 33.08 70.08V68.08C29.5202 68.08 26.8381 67.0639 24.9071 65.1329L23.4929 66.5471ZM33.08 70.08C36.6288 70.08 39.5714 69.1035 41.7971 67.0559L40.4429 65.5841C38.6686 67.2165 36.2512 68.08 33.08 68.08V70.08ZM41.7994 67.0538C44.1986 64.8322 45.36 61.8272 45.36 58.16H43.36C43.36 61.3727 42.3614 63.8077 40.4406 65.5862L41.7994 67.0538ZM45.36 58.16C45.36 54.6834 44.0831 51.8328 41.5176 49.7096L40.2424 51.2504C42.3169 52.9672 43.36 55.2366 43.36 58.16H45.36ZM41.4939 49.6906C39.08 47.8131 35.5369 46.96 31.04 46.96V48.96C35.3431 48.96 38.36 49.7868 40.2661 51.2693L41.4939 49.6906ZM31.04 46.96H29.6V48.96H31.04V46.96ZM30.6 47.96V35.24H28.6V47.96H30.6ZM29.6 36.24H30.68V34.24H29.6V36.24ZM30.68 36.24C34.3256 36.24 37.2697 35.4552 39.3569 33.731L38.0831 32.189C36.4903 33.5048 34.0744 34.24 30.68 34.24V36.24ZM39.3632 33.7257C41.6338 31.8184 42.72 29.112 42.72 25.76H40.72C40.72 28.648 39.8062 30.7416 38.0768 32.1943L39.3632 33.7257ZM42.72 25.76C42.72 22.8029 41.752 20.3576 39.7527 18.5401L38.4073 20.0199C39.928 21.4023 40.72 23.2771 40.72 25.76H42.72ZM39.7527 18.5401C37.7767 16.7437 35.242 15.88 32.24 15.88V17.88C34.838 17.88 36.8633 18.6163 38.4073 20.0199L39.7527 18.5401ZM32.24 15.88C28.9973 15.88 26.3204 16.8254 24.3329 18.8129L25.7471 20.2271C27.2796 18.6946 29.4027 17.88 32.24 17.88V15.88ZM24.3028 18.8443C22.3603 20.9634 21.3314 23.6767 21.1614 26.9074L23.1586 27.0126C23.3086 24.1633 24.1997 21.9166 25.7772 20.1957L24.3028 18.8443Z" fill="white"/>
</svg>
