<svg width="69" height="83" viewBox="0 0 69 83" fill="none" xmlns="http://www.w3.org/2000/svg">
<path d="M58.16 1.95999V52.24H67.76V66.88H58.16V82H40.4V66.88H1.28V56.32L36.56 1.95999H58.16ZM20.72 52.24H40.4V21.16L20.72 52.24Z" fill="white"/>
<path d="M58.16 1.95999H59.16V0.959993H58.16V1.95999ZM58.16 52.24H57.16V53.24H58.16V52.24ZM67.76 52.24H68.76V51.24H67.76V52.24ZM67.76 66.88V67.88H68.76V66.88H67.76ZM58.16 66.88V65.88H57.16V66.88H58.16ZM58.16 82V83H59.16V82H58.16ZM40.4 82H39.4V83H40.4V82ZM40.4 66.88H41.4V65.88H40.4V66.88ZM1.28 66.88H0.28V67.88H1.28V66.88ZM1.28 56.32L0.441176 55.7756L0.28 56.0239V56.32H1.28ZM36.56 1.95999V0.959993H36.0169L35.7212 1.41559L36.56 1.95999ZM20.72 52.24L19.8751 51.705L18.9032 53.24H20.72V52.24ZM40.4 52.24V53.24H41.4V52.24H40.4ZM40.4 21.16H41.4V17.7115L39.5551 20.625L40.4 21.16ZM57.16 1.95999V52.24H59.16V1.95999H57.16ZM58.16 53.24H67.76V51.24H58.16V53.24ZM66.76 52.24V66.88H68.76V52.24H66.76ZM67.76 65.88H58.16V67.88H67.76V65.88ZM57.16 66.88V82H59.16V66.88H57.16ZM58.16 81H40.4V83H58.16V81ZM41.4 82V66.88H39.4V82H41.4ZM40.4 65.88H1.28V67.88H40.4V65.88ZM2.28 66.88V56.32H0.28V66.88H2.28ZM2.11882 56.8644L37.3988 2.5044L35.7212 1.41559L0.441176 55.7756L2.11882 56.8644ZM36.56 2.95999H58.16V0.959993H36.56V2.95999ZM20.72 53.24H40.4V51.24H20.72V53.24ZM41.4 52.24V21.16H39.4V52.24H41.4ZM39.5551 20.625L19.8751 51.705L21.5649 52.775L41.2449 21.695L39.5551 20.625Z" fill="white"/>
</svg>
