<svg width="45" height="45" viewBox="0 0 45 45" fill="none" xmlns="http://www.w3.org/2000/svg">
<path d="M32.5812 0H12.418C5.57073 0 0 5.571 0 12.4183V32.5814C0 39.429 5.57073 44.9997 12.418 44.9997H32.5812C39.429 44.9997 44.9997 39.4287 44.9997 32.5814V12.4183C45 5.571 39.429 0 32.5812 0ZM41.0074 32.5814C41.0074 37.2275 37.2275 41.0071 32.5814 41.0071H12.418C7.77225 41.0074 3.99259 37.2275 3.99259 32.5814V12.4183C3.99259 7.77252 7.77225 3.99259 12.418 3.99259H32.5812C37.2272 3.99259 41.0071 7.77252 41.0071 12.4183V32.5814H41.0074Z" fill="white"/>
<path d="M22.4998 10.9052C16.1061 10.9052 10.9045 16.1067 10.9045 22.5004C10.9045 28.8939 16.1061 34.0952 22.4998 34.0952C28.8936 34.0952 34.0951 28.8939 34.0951 22.5004C34.0951 16.1067 28.8936 10.9052 22.4998 10.9052ZM22.4998 30.1023C18.3079 30.1023 14.8971 26.6921 14.8971 22.5002C14.8971 18.308 18.3076 14.8975 22.4998 14.8975C26.6921 14.8975 30.1025 18.308 30.1025 22.5002C30.1025 26.6921 26.6918 30.1023 22.4998 30.1023Z" fill="white"/>
<path d="M34.5815 7.51965C33.8122 7.51965 33.0566 7.83108 32.5133 8.37673C31.9674 8.91972 31.6536 9.67565 31.6536 10.4476C31.6536 11.2171 31.9676 11.9727 32.5133 12.5184C33.0563 13.0614 33.8122 13.3755 34.5815 13.3755C35.3534 13.3755 36.1066 13.0614 36.6523 12.5184C37.1979 11.9727 37.5094 11.2168 37.5094 10.4476C37.5094 9.67565 37.1979 8.91972 36.6523 8.37673C36.1093 7.83108 35.3534 7.51965 34.5815 7.51965Z" fill="white"/>
</svg>
