<svg id="Слой_1" data-name="Слой 1" xmlns="http://www.w3.org/2000/svg" viewBox="0 0 501 300.3"><defs><style>.cls-1{fill:#fff;}.cls-2{fill:#f94aff;}</style></defs><title>logo edesignwhite</title><path class="cls-1" d="M319.6,433.4a62.6,62.6,0,0,0-13.8,7.5c-2,1.4-4.2,2.6-6.1,3.8-3.6,2.8-7.7,4.9-11.5,7.5s-6.9,4.9-10.3,7.7c-1.6,1.2-3.2,2.6-4.7,4h-.2c-2.4,1.8-4.7,3.4-7.1,4.9a111.4,111.4,0,0,1-12.3,7.3,19.5,19.5,0,0,1-7.3,2.2,9.6,9.6,0,0,1-7.9-2.8c-3-3.2-4-6.9-3.2-11.5a53.3,53.3,0,0,1,5.1-15.2,85.3,85.3,0,0,1,7.3-12.1,6.2,6.2,0,0,0,1-2,10.3,10.3,0,0,1,4-4.7,10.6,10.6,0,0,0,3-3,66.1,66.1,0,0,1,7.9-6.9l4.3-2.2c2.4-.8,4.3-.6,6.1,1.2s3,5.1-.4,8.7a52.5,52.5,0,0,1-8.5,7.7c-3.2,2-6.1,4-9.9,4.5a3.4,3.4,0,0,0-2.6,1.6,8.8,8.8,0,0,0-1.6,2.2,103,103,0,0,0-5.9,11.3c-.2.4-.2.8-.4,1.2v.6a14.5,14.5,0,0,0-1.6,4.9,30.6,30.6,0,0,0-1.2,6.1,12,12,0,0,0,0,3.8,1.1,1.1,0,0,0,1.6,1,13.4,13.4,0,0,0,4-1.4,56.7,56.7,0,0,0,8.3-4.7c4.7-3,9.3-6.1,13.8-9.1,7.1-4.7,14-9.5,21.2-14,5.5-3.6,11.1-7.1,16.8-10.3l4.5-2.4,2.8-1.4c1.2-.2,2.2-.2,3,.8S319.8,431.8,319.6,433.4Zm-60.5-.2a6.1,6.1,0,0,0,3.6-1.8,33.8,33.8,0,0,0,2.8-2.2c1.4-1.2,2.6-2.6,4-4a.6.6,0,0,0,0-.8.4.4,0,0,0-.6,0,10.9,10.9,0,0,0-5.1,3.8h-.2a.4.4,0,0,1-.4.4v.2A13.9,13.9,0,0,0,259.1,433.2Zm1.2,33.2a.4.4,0,0,0-.4.4C259.9,466.6,260.1,466.6,260.3,466.4Zm.2-.2a1.5,1.5,0,0,0,1.4-.8A2,2,0,0,0,260.5,466.2Zm1-41.9h.6v-.4C261.9,423.9,261.7,424.1,261.5,424.3Zm53.2,9.9c-.6,0-1,.4-1.4,1a1.5,1.5,0,0,0-1.2.4c-.4.2-1,.2-1.4.6a113,113,0,0,0-11.5,7.3,16.2,16.2,0,0,0-4,2.4c-.8.6-1.8,1-2.6,1.6-3.6,2.4-7.1,4.7-10.3,7.3l-2,1.2c-4.5,3.4-9.1,6.7-13.6,9.9a7,7,0,0,0-2.2,2,1.8,1.8,0,0,0-1.6,1,4.3,4.3,0,0,0-1.6,1,2.7,2.7,0,0,0,1.6-1,2,2,0,0,0,1.6-1,8.6,8.6,0,0,0,3-1.6c3-2,5.7-4.2,8.7-6.1s4.2-3.4,6.3-4.9c4.5-2.8,8.7-5.7,13-8.9a11.6,11.6,0,0,0,3.8-2.6c.4-.2.8-.2,1.2-.6,3.4-2,6.9-4.2,10.3-6.3.6-.4,1-.6,1.2-1l1.2-.6C313.8,435,314.4,434.8,314.6,434.2Zm-49.6-3a33.1,33.1,0,0,0-3.2,2.4,2.7,2.7,0,0,0,2.4-1A1.3,1.3,0,0,0,265,431.2Zm-3-7.5h.6v.6c0-.2.2-.4.4-.6l.6-.4a4.3,4.3,0,0,0,1.6-1,11,11,0,0,0,1.6-1,.7.7,0,0,1,.2-.6.6.6,0,0,1-.2-.4,8.7,8.7,0,0,0-3.6,2.4l-.6.6Zm0,4.3,7.3-5.3A13.6,13.6,0,0,0,262.1,428.1Zm.6-4.3v-.4h.4a.7.7,0,0,0,.2-.6l.4.6h-.4c0,.2-.2.2-.2.4Zm0,41.1a1.5,1.5,0,0,0,1.4-1A2.3,2.3,0,0,0,262.6,464.9Zm.8-36-.4-.2h.2Zm1.2,5.9a2,2,0,0,0-1.4.8A1.3,1.3,0,0,0,264.6,434.8Zm-.4,29.1a3.7,3.7,0,0,1,1.4-.4c.2-.4.6-.6.8-1h.8l.6-.6v.4c.2,0,.4-.2.6-.4h-.6c.2-.2.4-.4.6-.4s.2-.2.2-.4l.8-.2.6-.4v.4l.4-.4H270v-.2c.2,0,.4-.2.6-.4v.4c.2,0,.2-.2.4-.4l1-.4.6-.6h-.4l.6-.4v.4a.4.4,0,0,1,.4-.4,4.3,4.3,0,0,0,1.6-1v-.4l.2.2.2-.2v-.2h.2a2.7,2.7,0,0,0,1.6-1v-.2h.2v.2a.4.4,0,0,1,.4-.4l.6-.6a2,2,0,0,0,1.6-1c.2-.2.4-.4.6-.4a4.3,4.3,0,0,0,1.6-1l.6-.6c.4-.2.6-.4,1-.4l.6-.6c.2-.2.4-.4.6-.4l-.4-.2v-.2l.4.2c.4,0,.6-.2,1-.4l.6-.6,1.6-.8.6-.6a4.3,4.3,0,0,0,1.6-1c.2-.2.4-.4.6-.4l-.4-.2v-.2l.4.2c.4,0,.6-.2,1-.4s.4-.4.6-.4h-.6a.7.7,0,0,0,.2-.6c.2.2.2.4.4.4a2.4,2.4,0,0,0,1-1h.6l1.6-.8.6-.6c.4-.4.8-.6,1-1s.2-.2.2-.4l.4.4,1.2-1v-.4c.2.2.4.2.4.4a8,8,0,0,1,1.8-1h-.2a8,8,0,0,1,1.8-1h-.2a11,11,0,0,0,1.6-1l1.8-1a11,11,0,0,1,1.6-1c.4-.4.8-.6,1-1s.2-.2.2-.4l.4.4,1.2-1a.7.7,0,0,1-.2-.6,3,3,0,0,0-1.4,1,3.2,3.2,0,0,0-1.8,1c-.6.2-1.2.4-1.4,1a2.7,2.7,0,0,0-1.8,1,14.8,14.8,0,0,0-4.7,3,2.7,2.7,0,0,0-1.6,1,3.2,3.2,0,0,0-1.8,1,11.6,11.6,0,0,0-3.8,2.6c-.6,0-1,.4-1.6,1a5.1,5.1,0,0,0-2.2,1.4A11.6,11.6,0,0,0,284,450a25334.2,25334.2,0,0,1-4.3,2.8,5.6,5.6,0,0,0-2.2,1.6,28.3,28.3,0,0,0-4.3,3,12,12,0,0,0-2.8,2,7.1,7.1,0,0,0-2,1.4,8.8,8.8,0,0,0-2.2,1.6A3.9,3.9,0,0,0,264.2,463.9Zm4.2-32-.4.2a9.6,9.6,0,0,0-2.8,2.2c-.2.2-.2.4-.4.4a.4.4,0,0,0,.4-.4,4.1,4.1,0,0,0,2.8-2C268.2,432,268.4,432,268.4,431.8Zm1.2-1a.4.4,0,0,0-.4.4C269.4,431,269.6,431,269.6,430.9Zm1.2,28.7a.7.7,0,0,0,.2.4h-.4A.7.7,0,0,0,270.8,459.5Zm2.4-1.6v.6h-.4C272.9,458.3,273.1,458.1,273.1,457.9Zm4.3-2.8v.4l-.4-.2Zm.2-.4.4.2Zm2-.8v-.4C279.8,453.8,279.8,453.8,279.6,454Zm.6-.4-.4-.2v-.2C280,453.2,280,453.4,280.2,453.6Zm1.8-2,.4.4h-.6C282,452,282,451.8,282,451.6Zm2-1v.4h-.6Zm4-3,.4.4h-.6C287.9,447.9,287.9,447.9,287.9,447.7Zm7.5-4.9.4.4h-.6C295.5,442.9,295.5,442.9,295.5,442.7Zm14.4-9.1c.4,0,.8,0,1-.4Zm1.2-.4.8-.4A.8.8,0,0,0,311.1,433.2Zm1-.6h.4l.2-.2c0-.2-.2-.2-.4-.2A.7.7,0,0,1,312.1,432.6Zm3.6,1.2a.8.8,0,0,0-.8.4Z" transform="translate(-234.9 -304.6)"/><path class="cls-1" d="M449.6,311.1a15.8,15.8,0,0,1-1.6,3.2v.2h-.6v.4a16.5,16.5,0,0,0-2.6,3.6,14.7,14.7,0,0,1-1.4,2.4h.2c-.2.4-.6.6-.6,1a9.6,9.6,0,0,1-2.2,3.6c-.4.2-.6.8-.8,1.4v.6a3.5,3.5,0,0,0-1.6,2.2,22.9,22.9,0,0,1-2.8,4.7c0,.2.2.2.2.4h-.2a3.2,3.2,0,0,1-.8,1.4,37.1,37.1,0,0,0-4.2,7.1c-.2,0-.2.2-.2.4a6.1,6.1,0,0,0-1.2,2.6,5.4,5.4,0,0,0-1.6,3.4l-.6.6a1.5,1.5,0,0,0-.4,1c0,.2,0,.4.2.4h-.2a4.3,4.3,0,0,1-.8,1c-1.2,1.2-1.6,2.6-2.4,4a32.4,32.4,0,0,0-2.8,5.9,27.4,27.4,0,0,0-4,7.5h.2c-.2.4-.4.6-.4,1s-.4.6-.4,1a2.3,2.3,0,0,0-1,1.4,6.1,6.1,0,0,0-1.2,2.6c-.4.2-.4.6-.4,1a7.9,7.9,0,0,0-1.8,3.4c-1.2,1.4-1.4,3.2-2.2,4.7s-.2.4-.2.8a4.1,4.1,0,0,0-1.4,2.6V388a2.8,2.8,0,0,1-.4,1.2v-.2a3.3,3.3,0,0,0-.4,1,24.5,24.5,0,0,0-3,6.5c-.2.2-.2.6-.4,1a4,4,0,0,0-.8,1.6,55.9,55.9,0,0,0-3.4,7.9,13.8,13.8,0,0,0-1.6,4,3.3,3.3,0,0,1-.4,1,20.6,20.6,0,0,0-.8,2,76.9,76.9,0,0,0-4.3,11.9l-.4,1c-.2.4-.2,1-.4,1.4a9,9,0,0,0-1.6,4.3,8.4,8.4,0,0,0-1.2,3.6c-.2.4-.4.6-.4,1a9.7,9.7,0,0,0-1.2,3.4,5.6,5.6,0,0,0-.8,2.6,3.7,3.7,0,0,0-.4,1.6,5.6,5.6,0,0,0-.8,2.6v-.2a1.5,1.5,0,0,1-.4,1,4.2,4.2,0,0,0-.8,2c-1,3-2,6.1-2.8,9.1a10.1,10.1,0,0,0-.6,3.4,26.7,26.7,0,0,0-2.2,8.9,6.7,6.7,0,0,0-.6,4h-.2c1.2.8,1.2.8,1.8.4a12.8,12.8,0,0,0,1.8-1.6c3.4-4,6.7-7.7,10.3-11.7l9.3-10.1c3.4-3.8,6.9-7.5,10.3-11.1s6.7-7.1,10.3-10.3l.6-.6c1.2-1.2,1.6-1.2,3.2,0s1.2,1.4.2,2.4-2.4,2.4-3.6,3.8a4.8,4.8,0,0,1-1.6,1.2.6.6,0,0,1-.2-.4c-.2,0-.2.2-.4.4s-.4.4-.4.6-.4.2-.6.4a.4.4,0,0,1-.4.4,4.1,4.1,0,0,1-1.2.8c-3,3.4-5.9,6.7-9.1,9.9a3,3,0,0,0-.6,1.4,3935952523566.7,3935952523566.7,0,0,1-.8.8l.4-.4c.2-.2.2-.4.4-.4a8.5,8.5,0,0,0,2-1.8,7.6,7.6,0,0,1,2.2-2.2,4,4,0,0,1-1.2,1.8l-10.5,12.3c-2.2,2.6-4.2,5.3-6.3,7.7a110.1,110.1,0,0,1-10.3,11.3,14.1,14.1,0,0,1-2.8,2,5.4,5.4,0,0,1-6.1-.4,3.5,3.5,0,0,0-1-.8,5.7,5.7,0,0,1-2.6-4.5,24.2,24.2,0,0,1,.2-5.3c1-7.1,3.2-13.8,4.9-20.6.6-2.4,1.4-4.7,2-7.3.2-.4.2-1,.4-1.6s0-.8-.4-.8-1-1-1.2-1.8a13,13,0,0,0-.2-2.8c0-.6-.6-.8-1.2-.6l-.4.4v-.4c-.2.2-.4.4-.6.4a5.9,5.9,0,0,1-.8,1.6c-.2.2-.2.4-.4.4s-.4.4-.4.6h.4l-.4.4v.2A57.2,57.2,0,0,1,356.1,455a14.7,14.7,0,0,1-5.1,2,5,5,0,0,1-3.8-.2,9.9,9.9,0,0,1-5.9-5.3,4.4,4.4,0,0,1-.6-2.8,14.8,14.8,0,0,1,1-5.1c.8-1.6,1.4-3.2,2.4-4.7a36.1,36.1,0,0,1,8.7-9.5,18.3,18.3,0,0,1,12.7-4,15.4,15.4,0,0,1,4.2.8c1.6.4,1.8.4,2.8-.8s3-4.9,4.3-7.3c3.8-6.3,7.5-12.7,11.1-19s5.5-10.1,8.3-15.2l4.3-7.7c.6-1.2,1.4-2.6,2.2-4a39.1,39.1,0,0,1,2.2-4c3-5.1,5.9-10.5,8.7-15.8l8.5-14.2c2.4-4.3,4.9-8.5,7.7-12.7l11.9-17.6a13.6,13.6,0,0,1,2.2-2.6,1.8,1.8,0,0,1,2.8-.2c1,1.2,2.4,2.2,3.2,3.8S450.2,310.5,449.6,311.1Zm-86,126.5c1.2-1.8,2.6-3.6,4-5.3a9.3,9.3,0,0,0,1.4-2.4.7.7,0,0,0-.4-1h-1a13.6,13.6,0,0,0-5.7,1.4,32.9,32.9,0,0,0-5.5,3.6,4.2,4.2,0,0,1-2.2,1.4c.4-1.2,1.4-1.6,1.8-2.4s1.2-.6,1.4-1.2a1.8,1.8,0,0,0-1.6,1A13.7,13.7,0,0,0,350,439a2.2,2.2,0,0,0-1.2,2,2.9,2.9,0,0,0,1.2-1.8,4.5,4.5,0,0,0,1.6-1.8c.8-.6,1.2-1.4,2.2-1.8a3,3,0,0,1-1.2,2,25.7,25.7,0,0,0-4.2,6.1,18.6,18.6,0,0,0-1.6,6.7c0,1,.6,1.4,1.4,1a14.2,14.2,0,0,0,4.2-2.4A68.8,68.8,0,0,0,363.7,437.6Zm-15.8-1h.4v-.4C348,436.2,348,436.4,347.8,436.6Zm0,5.7a1.1,1.1,0,0,0,.8-1.2C348.2,441.3,348,441.9,347.8,442.3Zm.4-6.3h.6a.7.7,0,0,1-.2-.4A.4.4,0,0,1,348.2,436Zm.6-.4h.4v.4a.4.4,0,0,0,.4-.4h-.4v-.4A.4.4,0,0,0,348.8,435.6Zm0,.6v.4c.2-.2.2-.4.4-.4Zm.4-1.2h.4v-.4h.4v-.4l-.4.4C349.4,434.8,349.4,435,349.2,435Zm.4.2a.7.7,0,0,1,.2.4.4.4,0,0,1,.4-.4Zm.4-1.2.6.6h-.4v.4l.4-.4a7.5,7.5,0,0,0,2.8-3.4.7.7,0,0,0,.2-.6c0,.2-.2.2-.4.4A6.6,6.6,0,0,0,350,434Zm3.8-3.4c.4,0,.8,0,.8-.4A.8.8,0,0,0,353.8,430.7Zm9.5,12.8.4-.4h-.4l.4-.6v.4a.4.4,0,0,0,.4-.4h-.4l.6-.6.4-.4v.4c.2-.2.4-.2.4-.4a4.3,4.3,0,0,0,1.8-2.4.2.2,0,0,0-.2-.2h-.2c.2,0,.2-.2.4-.4v.4a.4.4,0,0,0,.4-.4h-.4c.2-.2.2-.4.4-.4a.6.6,0,0,0,.2.4c.2,0,.2-.2.4-.4h-.6c.2-.2.4-.4.4-.6a1.2,1.2,0,0,0,.2-.8l.4-.2v1h-.4v.4c.2,0,.2-.2.4-.4a1.5,1.5,0,0,0,.8-1.4h-.4a.4.4,0,0,0-.4.4v-.4l.4-.2c.2,0,.2-.2.4-.4v.4c.2-.2.4-.2.4-.4H369c.2-.2.4-.4.4-.6a1.2,1.2,0,0,0,.2-.8c0-.2.2-.4.2-.6h.6v1a2.5,2.5,0,0,0,.8-1.4h-.4c.2-.2.4-.4.4-.6s.2.2.2.4.2-.2.4-.4h-.6v-1a3.3,3.3,0,0,0-1.4,2,.4.4,0,0,0-.4.4,3.3,3.3,0,0,0-1.4,2l-.6.4a16.4,16.4,0,0,0-2.6,3.6,33.8,33.8,0,0,0-4.3,4.9c.8,0,1.2-.6,1.8-.8l.6-.6v.4C363.1,443.9,363.1,443.7,363.3,443.5Zm-.2,4.5a4.1,4.1,0,0,0-1.2.8C362.5,448.8,362.7,448.4,363.1,448Zm.2-4.9v.4h-.4A.4.4,0,0,1,363.3,443.1ZM375.3,433h-.4a3.5,3.5,0,0,0-.8,1c-2.6,3.6-5.3,7.1-8.3,10.5-.4.4-.6,1-1,1.4s-.2.4-.4.4-.8.6-.8,1.2a2,2,0,0,0,1-.8c.2-.2.4-.4.4-.6a4.7,4.7,0,0,0,1.8-1.6,71.6,71.6,0,0,0,8.3-10.5c.2-.2.2-.2.2-.4A.4.4,0,0,0,375.3,433Zm-11.1,9.1v.4a.4.4,0,0,1,.4-.4Zm5.3-6.9v.4a.4.4,0,0,1,.4-.4Zm2-4.2h.6l.4-.4C372,430.3,371.8,430.3,371.6,431Zm2.6,7.1-.4.4v-.4Zm1.2-2.2h.2v.2h-.6V436Zm4-8.7c2-2.2,3.2-4.7,4.7-7.1a2.9,2.9,0,0,0,.2-1.4,66.6,66.6,0,0,0-4.7,7.3c-.2.2-.2.6-.4,1a8.9,8.9,0,0,0-2,2.8v.4a.3.3,0,0,0,.4,0A4.7,4.7,0,0,0,379.3,427.3Zm6.1-6.9a10.8,10.8,0,0,0-3,4.7c-1.4,1-2,2.6-2.8,4.2s-1.8,3-.8,4.9a13.9,13.9,0,0,1,.6,2.8.7.7,0,0,0,.6.8c0-.2.2-.4.4-.8,1.4-4,2.6-7.9,4-12.1a1.2,1.2,0,0,0,.2-.8c0-.4-.2-.6-.4-1Zm-5.1,8.9h-.6A.4.4,0,0,1,380.3,429.3Zm.6,28.7a4.1,4.1,0,0,0-.8,2.2A2.2,2.2,0,0,0,380.8,457.9Zm2-6.7v.2C383,451.2,383,451.2,382.8,451.2Zm3.8-35.8a1.2,1.2,0,0,0-.8,1.2C386.2,416.4,386.4,415.8,386.6,415.4Zm0,23.7a4.1,4.1,0,0,0-.8,2.2A3,3,0,0,0,386.6,439.2Zm2-5.9c-.2.4-.2.8-.4,1.2A1.5,1.5,0,0,0,388.6,433.2Zm1.6-4.3-.4.6c0,.2,0,.2.2.2h.2Zm1.2-3.6a4.1,4.1,0,0,0-.8,2.2A4.1,4.1,0,0,0,391.3,425.3Zm2-5.5a2.6,2.6,0,0,0-.6,2.2A3.1,3.1,0,0,0,393.3,419.8Zm-.4,6.9v-1a2.1,2.1,0,0,0,.2,1Zm0,37.6a49.4,49.4,0,0,0,5.3-5.7c.2-.4.2-.8.4-1a34.2,34.2,0,0,0-5.1,5.5C393.1,463.5,393.1,463.9,392.9,464.3Zm5.5-2.4c-.2,0-.2.2-.4.4l-.4.6a14.9,14.9,0,0,0-4,4.7,15.4,15.4,0,0,0,4-4.7c.2-.2.4-.2.4-.6A.4.4,0,0,0,398.4,461.9Zm-4.3-44.1c0,.4-.2.6-.2.8S394.1,418.2,394.1,417.8Zm3.4-8.1c-.2-.2-.2,0-.4.2v.2a113.3,113.3,0,0,0,.4-.4Zm1.2,2a1.2,1.2,0,0,0-.2-.8h.6C398.8,411.1,398.8,411.5,398.6,411.7Zm.4-6.1a1,1,0,0,0-.4.8A1.5,1.5,0,0,0,399,405.5Zm-.2,55.7c0,.2-.2.2-.2.4A.7.7,0,0,0,398.8,461.3Zm.2,0a28.3,28.3,0,0,0,5.5-6.3c0-.2.2-.2.4-.4l.4-.6c.2-.2.4-.4.4-.6a.4.4,0,0,0,.4-.4c.2-.2.4-.4.4-.6s.4-.2.4-.4-.2.2-.4.4a.4.4,0,0,0-.4.4l-.6.6c0,.2-.2.2-.4.4l-.4.6c-.2.2-.4.2-.4.4a36.9,36.9,0,0,0-5.1,5.9A.7.7,0,0,0,399,461.3Zm1.2-58.7a11.6,11.6,0,0,0-.8,1.6C400,404,400.4,403.6,400.2,402.6Zm.8,52.2a.2.2,0,0,0,.2-.2Zm.8-1a5.3,5.3,0,0,0,3.2-3.4A10.2,10.2,0,0,0,401.8,453.8Zm1.4-57.7a1.5,1.5,0,0,0-.8,1.8A2.4,2.4,0,0,0,403.2,396.1Zm.8-2c-.2.2-.2.4-.4.8S403.8,394.3,404,394.1Zm.4-1-.4.6C404.2,393.5,404.4,393.3,404.4,393.1Zm.4-.4c0-.2,0-.2-.2-.4v.2c-.2.2-.2.2-.2.4Zm1.2,56.7a8.5,8.5,0,0,0,4-4.3A13.9,13.9,0,0,0,406,449.4Zm2.6-65.2a1.5,1.5,0,0,0-.4,1,4.7,4.7,0,0,0-1.2,2.2,3.9,3.9,0,0,0,1.2-2.2C408.3,384.8,408.5,384.6,408.5,384.2Zm1-1.4c-.6.2-.8.6-1,1.2S409.3,383.2,409.5,382.8Zm1.6-4.2c-.2.4-.4.6-.4,1A1.5,1.5,0,0,0,411.1,378.7Zm1.4,67.8c0,.2-.2.4-.4.6v-.2C412.3,446.9,412.3,446.7,412.5,446.5Zm.2-70.8c0-.2-.2-.2-.2,0s-.2.2-.2.4l.4-.2Zm0,66.2a4.6,4.6,0,0,0,2.4-1.6,33.5,33.5,0,0,0,2-2.8A22.7,22.7,0,0,0,412.7,441.9Zm3.8.2a8.9,8.9,0,0,1-3.8,4.3A16.1,16.1,0,0,1,416.4,442.1Zm-2.2-70a.7.7,0,0,0-.2.4.2.2,0,0,1,.2-.2Zm2.4,69.8.4-.4-.4.6h-.2C416.6,442.1,416.6,442.1,416.6,441.9Zm2.2-2.8h.4a4.2,4.2,0,0,1-2.2,2.4Zm.4-.6h.6l-.4.4A.6.6,0,0,0,419.2,438.6Zm0,.4h.2v.2h-.2Zm.6-.4v-.4h.4C420,438.2,420,438.4,419.8,438.6Zm.4-.6v-.4h.4A.4.4,0,0,1,420.2,438Zm.8-4.5c1.4-.8,1.4-.8,2.2-2.4A11.8,11.8,0,0,0,421,433.4Zm6.9-83.4h-.6A.4.4,0,0,1,427.9,350Zm-.2-.2c0-.2,0-.2.2-.4v.6A.2.2,0,0,0,427.7,349.8Z" transform="translate(-234.9 -304.6)"/><path class="cls-1" d="M485.4,433.4a62.6,62.6,0,0,0-13.8,7.5c-2,1.4-4.2,2.6-6.1,3.8-3.6,2.8-7.7,4.9-11.5,7.5s-6.9,4.9-10.3,7.7c-1.6,1.2-3.2,2.6-4.7,4h-.2c-2.4,1.8-4.7,3.4-7.1,4.9a111.4,111.4,0,0,1-12.3,7.3,19.5,19.5,0,0,1-7.3,2.2,9.6,9.6,0,0,1-7.9-2.8c-3-3.2-4-6.9-3.2-11.5a53.3,53.3,0,0,1,5.1-15.2,85.3,85.3,0,0,1,7.3-12.1,6.2,6.2,0,0,0,1-2,10.3,10.3,0,0,1,4-4.7,10.6,10.6,0,0,0,3-3,66.1,66.1,0,0,1,7.9-6.9l4.3-2.2c2.4-.8,4.3-.6,6.1,1.2s3,5.1-.4,8.7a52.5,52.5,0,0,1-8.5,7.7c-3.2,2-6.1,4-9.9,4.5a3.4,3.4,0,0,0-2.6,1.6,8.8,8.8,0,0,0-1.6,2.2,103,103,0,0,0-5.9,11.3c-.2.4-.2.8-.4,1.2v.6a14.5,14.5,0,0,0-1.6,4.9,30.6,30.6,0,0,0-1.2,6.1,12,12,0,0,0,0,3.8,1.1,1.1,0,0,0,1.6,1,13.4,13.4,0,0,0,4-1.4,56.7,56.7,0,0,0,8.3-4.7c4.7-3,9.3-6.1,13.8-9.1,7.1-4.7,14-9.5,21.2-14,5.5-3.6,11.1-7.1,16.8-10.3l4.5-2.4,2.8-1.4c1.2-.2,2.2-.2,3,.8S485.6,431.8,485.4,433.4Zm-60.5-.2a6.1,6.1,0,0,0,3.6-1.8,33.8,33.8,0,0,0,2.8-2.2c1.4-1.2,2.6-2.6,4-4a.6.6,0,0,0,0-.8.4.4,0,0,0-.6,0,10.9,10.9,0,0,0-5.1,3.8h-.2a.4.4,0,0,1-.4.4v.2A13.9,13.9,0,0,0,424.9,433.2Zm1.2,33.2a.4.4,0,0,0-.4.4C425.7,466.6,425.9,466.6,426.1,466.4Zm.2-.2a1.5,1.5,0,0,0,1.4-.8A2,2,0,0,0,426.3,466.2Zm1-41.9h.6v-.4C427.7,423.9,427.5,424.1,427.3,424.3Zm53.2,9.9c-.6,0-1,.4-1.4,1a1.5,1.5,0,0,0-1.2.4c-.4.2-1,.2-1.4.6a113,113,0,0,0-11.5,7.3,16.2,16.2,0,0,0-4,2.4c-.8.6-1.8,1-2.6,1.6-3.6,2.4-7.1,4.7-10.3,7.3l-2,1.2c-4.5,3.4-9.1,6.7-13.6,9.9a7,7,0,0,0-2.2,2,1.8,1.8,0,0,0-1.6,1,4.3,4.3,0,0,0-1.6,1,2.7,2.7,0,0,0,1.6-1,2,2,0,0,0,1.6-1,8.6,8.6,0,0,0,3-1.6c3-2,5.7-4.2,8.7-6.1s4.2-3.4,6.3-4.9c4.5-2.8,8.7-5.7,13-8.9a11.6,11.6,0,0,0,3.8-2.6c.4-.2.8-.2,1.2-.6,3.4-2,6.9-4.2,10.3-6.3.6-.4,1-.6,1.2-1l1.2-.6C479.7,435,480.3,434.8,480.5,434.2Zm-49.6-3a33.1,33.1,0,0,0-3.2,2.4,2.7,2.7,0,0,0,2.4-1A1.3,1.3,0,0,0,430.9,431.2Zm-3-7.5h.6v.6c0-.2.2-.4.4-.6l.6-.4a4.3,4.3,0,0,0,1.6-1,11,11,0,0,0,1.6-1,.7.7,0,0,1,.2-.6.6.6,0,0,1-.2-.4,8.7,8.7,0,0,0-3.6,2.4l-.6.6Zm0,4.3,7.3-5.3A13.6,13.6,0,0,0,427.9,428.1Zm.6-4.3v-.4h.4a.7.7,0,0,0,.2-.6l.4.6h-.4c0,.2-.2.2-.2.4Zm0,41.1a1.5,1.5,0,0,0,1.4-1A2.3,2.3,0,0,0,428.5,464.9Zm.8-36-.4-.2h.2Zm1.2,5.9a2,2,0,0,0-1.4.8A1.3,1.3,0,0,0,430.5,434.8Zm-.4,29.1a3.7,3.7,0,0,1,1.4-.4c.2-.4.6-.6.8-1h.8l.6-.6v.4c.2,0,.4-.2.6-.4h-.6c.2-.2.4-.4.6-.4s.2-.2.2-.4l.8-.2.6-.4v.4l.4-.4h-.4v-.2c.2,0,.4-.2.6-.4v.4c.2,0,.2-.2.4-.4l1-.4.6-.6H438l.6-.4v.4a.4.4,0,0,1,.4-.4,4.3,4.3,0,0,0,1.6-1v-.4l.2.2.2-.2v-.2h.2a2.7,2.7,0,0,0,1.6-1v-.2h.2v.2a.4.4,0,0,1,.4-.4l.6-.6a2,2,0,0,0,1.6-1c.2-.2.4-.4.6-.4a4.3,4.3,0,0,0,1.6-1l.6-.6c.4-.2.6-.4,1-.4l.6-.6c.2-.2.4-.4.6-.4l-.4-.2v-.2l.4.2c.4,0,.6-.2,1-.4l.6-.6,1.6-.8.6-.6a4.3,4.3,0,0,0,1.6-1c.2-.2.4-.4.6-.4l-.4-.2v-.2l.4.2c.4,0,.6-.2,1-.4s.4-.4.6-.4h-.6a.7.7,0,0,0,.2-.6c.2.2.2.4.4.4a2.4,2.4,0,0,0,1-1h.6l1.6-.8.6-.6c.4-.4.8-.6,1-1s.2-.2.2-.4l.4.4,1.2-1v-.4c.2.2.4.2.4.4a8,8,0,0,1,1.8-1h-.2a8,8,0,0,1,1.8-1H468a11,11,0,0,0,1.6-1l1.8-1a11,11,0,0,1,1.6-1c.4-.4.8-.6,1-1s.2-.2.2-.4l.4.4,1.2-1a.7.7,0,0,1-.2-.6,3,3,0,0,0-1.4,1,3.2,3.2,0,0,0-1.8,1c-.6.2-1.2.4-1.4,1a2.7,2.7,0,0,0-1.8,1,14.8,14.8,0,0,0-4.7,3,2.7,2.7,0,0,0-1.6,1,3.2,3.2,0,0,0-1.8,1,11.6,11.6,0,0,0-3.8,2.6c-.6,0-1,.4-1.6,1a5.1,5.1,0,0,0-2.2,1.4,11.6,11.6,0,0,0-3.8,2.6,25334.2,25334.2,0,0,1-4.3,2.8,5.6,5.6,0,0,0-2.2,1.6,28.3,28.3,0,0,0-4.3,3,12,12,0,0,0-2.8,2,7.1,7.1,0,0,0-2,1.4,8.8,8.8,0,0,0-2.2,1.6A3.9,3.9,0,0,0,430.1,463.9Zm4.2-32-.4.2a9.6,9.6,0,0,0-2.8,2.2c-.2.2-.2.4-.4.4a.4.4,0,0,0,.4-.4,4.1,4.1,0,0,0,2.8-2C434,432,434.2,432,434.2,431.8Zm1.2-1a.4.4,0,0,0-.4.4C435.2,431,435.4,431,435.4,430.9Zm1.2,28.7a.7.7,0,0,0,.2.4h-.4A.7.7,0,0,0,436.6,459.5Zm2.4-1.6v.6h-.4C438.8,458.3,439,458.1,439,457.9Zm4.3-2.8v.4l-.4-.2Zm.2-.4.4.2Zm2-.8v-.4C445.7,453.8,445.7,453.8,445.5,454Zm.6-.4-.4-.2v-.2C445.9,453.2,445.9,453.4,446.1,453.6Zm1.8-2,.4.4h-.6C447.9,452,447.9,451.8,447.9,451.6Zm2-1v.4h-.6Zm4-3,.4.4h-.6C453.8,447.9,453.8,447.9,453.8,447.7Zm7.5-4.9.4.4h-.6C461.3,442.9,461.3,442.9,461.3,442.7Zm14.4-9.1c.4,0,.8,0,1-.4Zm1.2-.4.8-.4A.8.8,0,0,0,476.9,433.2Zm1-.6h.4l.2-.2c0-.2-.2-.2-.4-.2A.7.7,0,0,1,477.9,432.6Zm3.6,1.2a.8.8,0,0,0-.8.4Z" transform="translate(-234.9 -304.6)"/><path class="cls-1" d="M523.4,446.5c-7.5,3.6-23.5,13.2-30,18.4-.2.2-.6.4-.8.8a2.6,2.6,0,0,0-1.2,3.2c.6,2,1,4.2,1.4,6.1a82.8,82.8,0,0,1,2.2,15.4,52.2,52.2,0,0,1-.2,7.9,55.9,55.9,0,0,1-1.2,6.1,4.4,4.4,0,0,0-.2,1.6,4.9,4.9,0,0,1-.8,2.8c0-.2.2-.4,0-.4v.4c-.2.8,0,1.6-1,2a4.3,4.3,0,0,0-.6,1l-2.4,5.9a6.5,6.5,0,0,0-1.4,2.6h.6l-.6.8v.2a2,2,0,0,0-.8,1h.2a4.1,4.1,0,0,0-.8,1.2,98.1,98.1,0,0,1-28.3,28.1,37.6,37.6,0,0,1-12.7,5.3,11.1,11.1,0,0,1-6.7-.2,29.8,29.8,0,0,1-4.3-2.2,7.5,7.5,0,0,1-4.2-6.5,27,27,0,0,1,1-10.5,82.2,82.2,0,0,1,6.7-17A149.8,149.8,0,0,1,451,498.5c3-4,6.3-7.7,9.7-11.5a156.8,156.8,0,0,1,14-14c2.4-2.2,4.5-4.3,7.1-6.3a2.9,2.9,0,0,0,1-3.2l-1.6-5.7c-1.2-4.3-2.6-8.9-3.8-13.2a21.4,21.4,0,0,1-.8-8.7,17.1,17.1,0,0,1,4-10.3,48.7,48.7,0,0,1,7.5-8.1,37.5,37.5,0,0,1,14.2-8.5,20.7,20.7,0,0,1,3.4-.8,3.8,3.8,0,0,1,2.8,1.4,1.1,1.1,0,0,1-.4,1.6,47.5,47.5,0,0,0-4.5,2.2,62.3,62.3,0,0,0-6.5,4.3,7.8,7.8,0,0,1-3,2c.2-.2.2-.6.4-.8s.2-.4.4-.4l.6-.6a10.2,10.2,0,0,0,3.4-2.6,6.7,6.7,0,0,0,2.2-1.4c.2-.2.6-.2.8-.6s-.8,0-1,.4a5.8,5.8,0,0,0-2.4,1.4,12,12,0,0,0-3.2,2.4l-.6.6c-.2.2-.4.4-.6.4a5.2,5.2,0,0,0-1,1.2c-.2,0-.4.2-.6.4a3.7,3.7,0,0,0-1.6,2,5.1,5.1,0,0,0,1.8-1.8c.2,0,.4-.2.6-.4a1.2,1.2,0,0,0,.8-.2,2.9,2.9,0,0,1-1.2,1.8,6.2,6.2,0,0,0-1.8,2.2l-.6.6a6.8,6.8,0,0,0-1.8,2.4v.6l-.6,1h-.6c-1,2.2-2.2,4.5-3,6.7a14.9,14.9,0,0,0-1,7.1,48.9,48.9,0,0,0,2.2,9.3c.6,2.2,1.4,4.3,2.2,6.5a2.9,2.9,0,0,0,.4,1.4c.6,1.2,1,1.4,2.4.4a40,40,0,0,0,3.6-2.6,158.5,158.5,0,0,1,13.8-8.1c13.2-6.9,17.8-8.7,21.7-10.9S540.4,438.4,523.4,446.5Zm-43.5,68.4a50.6,50.6,0,0,0,6.3-22.9,99.3,99.3,0,0,0-1-17.2c-.2-.4-.2-.8-.4-1.2a1,1,0,0,0-1.2-.4c-1.6,1.4-3.2,2.6-4.5,4-3.2,3.2-6.5,6.3-9.5,9.9l-.6.6-1.8,1.8v.2a.4.4,0,0,0-.4.4h-.2a8.6,8.6,0,0,1-1.2,1.4c-1.8,1.6-3,3.8-4.5,5.5a5.4,5.4,0,0,0-1.8,2.4v.2c-.2,0-.4.2-.6.4a20.8,20.8,0,0,0-3.6,4.9l-.6,1a6,6,0,0,0-1.8,2.6v-.2l-.6,1.2v-.2c-1.8,1.8-2.6,4-3.8,6.1v-.2l-.6,1.2v-.2a4.3,4.3,0,0,1-.6,1,29.2,29.2,0,0,0-3.4,6.5,19.9,19.9,0,0,0-1.4,3h.2a5.6,5.6,0,0,0-1.4,3.4c-.8.6-.6,1.4-1,2a23.7,23.7,0,0,0-2.2,9.5,9.6,9.6,0,0,0-.2,2.4,14.1,14.1,0,0,0,.4,5.7,6.2,6.2,0,0,0,1,2,1.6,1.6,0,0,0,2.2.6,42.6,42.6,0,0,0,6.7-3.4,101.2,101.2,0,0,0,10.9-7.9,93.2,93.2,0,0,0,11.5-11.9A83.4,83.4,0,0,0,479.9,514.9Zm-40.3,14.4h.2v-.2A.2.2,0,0,1,439.6,529.3Zm1.4-3.4.2.2.2-.2v-.4C441.1,525.5,441.1,525.7,440.9,525.9Zm1.4-3a5.4,5.4,0,0,0,2-3.2A6.6,6.6,0,0,0,442.3,523Zm2-3.4a2.1,2.1,0,0,0,.6-1.4A1.8,1.8,0,0,0,444.3,519.6Zm.6-1.6a5,5,0,0,0,1.8-2.4,119,119,0,0,1,7.7-11.7,205.5,205.5,0,0,1,18-21.3l10.5-10.1a2.4,2.4,0,0,0,1-1v-.4h-.2a2,2,0,0,0-1,.8,188.4,188.4,0,0,0-14.2,13.8,159.5,159.5,0,0,0-22.1,29.5A18.1,18.1,0,0,0,444.9,518Zm8.3-18.8h.4a1.2,1.2,0,0,0,.2-.8A2.7,2.7,0,0,0,453.2,499.2Zm.6-1h.6v-.4h.6v-1l-.6,1C454.2,498.1,454,498.3,453.8,498.3Zm.6.2c0,.2-.2.6-.2.8l.6-.8Zm.6-1.8a1.5,1.5,0,0,0,1-.4l.2-.8C455.6,495.7,455.4,496.3,455,496.7Zm1.2-1.4h.4a.7.7,0,0,0,.2-.4h.4v.4l.6-.4h-.6l.6-.6a2.1,2.1,0,0,1,.2-1h.4c.2,0,.4-.2.6-.4v-1a3.5,3.5,0,0,0-1,1.4,3.1,3.1,0,0,0-1.2,1.6C456.6,495.1,456.4,495.3,456.2,495.3Zm.6.2a1.2,1.2,0,0,0-.2.8l.6-.8Zm2.4-3.6h.4l.6-.6v.6c.2-.2.4-.4.4-.6h-.4l.6-.4v-1A3.1,3.1,0,0,0,459.1,491.9Zm1.8-2h.4v-.4A.4.4,0,0,0,460.9,490Zm.4-.6h.6v.6c0-.2.2-.4.4-.6a4.3,4.3,0,0,0,.6-1l.6-.4.6-.6.6-.4h-.6c0-.4.2-.6.2-1h.4v.8l.6-.8c.2-.2.4-.4.4-.6h-.4l.6-.4v.4l.4-.4h-.4l.6-.6v.6l.4-.6.6-1c0-.2-.2-.2-.4-.4h.6v.4c0-.2.2-.2.4-.4l.6-.6.6-.4.6-.6a3.5,3.5,0,0,0,1-1.4h.2l.4-.6H471a.7.7,0,0,0,.2-.4h.4v.4c0-.2.2-.2.4-.4l.6-.6c.2-.2.4-.4.6-.4a24.9,24.9,0,0,0,4-4l.6-.6.4-.4-.4-.2a.2.2,0,0,0,.2-.2h.2a.6.6,0,0,0,.2.4c0-.2.2-.4.4-.6l.6-.4.6-.6.6-.4h-.6a.6.6,0,0,0,.2-.4l.4-.2v.4c.2,0,.2-.2.4-.4h-.4a.7.7,0,0,0,.2-.4h.4v.4c0-.2.2-.2.4-.4h-.4a.7.7,0,0,1,.2-.4l.4-.2c0,.2,0,.4-.2.4s.4-.2.6-.4.4-.4.6-.4l.6-.6h-.4v-.4h.4c0-.6-.2-.4-.6-.2s-.4.4-.6.4l-.6.6c-.2.2-.4.4-.4.6s-.4.2-.6.4-.4.4-.6.4l-.6.6c-.2.2-.4.4-.6.4l-.6.6c0,.2-.2.4-.4.6s-.4.2-.6.4l-.6.6a24.3,24.3,0,0,0-5.1,4.9c0,.2-.2.2-.4.4l-.6.6a7.9,7.9,0,0,0-2.8,3l-.6.6a5,5,0,0,0-2.2,2.4h.4v.6h-.6c0-.2,0-.4.2-.4s-.4.2-.6.4a2.7,2.7,0,0,0-1.2,1.4l-.6.6A2.1,2.1,0,0,0,461.3,489.4Zm1.6-1-.4-.4h.6C463.1,488.2,463.1,488.2,462.9,488.4Zm.2-.4v-.6h.4l.6-.4v.4h-.4a.7.7,0,0,0-.2.6Zm4.5-4.9v-.6h.6c0,.2-.2.4-.2.6Zm1-1v.4h-.4C468.2,482.2,468.4,482.2,468.6,482.1Zm.6-.6v.6h-.6Zm1.4-1.8.4-.2v.6C470.8,479.9,470.8,479.7,470.6,479.7Zm1.6-1.2c0,.2-.2.4-.2.6h-.4v-.4Zm.4-.4v.4h-.4C472.2,478.3,472.4,478.3,472.6,478.1Zm6.3,45.1a2,2,0,0,1,.8-1,1.2,1.2,0,0,0-.2.8c.4-.2.6-.4.6-.8h-.6l.8-1-.2.8c.4-.2.6-.4.6-.8a2,2,0,0,0,.8-1c.4-.2.4-.6.4-1a4.7,4.7,0,0,0,1.4-2.6h-.4a2,2,0,0,1-.8,1l.6-1a3.4,3.4,0,0,0,.2-1.4,4.8,4.8,0,0,0-1.2,1.6c-1,1.8-2.2,3.4-3.2,5.1l-2.4,4a3.1,3.1,0,0,0-1.2,1.6,3.1,3.1,0,0,0,1.4-1.4C477.3,525.3,477.9,524,478.9,523.2Zm-1.8-49.4v.4c-.2-.2-.2-.2-.2-.4Zm.6-.2h-.4v-.4c.2.2.2,0,.4,0S477.7,473.4,477.7,473.5Zm10.9,40.3c-1,.6-1.2,1.6-1.8,2.4a76.7,76.7,0,0,1-7.5,12.1,7.7,7.7,0,0,0-1.2,2.2,5.3,5.3,0,0,0,1.6-1.4,56.4,56.4,0,0,0,6.1-9.1A24.4,24.4,0,0,0,488.6,513.9Zm-9.9-41.7v.4h-.4c0-.2.2-.2.2-.4Zm.6-.6v.6l-.4-.2a.2.2,0,0,1,.2-.2A.2.2,0,0,0,479.3,471.6Zm-.2,51.6a1.2,1.2,0,0,0-.2.8l.6-.8Zm.4-52h.4v.4h-.4Zm1.4,49a8.5,8.5,0,0,0-.2,1h-.4A4.3,4.3,0,0,1,480.9,520.2Zm.4-.2-.4.2a4.3,4.3,0,0,1,.6-1Zm.2-.8c.2-.6.2-1.2.6-1.6a4.4,4.4,0,0,1-.2,1.6Zm.6-50v.4h-.4a.6.6,0,0,1,.2-.4Zm.6-.4v.4l-.4-.2v-.2Zm5.1,51.2a4.3,4.3,0,0,0,.6-1v.2a4.3,4.3,0,0,0-.6,1Zm.6-1c0-.4.2-1,.2-1.4l.6.2Zm.4-5.7c-.2.2-.2.2-.2.4S489,513.5,488.8,513.3Zm.6-89.5.4-.6-.4.4Zm1.8,38.3a1,1,0,0,0,.8-.4l.6-.4h-.6a.6.6,0,0,0,.2-.4l.4-.2v.4c.2,0,.4-.2.6-.4s1-1,1.6-1.4v-.6a5.1,5.1,0,0,0-2.2,1.4l-.6.6-1,.6c-.4.2-.6.4-.4.8Zm8.5-3.4a5.1,5.1,0,0,0-2.2,1.4,8.9,8.9,0,0,0-2.8,2,10.9,10.9,0,0,0-3.8,3v.2h.2a13.1,13.1,0,0,0,3.8-3,6.5,6.5,0,0,0,2.8-2A3.9,3.9,0,0,0,499.6,458.7ZM491.1,417c0,.2,0,.4.2.4l.4-.2h.2l.6-.6v.6c.2-.2.4-.4.4-.6h-.4l.6-.4v.4c0-.2.2-.2.4-.4l.6-.6a24.2,24.2,0,0,0,3.8-2.4c.2-.4.6-.6.4-.8s-.6-.2-.8.2a8.2,8.2,0,0,0-3.8,2.4l-.6.6A4.5,4.5,0,0,0,491.1,417Zm2,43.7h-.6c.2-.2.2-.2.2-.4S492.9,460.5,493.1,460.7Zm.6-45.1a.7.7,0,0,1-.2.6h-.4c0-.2,0-.4.2-.4Zm0-.2.4.2h-.4Zm1.2,43.3h.4v.6l.4-.6h-.4v-.4c.2,0,.4.2.6.4a6,6,0,0,1,1-1.4,2.7,2.7,0,0,0-1.6,1C495.1,458.5,494.9,458.5,494.9,458.7Zm2.8-2a2.3,2.3,0,0,0,1.4-1A3.6,3.6,0,0,0,497.7,456.7Zm4.2.6a1.7,1.7,0,0,0-1.4.8A2,2,0,0,0,501.8,457.3Zm2.2-1.6a3.6,3.6,0,0,0-1.4,1A2.3,2.3,0,0,0,504,455.8Zm1.6-1a3.6,3.6,0,0,0-1.4,1A3.5,3.5,0,0,0,505.6,454.8Z" transform="translate(-234.9 -304.6)"/><path class="cls-1" d="M583.3,428.9a4.7,4.7,0,0,1-.4,1.6c0,.2-.2.4-.4.6-3.2,2.6-6.5,5.1-9.9,7.7s-9.3,7.1-13.6,10.7c-7.7,5.7-15.2,11.7-22.9,17.4a57.7,57.7,0,0,1-7.3,4.7,11.1,11.1,0,0,1-3.6,1.4,4.1,4.1,0,0,1-3.8-1l-1-.6a5,5,0,0,1-2.2-5.3c.4-3,.8-6.1,2.2-8.9a13.1,13.1,0,0,0,1.8-3.8,104.4,104.4,0,0,1,6.5-12.3c2.4-4.3,4.7-8.5,7.3-12.7s5.5-8.1,8.7-12.1a3.3,3.3,0,0,1,1.6-1.2c2.2,1.2,2.6,2,1.6,4.3a38.5,38.5,0,0,1-3.4,7.1c-1,1.6-1.8,3.2-2.6,4.7a1.5,1.5,0,0,0-.4.8h.4c-.4.4-.6.6-.6,1a8.5,8.5,0,0,0-1.8,2,28.1,28.1,0,0,1-2.6,4.7,7,7,0,0,1-.8,1.8c-.2.4-.4.6-.4.8l.4.2h-.4a7.3,7.3,0,0,0-2.2,3.8,5.2,5.2,0,0,0-1.4,3,6.2,6.2,0,0,0-1.6,3,9,9,0,0,0-2,4.2c0,.2,0,.4-.4.6-1.8,2.4-2.4,5.1-3.4,7.7a9.6,9.6,0,0,0-.2,2.4c0,.4.6.6,1,.6l1-.6,3.8-2.4c1.8-1.2,3.4-2.6,5.1-3.8,4.2-3.2,8.5-6.3,12.7-9.3s6.3-4.3,9.3-6.7c4.5-3.4,9.3-6.7,13.8-10.3l8.3-5.9a2.4,2.4,0,0,1,3-.4Zm-56.5,28.5v0Zm1-2.2c.4-.4.4-.8.6-1.2s.2-.8.4-1v-.2c-.2.4-.2.8-.4,1.2a2.6,2.6,0,0,1-.6,1Zm2-4.2.4-.2a.2.2,0,0,1-.2-.2C529.9,450.8,529.7,450.8,529.7,451Zm2.4-4c0-.4.2-.6.2-1A8.5,8.5,0,0,0,532.1,447.1Zm22.5-41.7c-.6-1-1.4-1.8-1-3a9.9,9.9,0,0,1,1-2.6,66,66,0,0,1,7.1-9.5,10.4,10.4,0,0,1,2.2-2,1.8,1.8,0,0,1,2.4,0,10.9,10.9,0,0,0,1.8,1.4,17.4,17.4,0,0,1-1.6,2,3.1,3.1,0,0,0-1.8,1.8,1.3,1.3,0,0,0-1,1.4,2.8,2.8,0,0,1,1.2-1.4,12.7,12.7,0,0,1,1.6-1.8l2.2-.6a7.6,7.6,0,0,0-.8,1,13.6,13.6,0,0,0-4.5,4.3,39.1,39.1,0,0,0-3.8,6.1,21.6,21.6,0,0,1-2.6,3.4C556,406.1,555.2,406.1,554.6,405.4Zm9.3-14.8h.2c.4.2,1-.2,1-.8h-.2c-.4-.2-.6-.2-.8.2A.7.7,0,0,0,563.9,390.5Z" transform="translate(-234.9 -304.6)"/><path class="cls-1" d="M658.6,441.7c-2.4,0-4.5,1.6-6.5,2.6-7.5,3.8-14.4,8.5-21.5,12.8s-12.5,7.3-18,12.1a45.9,45.9,0,0,1-3.8,2.8,8.6,8.6,0,0,0-3.2,4.3h-.2q-.3-.6-.6,0a10.1,10.1,0,0,0-1.4,3.4,3.4,3.4,0,0,0-.4,1,28.1,28.1,0,0,0-1.6,3.6,57.8,57.8,0,0,0-2.8,6.1,7,7,0,0,0-.6,2.2v.2l-.6.8a9.9,9.9,0,0,0-1,2.6c0,.4-.2.6-.4,1a5.8,5.8,0,0,0-1,2.6v-.2l-.6,1.2.2-.2a4.2,4.2,0,0,0-1,2.6h-.2c.2,1.2-.6,2-1,3a1.5,1.5,0,0,1-.4,1l-1,1.6a4.3,4.3,0,0,0-.6,1h.2c-.6.6-.4,1.2-.6,2a4.3,4.3,0,0,0-.6,1h.2c-1,1.8-1.8,3.6-2.6,5.3a18.5,18.5,0,0,1-1,2c-2.8,5.9-5.5,12.1-8.5,17.8s-5.3,10.5-8.1,15.6-6.1,11.3-9.5,16.8-7.7,13-12.7,19a94.8,94.8,0,0,1-9.7,10.3,38.7,38.7,0,0,1-4.5,3.4,15,15,0,0,1-6.5,2.2c-4.3.4-9.3-2.4-10.9-6.3a19.5,19.5,0,0,1-1.4-7.5,36.4,36.4,0,0,1,.6-6.5c.8-4.5,2.8-8.9,4.3-13.2,2.4-6.7,5.9-12.8,9.5-19s5.7-9.5,8.7-14,7.7-11.3,11.9-16.8a193.4,193.4,0,0,1,22.1-25.3c5.3-5.1,10.9-10.1,16.4-15,2-1.8,4.3-3.2,6.3-4.9a9.5,9.5,0,0,0,3-4c1.6-4.3,3.8-8.5,5.5-12.8s4.5-10.3,6.5-15.4c.4-1,1-2,1.4-3,1.6-4,4-7.7,5.3-11.9.8-2.2,1.2-4.7,2.6-6.7a1.6,1.6,0,0,0-.4-2l-4.3,5.9a5.3,5.3,0,0,0-1.4,1.6,4.3,4.3,0,0,0-.4,2.2c0,.6.2,1.2.2,1.8s-.6.8-1.4.8-.4-.4-.8-.6-.8-.2-1,.2c-2,4-5.7,6.3-8.1,9.9-.2.2-.4.4-.4.6s-.4.2-.6.4l-.6.6a15.2,15.2,0,0,0-3.4,3.8,3.5,3.5,0,0,1-.8,1,34.6,34.6,0,0,1-9.1,6.9,19.7,19.7,0,0,1-5.1,1.8c-3.6.8-6.7-.4-9.5-3s-3-5.5-4.7-8.9a2.5,2.5,0,0,1-.2-1.2,16.4,16.4,0,0,1,2.2-7.9,32.5,32.5,0,0,1,9.7-11.1,26.3,26.3,0,0,1,18-4.5,15.8,15.8,0,0,1,7.3,2.2,6.6,6.6,0,0,0,2,1.2,1.3,1.3,0,0,0,1.6-.4c1.2-1.2,2-2.4,3-3.6,3.6-4.3,6.7-9.3,10.3-13.6,1.6-2,2.8-4.3,4.7-6.3l3-3a1.6,1.6,0,0,1,2.2-.2,18.8,18.8,0,0,1,3.2,3.8,3.6,3.6,0,0,1,.6,3.2c-.4,1-.6,2-1,3-1.6,4-3,7.9-4.3,11.9a23.1,23.1,0,0,1-2,5.1,21.5,21.5,0,0,0-1.2,2.2v-.2c-1,1.6-1.2,3.4-2,5.1a12.2,12.2,0,0,0-1.4,3.8v.6a10.8,10.8,0,0,0-1.6,3c-.6.6,0,1.4-.4,2a7,7,0,0,0-1,1.6c-.4.8-.4,1.8-1,2.4l-.6,1.6a3.2,3.2,0,0,0-1,2,1.9,1.9,0,0,0-.4,1.4,4.3,4.3,0,0,1-.6,1,12.1,12.1,0,0,0-1,2.4,5.8,5.8,0,0,0-1,2.6c-.2.6-.8,1-1,1.6a35.2,35.2,0,0,1-2.4,5.7c-.2.4-.2.8-.4,1.2a2.9,2.9,0,0,0,2.6-.4,37,37,0,0,0,3.6-2.4q8-5.3,16.6-10.7c5.7-3.6,11.7-7.3,17.8-9.9a19.2,19.2,0,0,1,3.8-1.6,4,4,0,0,1,4.5,2.2C659.2,441.1,659,441.7,658.6,441.7ZM569.8,534c.8-1.8,1.8-3.4,2.6-5.1,1.6-3.6,3.4-6.9,4.9-10.5s4.2-8.5,5.9-13a70.7,70.7,0,0,1,3.8-8.9c1.4-2.4,1.4-5.7,3.4-7.7.2-.2,0-.8.2-1a.4.4,0,0,0-.2-.6h-.6c-1,0-1.6,1.4-2.6,1.6a6.6,6.6,0,0,1-3.6,3l2.8-3,.8-.2c.8-1.2,2.2-2,3.2-3.2s1.4-1.4,1-1.4-1,.6-1.4,1a22.3,22.3,0,0,0-4,3.6,33.8,33.8,0,0,0-4.9,4.3l-.4.6-.6.4-.4.6-.6.4-.4.6-.6.4a32.9,32.9,0,0,0-4.5,4.5c0,.2-.2.2-.4.4s-.6.4-.6.6-.2.2-.4.4a60.9,60.9,0,0,0-5.9,6.5l-.6.4a32.2,32.2,0,0,0-3.4,4,16.7,16.7,0,0,0-3,3.6,48.3,48.3,0,0,0-6.3,7.9,5,5,0,0,0-1.6,2,7.7,7.7,0,0,0-1.6,2,7.1,7.1,0,0,0-1.4,2,5.1,5.1,0,0,0-1.4,2.2,2.1,2.1,0,0,0-1.2,1.4,15.9,15.9,0,0,0-2.4,3.6,2.5,2.5,0,0,0-1,1.4,2.3,2.3,0,0,0-1,1.4,2.7,2.7,0,0,0-1,1.6,2.3,2.3,0,0,0-1,1.4,12.6,12.6,0,0,0-2.4,4.2,9.8,9.8,0,0,0-3,4.9,3.3,3.3,0,0,0-1.6,2.4,12.5,12.5,0,0,0-2.4,4.5,1.1,1.1,0,0,0-.6,1,2,2,0,0,0-.8,2,3.5,3.5,0,0,0,.8-2,1.1,1.1,0,0,0,.6-1,12.1,12.1,0,0,0,2.6-4.3,6.5,6.5,0,0,0,1.4-2.6l1-.6a1.5,1.5,0,0,0,.4-.8,4.3,4.3,0,0,1,1-1.6l.6-2,2-2a8.2,8.2,0,0,1-2.4,4,4.3,4.3,0,0,1-1,1.6c-.2.2-.2.6-.6,1a12.4,12.4,0,0,1-2,4.3,39.9,39.9,0,0,0-3.6,6.3,26.7,26.7,0,0,1-3,5.1v-1.6a8.8,8.8,0,0,0-2,4.3l1.6-1.8a7.1,7.1,0,0,1-.8,2.2l-3,8.5c-1.4,4.3-2.8,9.1-2,13.8a19.5,19.5,0,0,0,2.2,6.5c1.2,2,2,2.2,4,1a31.3,31.3,0,0,0,6.3-5.1c6.1-6.1,10.7-13.4,15.2-20.8,1-1.6,2-3.4,3-5.1,3-5.1,5.7-10.3,8.7-15.6S566.9,540.8,569.8,534Zm-48.4,45.5a2.7,2.7,0,0,0,.4-1.8A5.8,5.8,0,0,0,521.4,579.5Zm.4-2c1-1,1.2-2.4,1.6-3.6C522.4,575,522.2,576.3,521.8,577.5Zm1.6-3.8a3.6,3.6,0,0,0,1-2.4,1.1,1.1,0,0,0,.4-1,1.5,1.5,0,0,0-.4,1A2.7,2.7,0,0,0,523.4,573.8Zm3.4-6.3c0,.4-.2.6-.4,1A1.5,1.5,0,0,1,526.7,567.4Zm.2-1.6a13.1,13.1,0,0,0,1.8-3.8A4.6,4.6,0,0,0,526.9,565.9Zm9.9-23.3a1,1,0,0,0,.4-.8A1.5,1.5,0,0,0,536.8,542.5Zm1-1.6a1,1,0,0,0,.4-.8C538,540.6,538,540.8,537.8,541Zm1.4,4.2a1.5,1.5,0,0,1,.4-1,1.8,1.8,0,0,0,.2-1l.8-.6c.2-.2.2-.4.2-.8l.8-.6c.2-.2.2-.6.4-.8a2.4,2.4,0,0,0,.8-1.6,2.7,2.7,0,0,0,1-1.6,6,6,0,0,0,1.4-1,12.3,12.3,0,0,1-3.4,4.9c-.2.6-.4,1.2-1,1.4a3.1,3.1,0,0,1-1,1.6C539.6,544.5,539.6,544.9,539.2,545.1Zm4.9-13.4,1-.4c-.2-.2-.4-.4-.4-.6h.4v-.4l-.4.4A4.3,4.3,0,0,1,544.1,531.7Zm1,4.5a2.7,2.7,0,0,1,1-1.6A1.8,1.8,0,0,1,545.1,536.2Zm1-1.6a1.2,1.2,0,0,1,.2-.8,4.3,4.3,0,0,0,1-1.6,3.6,3.6,0,0,0,1.4-2,3.5,3.5,0,0,0,1.4-1A10.6,10.6,0,0,1,546.1,534.6Zm1-7.5.4.2v-.4Zm1-1c.4,0,.6-.2,1-.4s.4-.2.4-.4h-.4v-.6h.4v-.4c0,.2-.2.2-.4.4s-.4.4-.4.6Zm.6-.8h.4v.4C548.9,525.5,548.7,525.5,548.7,525.3Zm1.4,4c0-.4.2-.6.2-.8a5.1,5.1,0,0,0,1.4-2.2,4,4,0,0,0,1.6-2c.8-.6,1.4-1.6,2.4-2-.4,1.4-1.6,2.2-2.2,3.2s-1.8,1.8-2.4,3A2,2,0,0,1,550.1,529.3Zm0-6.1.4.2v-.6A.4.4,0,0,1,550.1,523.2Zm.6-.4h.4v-.4C550.8,522.6,550.6,522.6,550.6,522.8Zm1.4-2h.4c0-.2.2-.2.2-.4h.4a12.4,12.4,0,0,1,.4-1.4,2,2,0,0,0-.8,1.4Zm2-2.6.4.2c0-.2.2-.4.2-.6h.4v-.4l-.4.4C554.4,518,554.2,518.2,554,518.2Zm1-1a1.7,1.7,0,0,0,1.4-.8h.2c0-.2.2-.4.4-.6s.4-.2.4-.4H557v-.4c.2,0,.4.2.6.4a17.2,17.2,0,0,1,1.4-2c.2-.2.4-.4.4-.6h-.4v-.4h.6v.4l.4-.4h-.4v-.6h.4v.4a.4.4,0,0,0,.4-.4h-.4v-.4c.2,0,.4.2.6.4l1.4-2c.2-.2.4-.2.4-.4h-.4v-.6h.6v.4c.2,0,.2-.2.4-.4s.4-.4.6-.4h-.6v-.6h.6v-.4l-.6.4-.4.6-.6.4-.4.6a2.7,2.7,0,0,0-1.6,2l-.4.4-.6.6-.4.4a3.7,3.7,0,0,0-1.6,2c-.2.2-.4.4-.4.6l-.6.4A6,6,0,0,0,555,517.2Zm.6,5.1a3,3,0,0,1,1.4-2A3.3,3.3,0,0,1,555.6,522.4Zm1-5.9-.6-.6h.6Zm0-.6v-.4h.4v.4Zm3,1.6a4.8,4.8,0,0,1-2,2.4A3.8,3.8,0,0,1,559.5,517.4Zm-.6-4c-.2-.2-.4-.4-.4-.6h.4Zm3.6.4a8.7,8.7,0,0,1-3,3.6,1.8,1.8,0,0,1,.2-1C560.7,515.9,561.3,514.5,562.5,513.9Zm-1-4.3h.4v.4C561.7,509.7,561.5,509.7,561.5,509.5Zm1-.6v-.4h.4v.4Zm3.4,1a1.7,1.7,0,0,1-.4,1.2c-1,1-1.8,2.2-3,2.8a1.2,1.2,0,0,1,.2-.8C563.9,512.1,564.5,510.7,565.9,509.9Zm-2.4-2.6a5.4,5.4,0,0,0,2.4-1.8l-.4-.6h.4v.4c.2,0,.4-.2.6-.4s.2-.4.4-.4h-.4V504h.4v.4c.2,0,.4-.2.6-.4s.2-.4.4-.4h-.4V503h.4v.4c.2,0,.4-.2.6-.4s.2-.4.4-.4h-.4V502h.4v.4c.2,0,.4-.2.6-.4a102.8,102.8,0,0,1,9.3-9.3.7.7,0,0,0-.2-.4.2.2,0,0,1,.2-.2v.4c.2,0,.4-.2.6-.4s.2-.4.4-.4h-.4v.4h-.6c.2-.2.2-.2.2-.4l.4-.2v-.4h.4v.4c.2,0,.4-.2.6-.4s.2-.4.4-.4h-.4v.4h-.6c.2-.2.2-.2.2-.4l.4-.2v-.4h.4v.4c.2,0,.4-.2.6-.4,2.4-2.2,4.9-4.3,7.3-6.3v-.2c.2,0,.4-.2.6-.4a5.8,5.8,0,0,0,2-2.4c.2,0,.4,0,.4-.2v-.4l-.4.4a5.3,5.3,0,0,0-2.6,2l-.6.6a5,5,0,0,0-1.4.8c-1.8,1.8-3.6,3-5.3,4.7a4.3,4.3,0,0,0-.6,1,.4.4,0,0,0-.4.4c-.2.2-.4.4-.6.4s-.4.4-.4.6-.4.2-.6.4l-.6.6a4.1,4.1,0,0,0-1.2.8l-7.1,7.1a4.3,4.3,0,0,0-1,1.6l-.4.4-.6.6-.4.4-.6.6-.4.4-.6.6-.4.4A4.6,4.6,0,0,0,563.5,507.4Zm2.4-2.4v-.4h.6v.4Zm4.5,0a3,3,0,0,1-.8,1.6c-1.2,1.2-2.2,2.6-3.8,3.4a1.2,1.2,0,0,0,.2-.8c.2-.2.4-.4.4-.6a19.6,19.6,0,0,0,2.2-2A6.8,6.8,0,0,1,570.4,505Zm-3.6-1v-.4h.6v.4Zm1-1v-.4h.6v.4Zm1-1v-.4c.2,0,.4.2.6.4Zm2.8,35.2a33.7,33.7,0,0,1,3.8-6.9,3.4,3.4,0,0,1,.2-1.4c.8-1,1-2.2,1.8-3.2s.2-.6.4-1v1a4.4,4.4,0,0,0,.6-1l.4-1,.6-1a12,12,0,0,0,1-2.4,1.5,1.5,0,0,0,.4-1,2.6,2.6,0,0,0,.6-1c.2-.4.4-.6.4-1a7.9,7.9,0,0,0,2-4.5c.6-.2.6-.6.6-1a5.6,5.6,0,0,0,1.4-3.4c.4-.4.6-.6.6-1s.4-.6.4-1h-.4v-1.4l.6-.2v1.4a4.2,4.2,0,0,0,.8-2.4h-.4a1.5,1.5,0,0,0,.4-1,1.8,1.8,0,0,1,.2,1,30497384.9,30497384.9,0,0,0,.8-2h-.4v-1.4h.6V502a5.6,5.6,0,0,0,.8-2.4h-.4a3.4,3.4,0,0,0,.4-1,1.2,1.2,0,0,0,.2.8,1.5,1.5,0,0,1,.4-.8h-.6v-1.6a10.5,10.5,0,0,0-1.6,3.4,18.7,18.7,0,0,0-2,4.5c-.2.6-.8,1.2-1,1.8-2.4,7.3-6.1,14-9.5,20.8-.2.4-.2.8-.4,1.2l-.6,1c-1.4,3-3.2,5.7-4.2,8.7l-.6,1.6A8.3,8.3,0,0,0,571.6,537.2Zm-.8-32.6a2,2,0,0,1,1-1.2A1.3,1.3,0,0,1,570.8,504.6Zm4,34.8a3.8,3.8,0,0,0-1,1.8,9.8,9.8,0,0,0-2,3.8,5.4,5.4,0,0,0,2-3.8A1.9,1.9,0,0,0,574.8,539.4ZM572.4,503a1.2,1.2,0,0,1,.2-.8l.4-.4c.2-.2.6-.4.6-.6s.2-.4.4-.6a30.2,30.2,0,0,0,4.3-4.3l.6-.6.6-.4.4-.6c.2,0,.4-.2.6-.4s.2-.6.4-.6.4-.2.6-.4l.8-.2a4.3,4.3,0,0,1-1,1.6l-7.5,7.3C573.4,502.4,573,503,572.4,503ZM604,426.3l-1.2-.6c-2.4-1.2-5.1-.8-7.7-.4a25.2,25.2,0,0,0-11.7,4.7,12.2,12.2,0,0,0-3.6,3.6.7.7,0,0,0-.6.2.4.4,0,0,0-.4.4h-.2a17.3,17.3,0,0,0-4,5.9v.6a19.4,19.4,0,0,0-1,3.2,16,16,0,0,0-.2,6.1c.4,2,1,2.2,3.2,2.2l.6-.2a8.5,8.5,0,0,0,4.7-2,72.2,72.2,0,0,0,6.1-4.7,101.2,101.2,0,0,0,11.1-11.5c1.6-2,3.6-3.4,4.5-5.5l.4-1C604.4,426.9,604.4,426.5,604,426.3Zm-30,6.3c.6-.6,1.2-1,1.4-1.8A2.5,2.5,0,0,0,574,432.6Zm9.7-4.5a15.1,15.1,0,0,0-6.9,6.1l-.4,1a2.3,2.3,0,0,0-1,1.4,3.6,3.6,0,0,0,1-1.4c.4-.2,1-.4,1.2-.8a12.4,12.4,0,0,1,5.1-4.9,5.2,5.2,0,0,0,1.2-1,1.8,1.8,0,0,0,1.2-1.2A3.2,3.2,0,0,0,583.7,428.1Zm-7.1,108.3a13.7,13.7,0,0,1,1-2.6l-1.6,2.4a3.3,3.3,0,0,0-.6,2A3.5,3.5,0,0,0,576.5,536.4Zm-.8-106.2h.6c.8.2,1.4-.4,2-1s.2-.4.4-.4h-.4v.4h-1v-.4l1-.2a.4.4,0,0,0,.4-.4v.4c.2,0,.4-.2.6-.4s.2-.4.4-.4h-.4v-.4l.4.2a4.3,4.3,0,0,0,1-.8,3.4,3.4,0,0,0,.4-1,4.1,4.1,0,0,0-2,1.2,3.1,3.1,0,0,0-1.8,1.8.4.4,0,0,0-.4.4h.4l-.6.6-.4.4v-.4C576.1,429.9,575.9,430.1,575.7,430.3Zm.6-.6h.4v-.4C576.5,429.5,576.5,429.7,576.3,429.7Zm2,94.1v1h-.6A4.4,4.4,0,0,0,578.3,523.8Zm.4-1v1h-.4C578.5,523.6,578.5,523.2,578.7,522.8Zm0-94.5c.2-.2.4-.4.6-.4v.4Zm.6,94.5h-.6A.4.4,0,0,1,579.3,522.8Zm0-88.6v-.4h.4C579.5,433.8,579.5,434,579.3,434.2Zm1.4,84.2v1h-.4Zm0-28.3v-.4c.2,0,.4.2.6.4Zm.6,27.3v1h-.6Zm.4,0h-.4C581.5,517.2,581.7,517.2,581.7,517.4Zm.6-24.3a1.6,1.6,0,0,1,1-1A1.3,1.3,0,0,1,582.3,493.1Zm1.4,18.8v1l-.4-.2c0,.2,0,.2-.2.2Zm-.6,1h.2C583.3,513.1,583.3,513.1,583.1,512.9Zm2.6-5.3v1l-.4-.2H585Zm-.6,1v-.2C585.2,508.5,585.2,508.5,585,508.5Zm.6-1a4.3,4.3,0,0,1,.6-1v1Zm16.8-29.7a5.2,5.2,0,0,0-1.4,3.4,14.8,14.8,0,0,0-1.4,2.4c-2,4-3.8,8.5-5.5,12.7-2.8,6.5-5.3,13.4-8.1,20a70.9,70.9,0,0,0,3.4-6.7c3.4-7.5,7.3-14.8,9.9-22.7.6-1.8,1.6-3.4,1.8-5.5A5.6,5.6,0,0,0,602.4,477.9ZM587.6,503a4.3,4.3,0,0,0,.6-1v1Zm2-55.4.6-.6v.4a.4.4,0,0,0,.4-.4h-.4l.4-.4.6-.6v.4a.4.4,0,0,0,.4-.4h-.4c.2-.2.4-.2.4-.4a.7.7,0,0,1,.2.4c0-.2.2-.2.4-.4s.4-.4.4-.6h-.4v-.4h.4v-.6h.6v.4a.4.4,0,0,0,.4-.4h-.4v-.4h.4v-.6c-.2.2-.4.2-.4.6s-.4.2-.6.4-.2.4-.4.4a21.2,21.2,0,0,0-4.3,4C588.4,448.4,589,447.9,589.6,447.7Zm-1,35.6v.4a.7.7,0,0,1-.2-.4Zm.6,0h-.6c.2-.2.2-.2.2-.4S589,483,589.2,483.2Zm1.4,12.8v-1.4c-.4.8-1,1.4-.8,2.4s.6-.6.8-1l.2,1.4a2.8,2.8,0,0,1,.4-1.2Zm.6-49.4h-.4v.4C590.8,446.9,591,446.9,591.2,446.7Zm.4-1,.6-.6v.6Zm4.7,0L592,450l-.4.4C593.5,449.8,594.9,447.9,596.3,445.7Zm-4.5,34.6a.4.4,0,0,0,.4.4,3.2,3.2,0,0,0,1.4-1.8A2.5,2.5,0,0,0,591.8,480.3Zm0,12.3c.2-.4.2-.8.4-1.2A2.8,2.8,0,0,0,591.8,492.5Zm1-47.8v.4c0-.2.2-.2.4-.4Zm1.4-1.6v-.4h.4v-.6c0,.2-.2.4-.4.6s-.4.2-.4.4h.4v.4a.4.4,0,0,0,.4-.4Zm-.4.6v.4c0-.2.2-.2.4-.4Zm2-2c0-.2.2-.4.4-.6s.2-1,.4-1.4a4.5,4.5,0,0,0-1.4,2c-.2.2-.4.2-.4.4h.4v.4a.4.4,0,0,0,.4-.4h-.4v-.4h.6v.4c0-.2.2-.2.4-.4Zm-1,1v.4c0-.2.2-.2.4-.4Zm1.4,54.4h.4C596.5,497.3,596.3,497.3,596.1,497.1Zm.6-1,.4.2c-.2.2-.2.6-.4.8Zm.8-2.4v-.2l.2.2Zm2.6-50.2v-.4h.4A.4.4,0,0,1,600.1,443.5Zm.6-.4v-.4h.4A.4.4,0,0,0,600.7,443.1Zm2.8,37.8H603v-.2C603.2,480.7,603.4,480.7,603.4,480.9Zm0-1.2h.2v.2A.2.2,0,0,0,603.4,479.7Zm0,1.2.2-.2v.2Zm.2-.2v-.8h.6Zm.6-1v.2C604,479.7,604,479.7,604.2,479.7Zm5.1-9.3-.8.4A1,1,0,0,0,609.4,470.4Zm2-1.4a2,2,0,0,0-1.4.8C610.5,469.6,611.1,469.4,611.3,469Zm1.6-1a1.7,1.7,0,0,0-1.4.8A2,2,0,0,0,612.9,468Zm2.4-5.1a7.9,7.9,0,0,0-3.2,2.6A4.6,4.6,0,0,0,615.3,462.9Zm-1,4.2a.8.8,0,0,0-.8.4Zm-.2-11.9-.2-.2h.2Zm3.8,9.3a2.3,2.3,0,0,0-1.4,1A3.5,3.5,0,0,0,617.9,464.5Zm1.4-1-.6.4C618.8,463.9,619,463.7,619.2,463.5Zm3.6-5.3a2,2,0,0,0-1.4.8A3.2,3.2,0,0,0,622.8,458.1Zm2.4,1.4-.8.4A1,1,0,0,0,625.2,459.5Zm4.5-3c-.6,0-1,.4-1.4,1S629.5,457.1,629.7,456.5Z" transform="translate(-234.9 -304.6)"/><path class="cls-1" d="M734.9,435.4h1a2.4,2.4,0,0,1-1,1,29.2,29.2,0,0,1-2.6,1.6,129.4,129.4,0,0,0-11.5,6.3l-2.6,1.4c-3.8,2.4-7.7,4.5-11.5,6.9s-4.5,2.6-6.9,3.8a29.9,29.9,0,0,1-4,1.2,6.8,6.8,0,0,1-7.7-2.6,15.1,15.1,0,0,1-1.6-2.2c-1-1.6-1.6-3-1-4.9a29.2,29.2,0,0,1,2.6-6.9l1.2-3.2c.2-.6-.2-1-1-.8a15,15,0,0,0-2.2.8c-3,1.4-5.9,3-8.9,4.5a44.1,44.1,0,0,1-4.5,3,4.3,4.3,0,0,0-1,.8,28.4,28.4,0,0,0-3,2.2h.2c-3.2,2.6-6.3,5.1-9.7,7.5a9.7,9.7,0,0,1-4,2.2c-1.8,1-5.5.2-6.5-1.6l-1-1.2a4,4,0,0,1-1.2-4.5,29.9,29.9,0,0,1,3-7.3c1.2-2,2.2-3.8,3.2-5.7a133.4,133.4,0,0,1,8.7-12.8c2.4-3.2,5.1-6.3,7.9-9.5,1.2-1.2,2.6-2.4,4-3.6s1-.6,1.6.2,1,0,1,.8a3.6,3.6,0,0,1-.2,2l-1.2,1.6c-2.8,4.2-5.5,7.9-8.3,12.1a6.7,6.7,0,0,0-1.2,2.4,39.4,39.4,0,0,0-4.9,7.7,1.5,1.5,0,0,1-.2.8c-.2.4-.4.4-.6.8v.6l-.8,1.2a1.2,1.2,0,0,0-.4,1.4,4.1,4.1,0,0,0-.8,1.2,1.7,1.7,0,0,0-1,2.2.7.7,0,0,0,1,.4c.8-.4,1.4-1.2,2.4-1.8a77.9,77.9,0,0,1,14-9.9,69.9,69.9,0,0,1,9.5-4.5,14.5,14.5,0,0,1,3.8-1.4,6.5,6.5,0,0,1,6.5,1.4,20.9,20.9,0,0,1,3.4,4,5.5,5.5,0,0,1,.4,4,21.8,21.8,0,0,1-1.8,6.1c-.6,1.4-1,3-1.8,4.5a.7.7,0,0,0,.2.6h.8l1.8-.8,8.5-4.3c5.1-2.6,10.3-4.9,15-7.7,2-1,4.2-1.8,5.9-2.6l2.8-1.4,2-1a4,4,0,0,1,4.7,1.4c.4.2.4.6.2,1S734.9,434.8,734.9,435.4Zm-77.5,15a4.8,4.8,0,0,0,2.2-1.8h.6c.2,0,.2.2.2.4a.4.4,0,0,1,.4-.4l.4-.4h-.4l.4-.6a.7.7,0,0,0,.2.6c0-.2.4-.4.6-.6h-.8c.2-.4.8-.6,1.4-.8v.4c.2,0,.2-.2.2-.4h-.2a.6.6,0,0,0,.2-.4c.2-.2.4-.4.6-.4v.4h-.4v.4c0-.2.2-.2.4-.4a2.5,2.5,0,0,0,1.2-.8h-.8a1.5,1.5,0,0,1,1.4-1v.4a.6.6,0,0,0,.2-.4h-.2c.2,0,.2-.2.4-.4a2.4,2.4,0,0,1,1-1l.8-.4c.4-.4.6-.8,1.2-.8v.4l.4-.4h-.4a.4.4,0,0,0,.4-.4l.6-.8h.8c.2-.2.2-.6.4-1a3751,3751,0,0,0,2.4-1.6,1.4,1.4,0,0,0-1.2.8,2995.6,2995.6,0,0,1-2.8,1.6,9.6,9.6,0,0,0-2.8,2.2,31.5,31.5,0,0,0-6.9,5.5,4.3,4.3,0,0,0-2,1.8l-.6.6C657,450.6,657.2,450.4,657.4,450.4Zm19.2-9.5a2.5,2.5,0,0,0-2.2,1.2,2.1,2.1,0,0,0-1.4.6c-4.5,2.8-8.5,6.3-12.7,9.7-.2.2-.2.6-.4,1a1.7,1.7,0,0,0-1.2.6,1.7,1.7,0,0,0,1.2-.6,7.5,7.5,0,0,0,2.8-2.2c3.8-2.8,7.3-5.9,11.3-8.5l.4-.6A3,3,0,0,0,676.6,440.9Zm-16.4,7.7.6-.4v.4Zm8.9-6.9v.4l.6-.4Zm39.7,7.7a1.8,1.8,0,0,0-1.2.8A4.1,4.1,0,0,0,708.8,449.4Zm2-1.2a4.1,4.1,0,0,0-1.2.8c-.2.2-.6.2-.6.4l.6-.4A1.8,1.8,0,0,0,710.8,448.2Zm.8-.6c0,.2-.4.4-.6.4S711.6,448,711.6,447.7Zm2.4-1.2a1.8,1.8,0,0,0-1.2.8C713.1,447.1,713.7,447.1,713.9,446.5Zm.8-.4a.9.9,0,0,0-.6.2A1,1,0,0,0,714.7,446.1Zm.8-4.3-.6.4C715.1,442.1,715.3,442.1,715.5,441.7Zm0,4c-.2,0-.4.2-.6.4Zm2.2-1.4c-.8.4-1.6.4-2,1.4A7.1,7.1,0,0,0,717.7,444.3Zm1-.4c-.4,0-.8.2-.8.4Zm.6-.4a1,1,0,0,0-.6.2A.9.9,0,0,0,719.3,443.5Zm2.4-1.4-.8.4A1,1,0,0,0,721.6,442.1Zm.8-.2c-.2,0-.6,0-.6.2Zm4-2.4a1,1,0,0,0-.8.4,3.2,3.2,0,0,0-2.2,1.4c.8-.4,1.6-.4,2.2-1.4Zm3.8-2.2-.4.2-.2.2c0,.2.2.2.4,0S729.9,437.6,730.1,437.4Z" transform="translate(-234.9 -304.6)"/><path class="cls-2" d="M304.2,466l-2-2c-3.4-4.4-1-8.4,1.7-10.7a11.7,11.7,0,0,1,8-2.7,16.3,16.3,0,0,1,9.4,4.4,3.1,3.1,0,0,1,1,4,40.5,40.5,0,0,0-1.7,6c-.3,1.3.7.7,1,.3a1.4,1.4,0,0,1,1.3,1.3,2.5,2.5,0,0,1-1.3,2.3c-3.7,3-9.4,4-13.7.3A33.3,33.3,0,0,1,304.2,466Z" transform="translate(-234.9 -304.6)"/></svg>