<svg width="45" height="45" viewBox="0 0 45 45" fill="none" xmlns="http://www.w3.org/2000/svg">
<path d="M44.1692 2.09048C43.4363 1.13303 42.2999 0.584229 41.0503 0.584229C40.2431 0.584229 39.4073 0.808815 38.5647 1.25123L2.68996 20.0608C0.140144 21.3998 -0.0371613 23.416 0.00505417 24.2198C0.045581 25.0287 0.435652 27.0128 3.11042 28.0749L7.69502 29.8885C8.56466 30.233 9.53731 30.4103 10.5843 30.4103C10.7497 30.4103 10.9085 30.3883 11.0723 30.3799C11.0098 30.461 10.9338 30.5234 10.8764 30.6079C10.0219 31.8861 9.97972 33.6187 10.7531 35.4846C10.7649 35.5167 10.7768 35.5437 10.7886 35.5707C12.1445 38.5748 13.6525 41.9655 13.8348 42.4366C14.284 43.6085 15.4289 44.4157 16.6852 44.4157C18.6204 44.4157 19.1945 43.4836 22.3607 38.3299C22.6072 37.9517 23.156 37.0736 23.2489 35.9557C23.6187 36.106 23.9666 36.2445 24.2638 36.3644L29.3431 38.4346C30.3614 38.85 31.2529 39.2164 31.7224 39.4106C31.8676 39.5001 32.0213 39.5761 32.1817 39.642C32.5397 39.7838 32.9213 39.8564 33.3046 39.8564C35.6146 39.8564 36.1685 37.8554 36.4657 36.7831C36.6126 36.2529 36.8153 35.5184 37.0331 34.7078L44.7805 6.2411C45.3647 4.09149 44.6471 2.71864 44.1692 2.09048ZM19.8024 36.7088C19.8024 36.7088 16.9284 41.388 16.6835 41.388C16.6768 41.388 16.6734 41.3846 16.67 41.3779C16.388 40.6197 13.5478 34.3262 13.5478 34.3262C13.0243 33.0648 13.1189 31.9841 14.0189 31.9841C14.2165 31.9841 14.4529 32.0364 14.7298 32.1513L16.9351 33.2978C17.3033 33.5494 17.7052 33.7673 18.1476 33.9412L18.259 33.9834L18.4667 34.0881C20.1705 34.9898 20.7126 35.3157 19.8024 36.7088ZM41.8592 5.44407L34.1152 33.9108C33.6778 35.515 33.3131 36.827 33.3063 36.827C33.2995 36.8237 33.2911 36.7933 33.2911 36.7882C33.2911 36.7781 32.028 36.2614 30.4846 35.6298L25.4019 33.5596C23.8585 32.9348 21.3272 31.9233 19.7754 31.3255L19.5187 31.2225L18.5697 30.7294C17.6292 30.0084 17.5464 28.8196 18.4921 27.8115L34.2165 10.9743C34.848 10.3005 35.0861 9.95268 34.9493 9.95268C34.8413 9.95268 34.4917 10.1773 33.9075 10.6349L14.0121 26.3289C13.1442 27.006 11.8254 27.3843 10.5859 27.3843C9.95102 27.3843 9.33467 27.283 8.80951 27.0753L4.22829 25.2634C2.67983 24.6504 2.62072 23.519 4.09489 22.7423L39.973 3.92938C40.3867 3.71324 40.7497 3.61192 41.0503 3.61192C41.822 3.61192 42.1732 4.28737 41.8592 5.44407Z" fill="white"/>
</svg>
