<svg width="72" height="72" viewBox="0 0 72 72" fill="none" xmlns="http://www.w3.org/2000/svg">
<path d="M58.7709 23.2085L58.7567 23.1517C57.6065 18.5021 52.4214 13.5128 47.6596 12.4748L47.6059 12.4638C39.904 10.9945 32.0946 10.9945 24.3943 12.4638L24.339 12.4748C19.5788 13.5128 14.3937 18.5021 13.2419 23.1517L13.2293 23.2085C11.8074 29.7018 11.8074 36.2868 13.2293 42.7801L13.2419 42.837C14.3445 47.2881 19.1436 52.0481 23.7276 53.3572V58.5474C23.7276 60.4259 26.0168 61.3486 27.3187 59.993L32.5773 54.5268C33.7178 54.5906 34.8589 54.6262 36.0001 54.6262C39.8771 54.6262 43.7557 54.2597 47.6059 53.525L47.6596 53.5139C52.4214 52.476 57.6065 47.4867 58.7567 42.8371L58.7709 42.7802C60.1928 36.2868 60.1928 29.7018 58.7709 23.2085ZM54.6095 41.8385C53.8417 44.8718 49.9046 48.643 46.7764 49.3397C42.6812 50.1185 38.5536 50.4514 34.4302 50.3371C34.3482 50.3349 34.2693 50.3667 34.2121 50.4254C33.627 51.0261 30.3726 54.3669 30.3726 54.3669L26.2886 58.5583C25.99 58.8696 25.4655 58.6579 25.4655 58.2281V49.6301C25.4655 49.4881 25.364 49.3674 25.2245 49.3401C25.2237 49.3399 25.2229 49.3397 25.2222 49.3396C22.094 48.6429 18.1585 44.8717 17.3891 41.8383C16.1094 35.9691 16.1094 30.0192 17.3891 24.15C18.1585 21.1166 22.094 17.3455 25.2222 16.6487C32.3743 15.2884 39.6259 15.2884 46.7764 16.6487C49.9062 17.3455 53.8417 21.1166 54.6095 24.15C55.8906 30.0194 55.8906 35.9692 54.6095 41.8385Z" fill="white"/>
<path d="M42.8048 45.8072C42.3239 45.6613 41.8656 45.5631 41.4399 45.3865C37.0296 43.5567 32.9705 41.196 29.7553 37.5773C27.9269 35.5195 26.4959 33.1963 25.2861 30.7377C24.7125 29.5718 24.229 28.3602 23.7363 27.1565C23.287 26.0588 23.9488 24.9247 24.6457 24.0977C25.2996 23.3215 26.141 22.7274 27.0523 22.2896C27.7636 21.9479 28.4652 22.1449 28.9846 22.7478C30.1076 24.0512 31.1391 25.4213 31.9744 26.9321C32.488 27.8614 32.3471 28.9973 31.4162 29.6298C31.19 29.7835 30.9838 29.9639 30.7731 30.1375C30.5882 30.2897 30.4143 30.4434 30.2876 30.6494C30.056 31.0264 30.0449 31.4709 30.194 31.8808C31.342 35.0355 33.2769 37.4885 36.4521 38.8098C36.9602 39.0212 37.4705 39.2673 38.0558 39.1991C39.0362 39.0845 39.3536 38.0093 40.0405 37.4475C40.7119 36.8985 41.57 36.8912 42.2932 37.3489C43.0167 37.8067 43.718 38.2982 44.415 38.7949C45.0993 39.2825 45.7805 39.7595 46.4117 40.3153C47.0185 40.8497 47.2275 41.5509 46.8858 42.2762C46.2602 43.6046 45.3498 44.7097 44.0366 45.4151C43.6658 45.614 43.223 45.6785 42.8048 45.8072C42.3239 45.6611 43.223 45.6785 42.8048 45.8072Z" fill="white"/>
<path d="M36.0121 20.7708C41.7811 20.9325 46.5193 24.761 47.5347 30.4643C47.7077 31.4361 47.7693 32.4297 47.8462 33.416C47.8786 33.8309 47.6437 34.2251 47.1959 34.2305C46.7335 34.236 46.5254 33.8491 46.4954 33.4344C46.436 32.6135 46.3948 31.7889 46.2817 30.9748C45.6845 26.6774 42.2577 23.122 37.9802 22.3591C37.3365 22.2442 36.6777 22.2141 36.0257 22.1456C35.6135 22.1024 35.0737 22.0774 34.9823 21.565C34.9057 21.1355 35.2683 20.7934 35.6773 20.7715C35.7886 20.7653 35.9004 20.7704 36.0121 20.7708C41.7811 20.9325 35.9004 20.7704 36.0121 20.7708Z" fill="white"/>
<path d="M44.7792 32.1358C44.7697 32.2078 44.7646 32.3772 44.7225 32.5367C44.5694 33.1159 43.6913 33.1884 43.4891 32.6039C43.4292 32.4304 43.4202 32.2331 43.4198 32.0463C43.4178 30.8245 43.1522 29.6038 42.5361 28.5407C41.9027 27.4481 40.935 26.5296 39.8 25.9738C39.1137 25.6377 38.3715 25.4289 37.6193 25.3044C37.2906 25.25 36.9583 25.217 36.6279 25.171C36.2276 25.1154 36.0138 24.8602 36.0328 24.4658C36.0505 24.0961 36.3207 23.8302 36.7235 23.8529C38.0475 23.9281 39.3262 24.2142 40.5032 24.8375C42.8968 26.105 44.264 28.1058 44.6631 30.7774C44.6811 30.8984 44.7101 31.0183 44.7193 31.1398C44.7419 31.4398 44.7561 31.7402 44.7792 32.1358C44.7697 32.2078 44.7561 31.7402 44.7792 32.1358Z" fill="white"/>
<path d="M41.191 31.9962C40.7083 32.0049 40.45 31.7377 40.4002 31.2952C40.3656 30.9867 40.3383 30.674 40.2647 30.3738C40.1196 29.7826 39.8054 29.2347 39.308 28.8725C39.0733 28.7014 38.8072 28.5767 38.5285 28.4963C38.1745 28.3941 37.8068 28.4222 37.4536 28.3356C37.07 28.2416 36.8578 27.931 36.9182 27.5711C36.973 27.2436 37.2916 26.988 37.6495 27.0139C39.8861 27.1754 41.4847 28.3317 41.7128 30.9647C41.7289 31.1505 41.7479 31.3469 41.7066 31.5246C41.636 31.8289 41.4107 31.9813 41.191 31.9962C40.7083 32.0049 41.4107 31.9813 41.191 31.9962Z" fill="white"/>
</svg>
