<svg width="160" height="113" viewBox="0 0 160 113"  xmlns="http://www.w3.org/2000/svg">
<path d="M23.7365 3.982H32.3765L40.0445 27.85L47.7125 3.982H53.4365L61.1045 27.85L68.7725 3.982H77.4125L65.1545 40H58.1345L50.5745 18.13L43.0145 40H35.9945L23.7365 3.982ZM85.4539 24.664H95.9839C95.6959 23.512 95.1739 22.576 94.4179 21.856C93.4459 20.956 92.2219 20.506 90.7459 20.506C89.1619 20.506 87.8479 21.028 86.8039 22.072C86.0839 22.828 85.6339 23.692 85.4539 24.664ZM103.166 28.498V29.308H85.1839C85.1839 30.964 85.6699 32.332 86.6419 33.412C87.5779 34.42 88.9099 34.924 90.6379 34.924C91.9339 34.924 92.9779 34.69 93.7699 34.222C94.3819 33.898 94.9399 33.232 95.4439 32.224L102.788 32.98C101.96 35.608 100.412 37.624 98.1439 39.028C96.1639 40.216 93.6259 40.81 90.5299 40.81C86.4259 40.81 83.2219 39.658 80.9179 37.354C78.5059 34.942 77.2999 31.846 77.2999 28.066C77.2999 24.25 78.5239 21.082 80.9719 18.562C83.2759 16.258 86.3539 15.106 90.2059 15.106C94.2739 15.106 97.4599 16.312 99.7639 18.724C102.032 21.136 103.166 24.394 103.166 28.498ZM108.235 0.633998H116.011V18.616C117.739 16.276 120.241 15.106 123.517 15.106C126.829 15.106 129.619 16.186 131.887 18.346C134.407 20.758 135.667 23.926 135.667 27.85C135.667 31.774 134.407 34.996 131.887 37.516C129.763 39.712 127.009 40.81 123.625 40.81C120.241 40.81 117.703 39.568 116.011 37.084V40H108.235V0.633998ZM121.627 21.802C119.863 21.802 118.405 22.396 117.253 23.584C116.101 24.808 115.525 26.284 115.525 28.012C115.525 29.776 116.119 31.216 117.307 32.332C118.531 33.52 120.007 34.114 121.735 34.114C123.283 34.114 124.633 33.556 125.785 32.44C127.045 31.252 127.675 29.776 127.675 28.012C127.675 26.14 127.045 24.61 125.785 23.422C124.669 22.342 123.283 21.802 121.627 21.802ZM28.2143 60.634V100H20.4383V97.084C18.7463 99.568 16.2083 100.81 12.8243 100.81C9.44029 100.81 6.68629 99.712 4.56229 97.516C2.04229 94.996 0.782289 91.774 0.782289 87.85C0.782289 83.926 2.04229 80.758 4.56229 78.346C6.83029 76.186 9.62029 75.106 12.9323 75.106C16.2083 75.106 18.7103 76.276 20.4383 78.616V60.634H28.2143ZM14.8223 81.802C13.1663 81.802 11.7803 82.342 10.6643 83.422C9.40429 84.61 8.77429 86.14 8.77429 88.012C8.77429 89.776 9.40429 91.252 10.6643 92.44C11.8163 93.556 13.1663 94.114 14.7143 94.114C16.4423 94.114 17.9183 93.52 19.1423 92.332C20.3303 91.216 20.9243 89.776 20.9243 88.012C20.9243 86.284 20.3483 84.808 19.1963 83.584C18.0443 82.396 16.5863 81.802 14.8223 81.802ZM41.4207 84.664H51.9507C51.6627 83.512 51.1407 82.576 50.3847 81.856C49.4127 80.956 48.1887 80.506 46.7127 80.506C45.1287 80.506 43.8147 81.028 42.7707 82.072C42.0507 82.828 41.6007 83.692 41.4207 84.664ZM59.1327 88.498V89.308H41.1507C41.1507 90.964 41.6367 92.332 42.6087 93.412C43.5447 94.42 44.8767 94.924 46.6047 94.924C47.9007 94.924 48.9447 94.69 49.7367 94.222C50.3487 93.898 50.9067 93.232 51.4107 92.224L58.7547 92.98C57.9267 95.608 56.3787 97.624 54.1107 99.028C52.1307 100.216 49.5927 100.81 46.4967 100.81C42.3927 100.81 39.1887 99.658 36.8847 97.354C34.4727 94.942 33.2667 91.846 33.2667 88.066C33.2667 84.25 34.4907 81.082 36.9387 78.562C39.2427 76.258 42.3207 75.106 46.1727 75.106C50.2407 75.106 53.4267 76.312 55.7307 78.724C57.9987 81.136 59.1327 84.394 59.1327 88.498ZM81.8059 77.158L78.7279 82.072C77.2159 81.172 75.7939 80.722 74.4619 80.722C73.4539 80.722 72.7159 80.956 72.2479 81.424C71.9239 81.748 71.7619 82.108 71.7619 82.504C71.7619 82.936 72.0139 83.296 72.5179 83.584C72.5899 83.656 73.3639 83.926 74.8399 84.394L76.8919 85.042C78.6199 85.582 79.9519 86.284 80.8879 87.148C82.1479 88.3 82.7779 89.83 82.7779 91.738C82.7779 94.294 81.9499 96.4 80.2939 98.056C78.4579 99.892 75.8479 100.81 72.4639 100.81C68.5039 100.81 65.2099 99.658 62.5819 97.354L65.8759 92.116C66.8119 92.908 67.6939 93.502 68.5219 93.898C69.5299 94.402 70.6099 94.654 71.7619 94.654C72.9139 94.654 73.7239 94.474 74.1919 94.114C74.7319 93.682 75.0019 93.16 75.0019 92.548C75.0019 91.972 74.7139 91.504 74.1379 91.144C73.7419 90.892 72.9499 90.604 71.7619 90.28L69.8179 89.686C68.1979 89.182 66.9019 88.444 65.9299 87.472C64.7779 86.248 64.2019 84.79 64.2019 83.098C64.2019 80.83 64.9759 78.976 66.5239 77.536C68.2879 75.916 70.7179 75.106 73.8139 75.106C76.8019 75.106 79.4659 75.79 81.8059 77.158ZM87.94 75.916H95.716V100H87.94V75.916ZM88.588 68.896C87.724 67.996 87.292 66.916 87.292 65.656C87.292 64.396 87.724 63.334 88.588 62.47C89.488 61.57 90.568 61.12 91.828 61.12C93.088 61.12 94.15 61.57 95.014 62.47C95.914 63.334 96.364 64.396 96.364 65.656C96.364 66.916 95.914 67.996 95.014 68.896C94.15 69.76 93.088 70.192 91.828 70.192C90.568 70.192 89.488 69.76 88.588 68.896ZM120.63 78.724V75.916H128.406V98.542C128.406 99.982 128.352 101.17 128.244 102.106C128.172 103.078 127.902 104.194 127.434 105.454C126.966 106.75 126.3 107.866 125.436 108.802C123.204 111.178 119.82 112.366 115.284 112.366C110.964 112.366 107.616 111.34 105.24 109.288C103.296 107.632 102.09 105.508 101.622 102.916H110.1C110.352 103.888 110.928 104.68 111.828 105.292C112.656 105.832 113.772 106.102 115.176 106.102C116.796 106.102 118.092 105.67 119.064 104.806C120.108 103.798 120.63 102.124 120.63 99.784V97.03C119.154 99.442 116.76 100.648 113.448 100.648C109.848 100.648 106.914 99.514 104.646 97.246C102.306 94.834 101.136 91.81 101.136 88.174C101.136 84.214 102.324 81.01 104.7 78.562C106.932 76.258 109.848 75.106 113.448 75.106C116.616 75.106 119.01 76.312 120.63 78.724ZM115.23 81.856C113.502 81.856 112.08 82.378 110.964 83.422C109.74 84.574 109.128 86.068 109.128 87.904C109.128 89.596 109.686 91.036 110.802 92.224C111.882 93.376 113.34 93.952 115.176 93.952C116.868 93.952 118.272 93.43 119.388 92.386C120.648 91.198 121.278 89.668 121.278 87.796C121.278 85.996 120.666 84.52 119.442 83.368C118.326 82.36 116.922 81.856 115.23 81.856ZM134.439 100V75.916H142.215V78.778C144.051 76.438 146.535 75.268 149.667 75.268C152.655 75.268 154.959 76.078 156.579 77.698C158.199 79.318 159.009 81.676 159.009 84.772V100H151.233V87.634C151.233 85.294 150.801 83.692 149.937 82.828C149.217 82.108 148.227 81.748 146.967 81.748C145.599 81.748 144.519 82.18 143.727 83.044C142.719 84.052 142.215 85.582 142.215 87.634V100H134.439Z" />
</svg>
